<?xml version="1.0" encoding="UTF-8" standalone="no"?>
<svg
   xmlns:dc="http://purl.org/dc/elements/1.1/"
   xmlns:cc="http://creativecommons.org/ns#"
   xmlns:rdf="http://www.w3.org/1999/02/22-rdf-syntax-ns#"
   xmlns:svg="http://www.w3.org/2000/svg"
   xmlns="http://www.w3.org/2000/svg"
   xmlns:sodipodi="http://sodipodi.sourceforge.net/DTD/sodipodi-0.dtd"
   xmlns:inkscape="http://www.inkscape.org/namespaces/inkscape"
   width="786.77722"
   height="709.01373"
   id="svg2985"
   version="1.1"
   inkscape:version="0.48.5 r10040"
   sodipodi:docname="3mm_tree.svg">
  <metadata
     id="metadata3226">
    <rdf:RDF>
      <cc:Work
         rdf:about="">
        <dc:format>image/svg+xml</dc:format>
        <dc:type
           rdf:resource="http://purl.org/dc/dcmitype/StillImage" />
        <dc:title></dc:title>
      </cc:Work>
    </rdf:RDF>
  </metadata>
  <sodipodi:namedview
     pagecolor="#ffffff"
     bordercolor="#666666"
     borderopacity="1"
     objecttolerance="10"
     gridtolerance="10"
     guidetolerance="10"
     inkscape:pageopacity="0"
     inkscape:pageshadow="2"
     inkscape:window-width="1468"
     inkscape:window-height="975"
     id="namedview3224"
     showgrid="false"
     inkscape:zoom="1.0157856"
     inkscape:cx="352.92361"
     inkscape:cy="352.06733"
     inkscape:window-x="0"
     inkscape:window-y="0"
     inkscape:window-maximized="0"
     inkscape:current-layer="g3006"
     fit-margin-top="0"
     fit-margin-left="0"
     fit-margin-right="0"
     fit-margin-bottom="0"
     inkscape:document-units="cm"
     units="cm" />
  <desc
     id="desc2987">C:\Users\ingegno\Documents\lasercut\juweelboom\3mm_tree.dxf - scale = 63.158655</desc>
  <defs
     id="defs2989">
    <marker
       refY="0"
       refX="0"
       style="overflow:visible"
       id="DistanceX"
       orient="auto">
      <path
         style="stroke:#000000;stroke-width:0.5"
         d="M 3,-3 -3,3 M 0,-5 0,5"
         id="path2992"
         inkscape:connector-curvature="0" />
    </marker>
    <pattern
       height="8"
       width="8"
       patternUnits="userSpaceOnUse"
       y="0"
       x="0"
       id="Hatch">
      <path
         linecap="square"
         stroke="#000000"
         stroke-width="0.25"
         d="M8 4 l-4,4"
         id="path2995" />
      <path
         linecap="square"
         stroke="#000000"
         stroke-width="0.25"
         d="M6 2 l-4,4"
         id="path2997" />
      <path
         linecap="square"
         stroke="#000000"
         stroke-width="0.25"
         d="M4 0 l-4,4"
         id="path2999" />
    </pattern>
    <symbol
       id="*Model_Space" />
    <symbol
       id="*Paper_Space" />
    <symbol
       id="*Paper_Space0" />
  </defs>
  <g
     inkscape:label="0"
     inkscape:groupmode="layer"
     id="g3004"
     transform="translate(26.263601,-281.89447)" />
  <g
     inkscape:label="Layer 1"
     inkscape:groupmode="layer"
     id="g3006"
     transform="translate(26.263601,-281.89447)">
    <path
       style="fill:none;stroke:#ff0000;stroke-width:0.49606299;stroke-miterlimit:4;stroke-opacity:1;stroke-dasharray:none"
       d="m 477.48174,310.18113 c 1.54863,0.85264 3.77087,-0.20589 4.96815,-2.36771 0,0 1.19504,-2.16629 0.91083,-4.61232 -1.5464,-0.85488 -1.5464,-0.85488 -3.09503,-1.70976 -2.22224,1.06077 -3.41952,3.22258 -3.41952,3.22258 -1.19504,2.16406 -0.91082,4.61009 0.63557,5.46721 z"
       id="path3116"
       inkscape:connector-curvature="0" />
    <path
       style="fill:none;stroke:#ff0000;stroke-width:0.49606299;stroke-miterlimit:4;stroke-opacity:1;stroke-dasharray:none"
       d="m 408.67063,374.42914 c 1.66724,0.58409 3.68359,-0.83026 4.50267,-3.16216 0,0 0.81907,-2.33413 0.13204,-4.69736 -1.66724,-0.58633 -1.66724,-0.58633 -3.33672,-1.17266 -2.01412,1.41659 -2.83543,3.74849 -2.83543,3.74849 -0.81907,2.33189 -0.1298,4.69736 1.53744,5.28369 z"
       id="path3118"
       inkscape:connector-curvature="0" />
    <path
       style="fill:none;stroke:#ff0000;stroke-width:0.49606299;stroke-miterlimit:4;stroke-opacity:1;stroke-dasharray:none"
       d="m 373.92044,410.7302 c -0.38939,1.72319 1.24875,3.56498 3.65898,4.11103 0,0 2.41022,0.54605 4.6817,-0.40954 0.38939,-1.72318 0.38939,-1.72318 0.78102,-3.44861 -1.63814,-1.83955 -4.0506,-2.3856 -4.0506,-2.3856 -2.41023,-0.54605 -4.67946,0.40953 -5.0711,2.13272 z"
       id="path3120"
       inkscape:connector-curvature="0" />
    <path
       style="fill:none;stroke:#ff0000;stroke-width:0.49606299;stroke-miterlimit:4;stroke-opacity:1;stroke-dasharray:none"
       d="m 427.94571,346.0995 c 1.40317,-1.07643 1.32036,-3.53813 -0.18575,-5.50077 0,0 -1.50611,-1.9604 -3.86262,-2.67653 -1.40317,1.07643 -1.40317,1.07643 -2.8041,2.15286 0.0828,2.4617 1.58892,4.4221 1.58892,4.4221 1.50611,1.96041 3.86262,2.67877 5.26355,1.60234 z"
       id="path3122"
       inkscape:connector-curvature="0" />
    <path
       style="fill:none;stroke:#ff0000;stroke-width:0.49606299;stroke-miterlimit:4;stroke-opacity:1;stroke-dasharray:none"
       d="m 525.99728,298.54402 c 1.68515,0.5371 3.65898,-0.93545 4.40868,-3.29196 0,0 0.75193,-2.35428 -0.004,-4.6996 -1.68514,-0.5371 -1.68514,-0.5371 -3.36805,-1.07419 -1.97383,1.47477 -2.72577,3.82905 -2.72577,3.82905 -0.74969,2.35651 0.007,4.6996 1.68962,5.2367 z"
       id="path3124"
       inkscape:connector-curvature="0" />
    <path
       style="fill:none;stroke:#ff0000;stroke-width:0.49606299;stroke-miterlimit:4;stroke-opacity:1;stroke-dasharray:none"
       d="m 637.05108,324.28216 c 0.42073,1.71648 2.70787,2.62954 5.10914,2.04097 0,0 2.40127,-0.5908 4.00585,-2.45945 -0.42296,-1.71648 -0.42296,-1.71648 -0.84369,-3.43295 -2.28714,-0.91306 -4.68841,-0.3245 -4.68841,-0.3245 -2.40127,0.58857 -4.00585,2.45946 -3.58289,4.17593 z"
       id="path3126"
       inkscape:connector-curvature="0" />
    <path
       style="fill:none;stroke:#ff0000;stroke-width:0.49606299;stroke-miterlimit:4;stroke-opacity:1;stroke-dasharray:none"
       d="m 670.2795,328.72888 c 1.76794,0 3.20244,-2.00292 3.20244,-4.47357 0,0 0,-2.47289 -1.4345,-4.47581 -1.76794,0 -1.76794,0 -3.53365,0 -1.43449,2.00292 -1.43449,4.47581 -1.43449,4.47581 0,2.47065 1.43449,4.47357 3.2002,4.47357 z"
       id="path3128"
       inkscape:connector-curvature="0" />
    <path
       style="fill:none;stroke:#ff0000;stroke-width:0.49606299;stroke-miterlimit:4;stroke-opacity:1;stroke-dasharray:none"
       d="m 432.73259,409.69629 c 0.93097,-1.50387 -0.0179,-3.77535 -2.1193,-5.07781 0,0 -2.10139,-1.3047 -4.55861,-1.14133 -0.93097,1.50387 -0.93097,1.50387 -1.86194,3.00551 0.94888,2.27371 3.05027,3.57617 3.05027,3.57617 2.09915,1.30246 4.55861,1.13909 5.48958,-0.36254 z"
       id="path3130"
       inkscape:connector-curvature="0" />
    <path
       style="fill:none;stroke:#ff0000;stroke-width:0.49606299;stroke-miterlimit:4;stroke-opacity:1;stroke-dasharray:none"
       d="m 718.26914,379.13098 c 0.50802,1.69409 2.83992,2.49079 5.20762,1.78137 0,0 2.3677,-0.71165 3.876,-2.65863 -0.508,-1.69409 -0.508,-1.69409 -1.016,-3.38595 -2.3319,-0.79669 -4.6996,-0.0873 -4.6996,-0.0873 -2.3677,0.70942 -3.87379,2.65863 -3.36802,4.35049 z"
       id="path3132"
       inkscape:connector-curvature="0" />
    <path
       style="fill:none;stroke:#ff0000;stroke-width:0.49606299;stroke-miterlimit:4;stroke-opacity:1;stroke-dasharray:none"
       d="m 713.91194,418.76652 c 1.51729,-0.90635 1.72094,-3.3591 0.45429,-5.48287 0,0 -1.26889,-2.12153 -3.52694,-3.10621 -1.5173,0.90635 -1.5173,0.90635 -3.0346,1.8127 -0.20365,2.45498 1.06524,4.57875 1.06524,4.57875 1.2689,2.12154 3.52471,3.10622 5.04201,2.19763 z"
       id="path3134"
       inkscape:connector-curvature="0" />
    <path
       style="fill:none;stroke:#ff0000;stroke-width:0.49606299;stroke-miterlimit:4;stroke-opacity:1;stroke-dasharray:none"
       d="m 694.5921,441.00682 c 0.3603,-1.73214 -1.30694,-3.54261 -3.72835,-4.04614 0,0 -2.41917,-0.50352 -4.67275,0.49011 -0.36254,1.7299 -0.36254,1.7299 -0.72284,3.4598 1.66948,1.8127 4.09089,2.31623 4.09089,2.31623 2.41918,0.50353 4.67275,-0.4901 5.03305,-2.22 z"
       id="path3136"
       inkscape:connector-curvature="0" />
    <path
       style="fill:none;stroke:#ff0000;stroke-width:0.49606299;stroke-miterlimit:4;stroke-opacity:1;stroke-dasharray:none"
       d="m 751.07236,438.07292 c -0.6535,-1.64262 -3.0436,-2.23342 -5.3419,-1.32036 0,0 -2.2961,0.91307 -3.6299,2.98537 0.6535,1.64262 0.6535,1.64262 1.307,3.28524 2.3923,0.59081 4.6884,-0.32226 4.6884,-0.32226 2.2983,-0.9153 3.6299,-2.98536 2.9764,-4.62799 z"
       id="path3138"
       inkscape:connector-curvature="0" />
    <path
       style="fill:none;stroke:#ff0000;stroke-width:0.49606299;stroke-miterlimit:4;stroke-opacity:1;stroke-dasharray:none"
       d="m 609.88739,404.45959 c 1.16371,1.33155 3.61422,1.09434 5.47616,-0.53262 0,0 1.86193,-1.62696 2.42812,-4.02375 -1.16147,-1.33156 -1.16147,-1.33156 -2.32518,-2.66311 -2.45274,0.23945 -4.31468,1.86641 -4.31468,1.86641 -1.8597,1.62472 -2.42589,4.02375 -1.26442,5.35307 z"
       id="path3140"
       inkscape:connector-curvature="0" />
    <path
       style="fill:none;stroke:#ff0000;stroke-width:0.49606299;stroke-miterlimit:4;stroke-opacity:1;stroke-dasharray:none"
       d="m 588.90032,297.22589 c 1.74109,-0.30211 2.80857,-2.52212 2.38561,-4.95696 0,0 -0.42521,-2.43484 -2.18196,-4.1625 -1.74109,0.30212 -1.74109,0.30212 -3.48218,0.60647 -1.06748,2.22 -0.64228,4.65484 -0.64228,4.65484 0.42296,2.43484 2.17972,4.16251 3.92081,3.85815 z"
       id="path3142"
       inkscape:connector-curvature="0" />
    <path
       style="fill:none;stroke:#ff0000;stroke-width:0.49606299;stroke-miterlimit:4;stroke-opacity:1;stroke-dasharray:none"
       d="m -17.23403,462.51309 c 0,0 0,0 0,0 z"
       id="path3144"
       inkscape:connector-curvature="0" />
    <path
       style="fill:none;stroke:#ff0000;stroke-width:0.49606299;stroke-miterlimit:4;stroke-opacity:1;stroke-dasharray:none"
       d="m 477.48174,701.90403 c 1.54863,-0.85712 3.77087,0.20365 4.96815,2.3677 0,0 1.19504,2.16182 0.91083,4.61009 -1.5464,0.85488 -1.5464,0.85488 -3.09503,1.70976 -2.22224,-1.05853 -3.41952,-3.22259 -3.41952,-3.22259 -1.19504,-2.16405 -0.91082,-4.61008 0.63557,-5.46496 z"
       id="path3146"
       inkscape:connector-curvature="0" />
    <path
       style="fill:none;stroke:#ff0000;stroke-width:0.49606299;stroke-miterlimit:4;stroke-opacity:1;stroke-dasharray:none"
       d="m 408.67063,637.65601 c 1.66724,-0.58409 3.68359,0.83027 4.50267,3.16216 0,0 0.81907,2.3319 0.13204,4.6996 -1.66724,0.5841 -1.66724,0.5841 -3.33672,1.17043 -2.01412,-1.4166 -2.83543,-3.74849 -2.83543,-3.74849 -0.81907,-2.3319 -0.1298,-4.69737 1.53744,-5.2837 z"
       id="path3148"
       inkscape:connector-curvature="0" />
    <path
       style="fill:none;stroke:#ff0000;stroke-width:0.49606299;stroke-miterlimit:4;stroke-opacity:1;stroke-dasharray:none"
       d="m 373.92044,601.35495 c -0.38939,-1.72542 1.24875,-3.56498 3.65898,-4.11103 0,0 2.41022,-0.54605 4.6817,0.40954 0.38939,1.72542 0.38939,1.72542 0.78102,3.44861 -1.63814,1.83956 -4.0506,2.38561 -4.0506,2.38561 -2.41023,0.54605 -4.67946,-0.40954 -5.0711,-2.13273 z"
       id="path3150"
       inkscape:connector-curvature="0" />
    <path
       style="fill:none;stroke:#ff0000;stroke-width:0.49606299;stroke-miterlimit:4;stroke-opacity:1;stroke-dasharray:none"
       d="m 427.94571,665.98565 c 1.40317,1.07644 1.32036,3.53813 -0.18575,5.49854 0,0 -1.50611,1.9604 -3.86262,2.67653 -1.40317,-1.07643 -1.40317,-1.07643 -2.8041,-2.15286 0.0828,-2.4617 1.58892,-4.4221 1.58892,-4.4221 1.50611,-1.96265 3.86262,-2.67654 5.26355,-1.60011 z"
       id="path3152"
       inkscape:connector-curvature="0" />
    <path
       style="fill:none;stroke:#ff0000;stroke-width:0.49606299;stroke-miterlimit:4;stroke-opacity:1;stroke-dasharray:none"
       d="m 525.99728,713.5389 c 1.68515,-0.5371 3.65898,0.93544 4.40868,3.29196 0,0 0.75193,2.35427 -0.004,4.6996 -1.68514,0.53709 -1.68514,0.53709 -3.36805,1.07419 -1.97383,-1.47478 -2.72577,-3.82905 -2.72577,-3.82905 -0.74969,-2.35652 0.007,-4.6996 1.68962,-5.2367 z"
       id="path3154"
       inkscape:connector-curvature="0" />
    <path
       style="fill:none;stroke:#ff0000;stroke-width:0.49606299;stroke-miterlimit:4;stroke-opacity:1;stroke-dasharray:none"
       d="m 637.05108,687.80075 c 0.42073,-1.71647 2.70787,-2.62954 5.10914,-2.04097 0,0 2.40127,0.59081 4.00585,2.45946 -0.42296,1.71647 -0.42296,1.71647 -0.84369,3.43295 -2.28714,0.9153 -4.68841,0.32449 -4.68841,0.32449 -2.40127,-0.58857 -4.00585,-2.45945 -3.58289,-4.17593 z"
       id="path3156"
       inkscape:connector-curvature="0" />
    <path
       style="fill:none;stroke:#ff0000;stroke-width:0.49606299;stroke-miterlimit:4;stroke-opacity:1;stroke-dasharray:none"
       d="m 670.2795,683.35404 c 1.76794,0 3.20244,2.00292 3.20244,4.47357 0,0 0,2.47288 -1.4345,4.47805 -1.76794,0 -1.76794,0 -3.53365,0 -1.43449,-2.00517 -1.43449,-4.47805 -1.43449,-4.47805 0,-2.47065 1.43449,-4.47357 3.2002,-4.47357 z"
       id="path3158"
       inkscape:connector-curvature="0" />
    <path
       style="fill:none;stroke:#ff0000;stroke-width:0.49606299;stroke-miterlimit:4;stroke-opacity:1;stroke-dasharray:none"
       d="m 432.73259,602.38887 c 0.93097,1.50387 -0.0179,3.77758 -2.1193,5.08004 0,0 -2.10139,1.30022 -4.55861,1.1391 -0.93097,-1.50388 -0.93097,-1.50388 -1.86194,-3.00551 0.94888,-2.27371 3.05027,-3.57617 3.05027,-3.57617 2.09915,-1.30246 4.55861,-1.1391 5.48958,0.36254 z"
       id="path3160"
       inkscape:connector-curvature="0" />
    <path
       style="fill:none;stroke:#ff0000;stroke-width:0.49606299;stroke-miterlimit:4;stroke-opacity:1;stroke-dasharray:none"
       d="m 718.26914,632.95417 c 0.50802,-1.69409 2.83992,-2.49078 5.20762,-1.78137 0,0 2.3677,0.71166 3.876,2.65863 -0.508,1.6941 -0.508,1.6941 -1.016,3.38595 -2.3319,0.7967 -4.6996,0.0873 -4.6996,0.0873 -2.3677,-0.70941 -3.87379,-2.65863 -3.36802,-4.35049 z"
       id="path3162"
       inkscape:connector-curvature="0" />
    <path
       style="fill:none;stroke:#ff0000;stroke-width:0.49606299;stroke-miterlimit:4;stroke-opacity:1;stroke-dasharray:none"
       d="m 713.91194,593.3164 c 1.51729,0.90859 1.72094,3.36133 0.45429,5.4851 0,0 -1.26889,2.12154 -3.52694,3.10622 -1.5173,-0.90635 -1.5173,-0.90635 -3.0346,-1.81271 -0.20365,-2.45498 1.06524,-4.57651 1.06524,-4.57651 1.2689,-2.12377 3.52471,-3.10845 5.04201,-2.2021 z"
       id="path3164"
       inkscape:connector-curvature="0" />
    <path
       style="fill:none;stroke:#ff0000;stroke-width:0.49606299;stroke-miterlimit:4;stroke-opacity:1;stroke-dasharray:none"
       d="m 694.5921,571.07834 c 0.3603,1.7299 -1.30694,3.5426 -3.72835,4.04613 0,0 -2.41917,0.50353 -4.67275,-0.4901 -0.36254,-1.7299 -0.36254,-1.7299 -0.72284,-3.46204 1.66948,-1.81047 4.09089,-2.31399 4.09089,-2.31399 2.41918,-0.50577 4.67275,0.4901 5.03305,2.22 z"
       id="path3166"
       inkscape:connector-curvature="0" />
    <path
       style="fill:none;stroke:#ff0000;stroke-width:0.49606299;stroke-miterlimit:4;stroke-opacity:1;stroke-dasharray:none"
       d="m 751.07236,574.01223 c -0.6535,1.64262 -3.0436,2.23343 -5.3419,1.32036 0,0 -2.2961,-0.91306 -3.6299,-2.98536 0.6535,-1.64262 0.6535,-1.64262 1.307,-3.28525 2.3923,-0.5908 4.6884,0.32226 4.6884,0.32226 2.2983,0.91307 3.6299,2.98537 2.9764,4.62799 z"
       id="path3168"
       inkscape:connector-curvature="0" />
    <path
       style="fill:none;stroke:#ff0000;stroke-width:0.49606299;stroke-miterlimit:4;stroke-opacity:1;stroke-dasharray:none"
       d="m 609.88739,607.62333 c 1.16371,-1.32932 3.61422,-1.08986 5.47616,0.53486 0,0 1.86193,1.62695 2.42812,4.02599 -1.16147,1.32931 -1.16147,1.32931 -2.32518,2.66087 -2.45274,-0.23946 -4.31468,-1.86642 -4.31468,-1.86642 -1.8597,-1.62472 -2.42589,-4.02375 -1.26442,-5.3553 z"
       id="path3170"
       inkscape:connector-curvature="0" />
    <path
       style="fill:none;stroke:#ff0000;stroke-width:0.49606299;stroke-miterlimit:4;stroke-opacity:1;stroke-dasharray:none"
       d="m 588.90032,714.85479 c 1.74109,0.30435 2.80857,2.52435 2.38561,4.95919 0,0 -0.42521,2.43708 -2.18196,4.16475 -1.74109,-0.30436 -1.74109,-0.30436 -3.48218,-0.60871 -1.06748,-2.21777 -0.64228,-4.65485 -0.64228,-4.65485 0.42296,-2.43484 2.17972,-4.1625 3.92081,-3.86038 z"
       id="path3172"
       inkscape:connector-curvature="0" />
    <path
       style="fill:none;stroke:#ff0000;stroke-width:0.49606299;stroke-miterlimit:4;stroke-opacity:1;stroke-dasharray:none"
       d="m 497.78625,642.39142 c 1.64039,-0.66018 3.71716,0.66242 4.64142,2.95627 0,0 0.92425,2.29162 0.3424,4.68618 -1.64039,0.66018 -1.64039,0.66018 -3.27853,1.32036 -2.07902,-1.3226 -3.00103,-3.61645 -3.00103,-3.61645 -0.92426,-2.29386 -0.3424,-4.68618 1.29574,-5.34636 z"
       id="path3174"
       inkscape:connector-curvature="0" />
    <path
       style="fill:none;stroke:#ff0000;stroke-width:0.49606299;stroke-miterlimit:4;stroke-opacity:1;stroke-dasharray:none"
       d="m 497.78625,369.69373 c 1.64039,0.66019 3.71716,-0.66242 4.64142,-2.95627 0,0 0.92425,-2.29385 0.3424,-4.68617 -1.64039,-0.66018 -1.64039,-0.66018 -3.27853,-1.32036 -2.07902,1.3226 -3.00103,3.61645 -3.00103,3.61645 -0.92426,2.29161 -0.3424,4.68617 1.29574,5.34635 z"
       id="path3176"
       inkscape:connector-curvature="0" />
    <path
       style="fill:none;stroke:#ff0000;stroke-width:0.49606299;stroke-miterlimit:4;stroke-opacity:1;stroke-dasharray:none"
       d="m 565.53659,482.64528 c 12.53227,-0.45206 25.06677,-0.90188 38.33979,-10.35702 0,0 13.27301,-9.45292 27.28678,-27.91116 8.325,-14.13461 8.325,-14.13461 16.65225,-28.26921 2.63849,-9.81322 5.09571,-18.95058 5.09571,-18.95058 2.45946,-9.13961 4.73541,-17.60337 5.62609,-28.16404 0,0 0.89293,-10.55844 0.40282,-23.21155 0.65123,-10.2608 0.65123,-10.2608 1.30246,-20.52159 1.79257,-7.86624 3.71493,-11.16491 3.71493,-11.16491 1.92236,-3.30315 3.97004,-2.03649 6.54811,-0.34687 0,0 2.57583,1.69185 5.68204,3.80891 2.02083,1.4054 2.02083,1.4054 4.04389,2.80857 0.93769,0.69375 0.16785,3.11069 0.16785,3.11069 -0.77208,2.41694 -3.25168,6.56154 -4.24531,13.55499 0,0 -0.99587,6.99122 -0.50353,16.83352 -0.30883,9.66775 -0.30883,9.66775 -0.61766,19.3355 -1.11224,9.49767 3.87158,11.57892 3.87158,11.57892 4.98381,2.08125 16.06368,-3.25167 25.05334,-7.26424 0,0 8.98743,-4.0148 15.88913,-6.707 3.7932,-0.79445 3.7932,-0.79445 7.5887,-1.58667 0.6871,1.10776 1.7769,2.83766 1.7769,2.83766 1.0921,1.7299 2.5848,4.08641 3.4039,5.60595 0,0 0.8191,1.51954 0.9668,2.20434 -3.3815,1.92683 -3.3815,1.92683 -6.7608,3.85591 -6.9084,3.17111 -14.53962,6.16319 -14.53962,6.16319 -7.63126,2.99208 -15.98759,5.80513 -23.36149,9.49543 0,0 -7.37166,3.68807 -13.76312,8.26011 -4.20502,4.97262 -4.20502,4.97262 -8.41228,9.94525 -2.02531,5.37545 -2.01412,8.12583 -2.01412,8.12583 0.0112,2.74815 2.05664,2.87123 8.7144,3.94767 0,0 6.65777,1.07419 17.92786,3.10173 5.27027,1.79033 5.27027,1.79033 10.5383,3.58065 -0.72956,1.55311 -1.20847,2.57583 -1.20847,2.57583 -0.47668,1.02272 -0.70047,1.51506 -1.10329,2.26924 0,0 -0.40282,0.75193 -0.98468,1.77018 -0.83473,1.45911 -0.83473,1.45911 -1.66724,2.91823 -1.08538,1.90445 -7.77,0.71165 -7.77,0.71165 -6.68686,-1.1928 -18.97072,-5.47839 -25.88585,-6.20123 0,0 -6.91513,-0.72509 -8.45928,2.11482 -6.62644,7.63573 -6.62644,7.63573 -13.25287,15.27146 -11.71096,12.43604 -11.7132,18.65294 -11.7132,18.65294 -0.002,6.2169 11.702,6.2169 23.40625,6.2169"
       id="path3178"
       inkscape:connector-curvature="0" />
    <path
       style="fill:none;stroke:#ff0000;stroke-width:0.49606299;stroke-miterlimit:4;stroke-opacity:1;stroke-dasharray:none"
       d="m 409.41138,482.64528 c 1.38303,0 2.76605,0 4.14908,0"
       id="path3180"
       inkscape:connector-curvature="0" />
    <path
       style="fill:none;stroke:#ff0000;stroke-width:0.49606299;stroke-miterlimit:4;stroke-opacity:1;stroke-dasharray:none"
       d="m 482.03811,482.64528 c -3.56274,0 -7.12772,0 -10.69271,0"
       id="path3182"
       inkscape:connector-curvature="0" />
    <path
       style="fill:none;stroke:#ff0000;stroke-width:0.49606299;stroke-miterlimit:4;stroke-opacity:1;stroke-dasharray:none"
       d="m 565.53659,482.64528 c -5.83646,0 -11.67291,0 -17.50937,0"
       id="path3184"
       inkscape:connector-curvature="0" />
    <path
       style="fill:none;stroke:#ff0000;stroke-width:0.49606299;stroke-miterlimit:4;stroke-opacity:1;stroke-dasharray:none"
       d="m 656.22098,482.64528 c -0.98244,0 -1.96488,0 -2.45722,0 0,0 -0.4901,0 -0.4901,0"
       id="path3186"
       inkscape:connector-curvature="0" />
    <path
       style="fill:none;stroke:#ff0000;stroke-width:0.49606299;stroke-miterlimit:4;stroke-opacity:1;stroke-dasharray:none"
       d="m 413.56046,482.64528 c 7.0024,-0.59305 12.9418,-1.15028 17.68392,-4.85625 0,0 6.40712,-5.00396 22.39696,-30.1983 0.3133,-6.08934 0.3133,-6.08934 0.63332,-12.3398 -2.10363,-3.82906 -8.27129,-8.35187 -8.27129,-8.35187 -6.16767,-4.5228 -12.55465,-8.61817 -17.71079,-11.97055 0,0 -5.15613,-3.35238 -9.08141,-5.96178 -1.3338,-1.76571 -1.3338,-1.76571 -2.67206,-3.53365 1.25099,-0.92426 2.80857,-2.10363 2.80857,-2.10363 1.55534,-1.18162 3.41728,-2.61611 4.88087,-3.88724 0,0 1.46135,-1.27337 2.52883,-2.38561 3.62541,2.49303 3.62541,2.49303 7.25082,4.98605 6.18333,6.09606 11.34617,10.38836 11.34617,10.38836 5.16285,4.2923 9.30521,6.77861 11.00826,3.36581 0,0 1.70081,-3.41505 0.96454,-12.72921 -3.31658,-10.01686 -3.31658,-10.01686 -6.63539,-20.03372 -5.89912,-10.71957 -13.31778,-19.49663 -13.31778,-19.49663 -7.41865,-8.77707 -16.35908,-15.60939 -20.03148,-19.48097 0,0 -3.67241,-3.87157 -2.07454,-4.78464 1.70976,-1.31812 1.70976,-1.31812 3.41952,-2.63625 1.82165,-1.72319 3.0525,-2.88914 3.0525,-2.88914 1.23308,-1.16594 1.87536,-1.77242 3.77534,-0.20141 0,0 1.89999,1.56878 5.05991,5.3195 4.77345,5.21209 4.77345,5.21209 9.54914,10.4264 6.38922,6.67791 13.12755,-0.55052 13.12755,-0.55052 6.73386,-7.23067 13.81683,-28.36769 17.85624,-39.14544 0,0 4.03942,-10.77775 5.03753,-11.19624 1.75452,-0.73627 1.75452,-0.73627 3.50903,-1.47254 2.51541,-1.05629 5.22104,-2.10587 5.22104,-2.10587 2.70786,-1.05181 5.60371,-2.09691 5.10018,1.47478 0,0 -0.50576,3.5717 -4.41091,11.76467 -3.1823,7.17025 -3.1823,7.17025 -6.3646,14.34273 -2.45722,6.15201 -5.65295,13.26854 -5.65295,13.26854 -3.19349,7.11654 -7.12773,15.20209 -9.70803,21.35186 0,0 -2.58031,6.152 -3.80892,10.37045 2.21329,8.43466 2.21329,8.43466 4.42434,16.87156 5.65295,12.65312 10.14666,15.92494 10.14666,15.92494 4.49372,3.27405 7.83043,-2.83319 10.53382,-12.06007 0,0 2.70339,-9.22689 4.77346,-21.57117 1.89774,-6.16543 1.89774,-6.16543 3.79324,-12.33086 1.72319,0.0179 3.98124,-0.0268 3.98124,-0.0268 2.25581,-0.0448 5.04871,-0.14994 7.62902,-0.10966 0,0 2.57806,0.0403 4.94353,0.22827 -0.5371,4.52504 -0.5371,4.52504 -1.0742,9.05008 -3.43966,8.86658 -6.63315,17.78016 -6.63315,17.78016 -3.19573,8.91358 -6.14528,17.87639 -9.46186,25.08244 0,0 -5.75589,12.4987 -16.236,32.32878 -6.64882,12.41813 -6.64882,12.41813 -11.22533,20.96245 -9.39697,10.93665 -10.01015,16.61197 -10.01015,16.61197 -0.61319,5.67757 7.55964,6.09382 15.73023,6.51007"
       id="path3188"
       inkscape:connector-curvature="0" />
    <path
       style="fill:none;stroke:#ff0000;stroke-width:0.49606299;stroke-miterlimit:4;stroke-opacity:1;stroke-dasharray:none"
       d="m 565.53659,529.43987 c 12.53227,0.44982 25.06677,0.90188 38.33979,10.35703 0,0 13.27301,9.45291 27.28678,27.91115 8.325,14.13461 8.325,14.13461 16.65225,28.26922 2.63849,9.81321 5.09571,18.95282 5.09571,18.95282 2.45946,9.13736 4.73541,17.60336 5.62609,28.1618 0,0 0.89293,10.55619 0.40282,23.20931 0.65123,10.26079 0.65123,10.26079 1.30246,20.52159 1.79257,7.86623 3.71493,11.16714 3.71493,11.16714 1.92236,3.30091 3.97004,2.0365 6.54811,0.34464 0,0 2.57583,-1.69185 5.68204,-3.80891 2.02083,-1.40541 2.02083,-1.40541 4.04389,-2.80857 0.93769,-0.69152 0.16785,-3.11069 0.16785,-3.11069 -0.77208,-2.41694 -3.25168,-6.56154 -4.24531,-13.55499 0,0 -0.99587,-6.99122 -0.50353,-16.83353 -0.30883,-9.66551 -0.30883,-9.66551 -0.61766,-19.33549 -1.11224,-9.4932 3.87158,-11.57445 3.87158,-11.57445 4.98381,-2.08349 16.06368,3.24944 25.05334,7.262 0,0 8.98743,4.0148 15.88913,6.707 3.7932,0.79446 3.7932,0.79446 7.5887,1.58668 0.6871,-1.10776 1.7769,-2.83766 1.7769,-2.83766 1.0921,-1.73214 2.5848,-4.08642 3.4039,-5.60372 0,0 0.8191,-1.52177 0.9668,-2.20434 -3.3815,-1.92907 -3.3815,-1.92907 -6.7608,-3.85814 -6.9084,-3.17112 -14.53962,-6.1632 -14.53962,-6.1632 -7.63126,-2.99207 -15.98759,-5.80288 -23.36149,-9.49319 0,0 -7.37166,-3.69254 -13.76312,-8.26011 -4.20502,-4.97486 -4.20502,-4.97486 -8.41228,-9.94748 -2.02531,-5.37545 -2.01412,-8.12584 -2.01412,-8.12584 0.0112,-2.74815 2.05664,-2.87123 8.7144,-3.94542 0,0 6.65777,-1.07644 17.92786,-3.10398 5.27027,-1.79032 5.27027,-1.79032 10.5383,-3.58065 -0.72956,-1.5531 -1.20847,-2.57583 -1.20847,-2.57583 -0.47668,-1.02272 -0.70047,-1.51506 -1.10329,-2.26699 0,0 -0.40282,-0.75418 -0.98468,-1.77242 -0.83473,-1.45912 -0.83473,-1.45912 -1.66724,-2.91823 -1.08538,-1.90222 -7.77,-0.71166 -7.77,-0.71166 -6.68686,1.19057 -18.97072,5.47839 -25.88585,6.20124 0,0 -6.91513,0.72284 -8.45928,-2.11482 -6.62644,-7.63573 -6.62644,-7.63573 -13.25287,-15.2737 -11.71096,-12.4338 -11.7132,-18.6507 -11.7132,-18.6507 -0.002,-6.21691 11.702,-6.21691 23.40625,-6.21691"
       id="path3190"
       inkscape:connector-curvature="0" />
    <path
       style="fill:none;stroke:#ff0000;stroke-width:0.49606299;stroke-miterlimit:4;stroke-opacity:1;stroke-dasharray:none"
       d="m 409.41138,529.43987 c 1.38303,0 2.76605,0 4.14908,0"
       id="path3192"
       inkscape:connector-curvature="0" />
    <path
       style="fill:none;stroke:#ff0000;stroke-width:0.49606299;stroke-miterlimit:4;stroke-opacity:1;stroke-dasharray:none"
       d="m 482.03811,529.43987 c -3.56274,0 -7.12772,0 -10.69271,0"
       id="path3194"
       inkscape:connector-curvature="0" />
    <path
       style="fill:none;stroke:#ff0000;stroke-width:0.49606299;stroke-miterlimit:4;stroke-opacity:1;stroke-dasharray:none"
       d="m 565.53659,529.43987 c -5.83646,0 -11.67291,0 -17.50937,0"
       id="path3196"
       inkscape:connector-curvature="0" />
    <path
       style="fill:none;stroke:#ff0000;stroke-width:0.49606299;stroke-miterlimit:4;stroke-opacity:1;stroke-dasharray:none"
       d="m 656.22098,529.43987 c -0.98244,0 -1.96488,0 -2.45722,0 0,0 -0.4901,0 -0.4901,0"
       id="path3198"
       inkscape:connector-curvature="0" />
    <path
       style="fill:none;stroke:#ff0000;stroke-width:0.49606299;stroke-miterlimit:4;stroke-opacity:1;stroke-dasharray:none"
       d="m 413.56046,529.43987 c 7.0024,0.59081 12.9418,1.15253 17.68392,4.85626 0,0 6.40712,5.00395 22.39696,30.20053 0.3133,6.0871 0.3133,6.0871 0.63332,12.33533 -2.10363,3.83129 -8.27129,8.3541 -8.27129,8.3541 -6.16767,4.52281 -12.55465,8.61817 -17.71079,11.97055 0,0 -5.15613,3.35239 -9.08141,5.96178 -1.3338,1.76571 -1.3338,1.76571 -2.67206,3.53366 1.25099,0.92425 2.80857,2.10363 2.80857,2.10363 1.55534,1.18161 3.41728,2.61611 4.88087,3.88724 0,0 1.46135,1.27337 2.52883,2.38561 3.62541,-2.49303 3.62541,-2.49303 7.25082,-4.98606 6.18333,-6.09605 11.34617,-10.38835 11.34617,-10.38835 5.16285,-4.29231 9.30521,-6.77862 11.00826,-3.36581 0,0 1.70081,3.41504 0.96454,12.7292 -3.31658,10.01687 -3.31658,10.01687 -6.63539,20.03373 -5.89912,10.7218 -13.31778,19.49663 -13.31778,19.49663 -7.41865,8.77482 -16.35908,15.60715 -20.03148,19.47872 0,0 -3.67241,3.87158 -2.07454,4.78464 1.70976,1.31813 1.70976,1.31813 3.41952,2.63626 1.82165,1.72318 3.0525,2.88913 3.0525,2.88913 1.23308,1.16595 1.87536,1.77242 3.77534,0.20365 0,0 1.89999,-1.57325 5.05991,-5.32174 4.77345,-5.21208 4.77345,-5.21208 9.54914,-10.4264 6.38922,-6.67791 13.12755,0.55053 13.12755,0.55053 6.73386,7.23067 13.81683,28.36768 17.85624,39.14543 0,0 4.03942,10.77775 5.03753,11.19624 1.75452,0.73627 1.75452,0.73627 3.50903,1.47254 2.51541,1.0563 5.22104,2.10587 5.22104,2.10587 2.70786,1.05182 5.60371,2.09916 5.10018,-1.47478 0,0 -0.50576,-3.57169 -4.41091,-11.76466 -3.1823,-7.17025 -3.1823,-7.17025 -6.3646,-14.34274 -2.45722,-6.14976 -5.65295,-13.26854 -5.65295,-13.26854 -3.19349,-7.11654 -7.12773,-15.20209 -9.70803,-21.35185 0,0 -2.58031,-6.14976 -3.80892,-10.36821 2.21329,-8.43467 2.21329,-8.43467 4.42434,-16.87157 5.65295,-12.65311 10.14666,-15.92493 10.14666,-15.92493 4.49372,-3.27406 7.83043,2.83319 10.53382,12.06007 0,0 2.70339,9.22688 4.77346,21.57117 1.89774,6.16542 1.89774,6.16542 3.79324,12.32861 1.72319,-0.0157 3.98124,0.0269 3.98124,0.0269 2.25581,0.0448 5.04871,0.14994 7.62902,0.10966 0,0 2.57806,-0.0403 4.94353,-0.22603 -0.5371,-4.52505 -0.5371,-4.52505 -1.0742,-9.05009 -3.43966,-8.86434 -6.63315,-17.78016 -6.63315,-17.78016 -3.19573,-8.91357 -6.14528,-17.87638 -9.46186,-25.08244 0,0 -5.75589,-12.50093 -16.236,-32.32877 -6.64882,-12.41814 -6.64882,-12.41814 -11.22533,-20.96246 -9.39697,-10.93664 -10.01015,-16.61197 -10.01015,-16.61197 -0.61319,-5.67756 7.55964,-6.09382 15.73023,-6.51007"
       id="path3200"
       inkscape:connector-curvature="0" />
    <path
       style="fill:none;stroke:#ff0000;stroke-width:0.49606299;stroke-miterlimit:4;stroke-opacity:1;stroke-dasharray:none"
       d="m 482.03811,529.43987 c 5.71338,0.85265 11.42899,1.70529 15.78842,4.08418 0,0 4.36168,2.37666 7.36942,6.27956 6.08039,8.63384 6.08039,8.63384 12.15854,17.26544 9.15527,13.36477 14.4703,26.89962 14.4703,26.89962 5.31278,13.53485 6.78756,27.24426 2.30728,40.85743 0,0 -4.48029,13.61318 -14.91564,27.13013 -5.27474,10.96349 -5.27474,10.96349 -10.55172,21.92699 -0.11861,8.41005 0.98691,15.48407 0.98691,15.48407 1.10553,7.07401 3.43743,12.80977 5.64848,18.88792 0,0 2.21329,6.07815 4.30796,12.4987 1.70753,3.45532 1.70753,3.45532 3.41728,6.90841 1.32037,0.49234 3.9141,0.90411 3.9141,0.90411 2.59373,0.41401 6.46083,0.7497 8.99862,0.95559 0,0 2.53778,0.20812 3.74625,0.28869 -2.20657,-7.12102 -2.20657,-7.12102 -4.41539,-14.23979 -5.62609,-14.32036 -7.83043,-25.17196 -7.83043,-25.17196 -2.20657,-10.8516 -0.99139,-18.23669 2.64521,-25.54792 0,0 3.63436,-7.31348 9.69013,-14.5531 4.58994,-7.78567 4.58994,-7.78567 9.17988,-15.57134 3.12412,-8.32949 8.31158,-7.94457 8.31158,-7.94457 5.18747,0.38716 12.43828,9.48872 16.98794,18.86778 0,0 4.54966,9.37682 6.39817,19.03338 0.82579,11.20519 0.82579,11.20519 1.64934,22.41038 -0.19694,12.75159 -0.77208,22.05008 -0.77208,22.05008 -0.57514,9.2985 -1.52849,15.14391 -1.59563,18.01961 0,0 -0.0671,2.87347 0.75194,2.77501 1.57996,-0.18799 1.57996,-0.18799 3.15768,-0.37597 2.33861,-0.2775 4.3214,-0.54605 4.3214,-0.54605 1.98054,-0.26855 3.60526,-0.52815 4.75331,-0.71165 0,0 1.15028,-0.18351 1.82613,-0.29093 0.64004,-4.21398 0.64004,-4.21398 1.28008,-8.42795 0.602,-8.31829 0.85712,-14.22636 0.85712,-14.22636 0.25512,-5.90807 0.16113,-9.40368 0.24841,-12.12721 0,0 0.0895,-2.72577 0.35806,-4.67499 8.92253,1.05406 8.92253,1.05406 17.84282,2.10811 17.57427,4.0618 26.43637,5.64624 26.43637,5.64624 8.8621,1.58219 9.01652,0.69151 9.04114,-0.99587 0,0 0.0269,-1.68514 -0.31331,-8.19073 -0.12308,-1.73438 -0.12308,-1.73438 -0.24393,-3.471 -0.14546,-0.99139 -8.88001,-2.78395 -8.88001,-2.78395 -8.73454,-1.79032 -26.06264,-4.38406 -34.77033,-6.32208 0,0 -8.70769,-1.93803 -8.79944,-3.22258 -0.97349,-5.35531 -0.97349,-5.35531 -1.94698,-10.71062 -1.62248,-5.40006 -3.82906,-13.32672 -3.82906,-13.32672 -2.20881,-7.92666 -4.76897,-14.35617 -9.18212,-20.25081 0,0 -4.41539,-5.89464 -10.68152,-11.25442 -5.10019,-7.51489 -5.10019,-7.51489 -10.19813,-15.02753 -3.932,-9.66552 1.59786,-10.8986 1.59786,-10.8986 5.52986,-1.23085 20.52159,5.97744 30.52502,13.3133 0,0 10.00568,7.33809 15.02306,14.80821 3.23377,2.75039 3.23377,2.75039 6.46755,5.50077 1.4524,-1.96935 2.48183,-3.3658 2.48183,-3.3658 1.03168,-1.39646 1.64039,-2.22001 2.64745,-3.58289 0,0 1.00705,-1.36065 2.41246,-3.25839 0.17008,-1.52178 0.17008,-1.52178 0.34016,-3.04131 -1.063,-1.14357 -2.84662,-3.05922 -2.84662,-3.05922 -1.78584,-1.91788 -4.29006,-4.60785 -10.70166,-9.46634 0,0 -6.41383,-4.86073 -16.73505,-11.88999 -9.9542,-4.92115 -9.9542,-4.92115 -19.90617,-9.84231 -9.58495,-2.8108 -16.95884,-6.93974 -16.95884,-6.93974 -7.37166,-4.13117 -12.53451,-9.58047 -18.27697,-16.10396 0,0 -5.74247,-6.5235 -12.06679,-14.12118 1.56877,-4.09537 1.56877,-4.09537 3.13754,-8.19074"
       id="path3202"
       inkscape:connector-curvature="0" />
    <path
       style="fill:none;stroke:#ff0000;stroke-width:0.49606299;stroke-miterlimit:4;stroke-opacity:1;stroke-dasharray:none"
       d="m 409.41138,482.64528 c -3.87158,-0.26183 -7.74091,-0.52367 -9.92287,-3.46652 0,0 -2.18196,-2.94508 -2.67206,-8.5667 0.55276,-9.71027 0.55276,-9.71027 1.10329,-19.42054 1.59786,-13.79668 6.38922,-30.75553 6.38922,-30.75553 4.79135,-16.95884 12.78067,-37.08208 16.06816,-47.32721 0,0 3.28748,-10.24513 1.87312,-10.61215 -2.63178,-0.86831 -2.63178,-0.86831 -5.26355,-1.73885 -3.8492,-1.3696 -6.95093,-2.48184 -6.95093,-2.48184 -3.10174,-1.11224 -5.45378,-1.96488 -7.54622,2.37218 0,0 -2.0902,4.33482 -3.92081,13.86159 -1.96712,8.40109 -1.96712,8.40109 -3.93647,16.79995 -2.10587,7.27543 -3.37029,11.63039 -3.37029,11.63039 -1.26889,4.35273 -1.0272,4.08418 -4.1267,3.79325 0,0 -3.09726,-0.29316 -11.02168,-2.62954 -2.22672,-0.31107 -2.22672,-0.31107 -4.45119,-0.62214 -0.11637,2.49751 -0.62214,4.25426 -0.62214,4.25426 -0.50353,1.75676 -1.70081,5.18971 -2.10811,6.48098 0,0 -0.4073,1.29351 -0.69151,2.15062 2.9876,1.00706 2.9876,1.00706 5.97521,2.01412 6.26165,1.15923 9.39248,2.07453 9.39248,2.07453 3.13083,0.91307 3.13083,1.5822 2.64073,4.08642 0,0 -0.49234,2.50422 -1.47478,6.84351 -1.41435,7.356 -1.41435,7.356 -2.82647,14.70752 -1.84404,10.37045 -3.33896,17.47356 -3.33896,17.47356 -1.49492,7.10311 -2.64072,10.93888 -7.18591,13.57513 0,0 -4.54518,2.63401 -14.51505,5.84541"
       id="path3204"
       inkscape:connector-curvature="0" />
    <path
       style="fill:none;stroke:#ff0000;stroke-width:0.49606299;stroke-miterlimit:4;stroke-opacity:1;stroke-dasharray:none"
       d="M 337.42693,482.64528 C 232.0574,477.03709 126.68788,471.43114 69.82271,461.32476 c 0,0 -56.86741,-10.10638 -65.23269,-24.71095 -4.65708,-21.56445 -4.65708,-21.56445 -9.31416,-43.12667 -0.95112,-28.51986 -4.65708,-43.3236 -4.65708,-43.3236 -3.70821,-14.80151 -10.16905,-15.88689 -16.63212,-16.97227"
       id="path3206"
       inkscape:connector-curvature="0" />
    <path
       style="fill:none;stroke:#ff0000;stroke-width:0.49606299;stroke-miterlimit:4;stroke-opacity:1;stroke-dasharray:none"
       d="m 656.22098,529.43987 c 9.52452,0.64676 19.04681,1.29575 26.87276,6.07368 0,0 7.82372,4.77569 13.9511,13.68255 5.14047,7.15458 5.14047,7.15458 10.2787,14.3114 4.15355,5.40678 3.12859,12.67997 3.12859,12.67997 -1.02496,7.2732 -7.23291,16.4128 -9.32087,21.42123 0,0 -2.0902,5.00843 -0.0604,5.88793 2.27147,1.09881 2.27147,1.09881 4.54294,2.19986 2.51541,1.3226 4.60337,2.42141 4.60337,2.42141 2.08797,1.09881 3.75073,1.97384 6.43846,-2.19314 0,0 2.68543,-4.16698 6.39813,-13.37596 2.4572,-6.54587 2.4572,-6.54587 4.9145,-13.09398 1.2039,-3.88277 5.7872,-3.59632 5.7872,-3.59632 4.5832,0.28645 12.5434,4.74884 16.6545,6.37356 0,0 4.1132,1.62471 4.3751,0.41625 0.4453,-2.04769 0.4453,-2.04769 0.8907,-4.09537 0.6288,-2.88466 1.1413,-5.12928 1.1413,-5.12928 0.5125,-2.24685 0.9086,-3.84919 -0.875,-5.35083 0,0 -1.7836,-1.4994 -5.7492,-2.89809 -6.3848,-2.43707 -6.3848,-2.43707 -12.7695,-4.87415 -8.8062,-3.47547 -16.4508,-9.19779 -16.4508,-9.19779 -7.6447,-5.72457 -14.67172,-14.83284 -17.90326,-21.57789 0,0 -3.23153,-6.74504 -2.9876,-14.52176"
       id="path3208"
       inkscape:connector-curvature="0" />
    <path
       style="fill:none;stroke:#ff0000;stroke-width:0.49606299;stroke-miterlimit:4;stroke-opacity:1;stroke-dasharray:none"
       d="m 409.41138,529.43987 c -3.87158,0.26184 -7.74091,0.52368 -9.92287,3.46652 0,0 -2.18196,2.94284 -2.67206,8.5667 0.55276,9.71027 0.55276,9.71027 1.10329,19.42054 1.59786,13.79669 6.38922,30.75553 6.38922,30.75553 4.79135,16.95885 12.78067,37.08209 16.06816,47.32722 0,0 3.28748,10.24513 1.87312,10.61214 -2.63178,0.87055 -2.63178,0.87055 -5.26355,1.73885 -3.8492,1.3696 -6.95093,2.4796 -6.95093,2.4796 -3.10174,1.11224 -5.45378,1.96488 -7.54622,-2.36994 0,0 -2.0902,-4.33482 -3.92081,-13.86158 -1.96712,-8.39886 -1.96712,-8.39886 -3.93647,-16.79995 -2.10587,-7.27543 -3.37029,-11.6304 -3.37029,-11.6304 -1.26889,-4.35272 -1.0272,-4.08194 -4.1267,-3.79101 0,0 -3.09726,0.29093 -11.02168,2.6273 -2.22672,0.31107 -2.22672,0.31107 -4.45119,0.62214 -0.11637,-2.4975 -0.62214,-4.25426 -0.62214,-4.25426 -0.50353,-1.75675 -1.70081,-5.18746 -2.10811,-6.48097 0,0 -0.4073,-1.29351 -0.69151,-2.15063 2.9876,-1.00706 2.9876,-1.00706 5.97521,-2.01411 6.26165,-1.15924 9.39248,-2.0723 9.39248,-2.0723 3.13083,-0.91531 3.13083,-1.58444 2.64073,-4.08865 0,0 -0.49234,-2.50422 -1.47478,-6.84352 -1.41435,-7.35375 -1.41435,-7.35375 -2.82647,-14.70975 -1.84404,-10.36821 -3.33896,-17.47132 -3.33896,-17.47132 -1.49492,-7.10311 -2.64072,-10.93888 -7.18591,-13.57514 0,0 -4.54518,-2.63401 -14.51505,-5.8454"
       id="path3210"
       inkscape:connector-curvature="0" />
    <path
       style="fill:none;stroke:#ff0000;stroke-width:0.49606299;stroke-miterlimit:4;stroke-opacity:1;stroke-dasharray:none"
       d="m 337.42693,529.43987 c -105.36953,5.60596 -210.73905,11.21415 -267.60422,21.32053 0,0 -56.86741,10.10638 -65.23269,24.71318 -4.65708,21.56222 -4.65708,21.56222 -9.31416,43.12443 -0.95112,28.51987 -4.65708,43.32137 -4.65708,43.32137 -3.70821,14.8015 -10.16905,15.88913 -16.63212,16.97451"
       id="path3212"
       inkscape:connector-curvature="0" />
    <path
       style="fill:none;stroke:#ff0000;stroke-width:0.49606299;stroke-miterlimit:4;stroke-opacity:1;stroke-dasharray:none"
       d="m 656.22098,482.64528 c 9.52452,-0.64899 19.04681,-1.29575 26.87276,-6.07144 0,0 7.82372,-4.77792 13.9511,-13.68255 5.14047,-7.15682 5.14047,-7.15682 10.2787,-14.31364 4.15355,-5.40678 3.12859,-12.67997 3.12859,-12.67997 -1.02496,-7.27319 -7.23291,-16.41279 -9.32087,-21.42123 0,0 -2.0902,-5.00843 -0.0604,-5.88569 2.27147,-1.10105 2.27147,-1.10105 4.54294,-2.2021 2.51541,-1.3226 4.60337,-2.42141 4.60337,-2.42141 2.08797,-1.09881 3.75073,-1.97159 6.43846,2.19539 0,0 2.68543,4.16474 6.39813,13.37372 2.4572,6.54587 2.4572,6.54587 4.9145,13.09174 1.2039,3.88724 5.7872,3.59855 5.7872,3.59855 4.5832,-0.28869 12.5434,-4.74883 16.6545,-6.37355 0,0 4.1132,-1.62696 4.3751,-0.41625 0.4453,2.04768 0.4453,2.04768 0.8907,4.09313 0.6288,2.88689 1.1413,5.13151 1.1413,5.13151 0.5125,2.24462 0.9086,3.8492 -0.875,5.35083 0,0 -1.7836,1.4994 -5.7492,2.89809 -6.3848,2.43708 -6.3848,2.43708 -12.7695,4.87192 -8.8062,3.4777 -16.4508,9.20003 -16.4508,9.20003 -7.6447,5.72232 -14.67172,14.83283 -17.90326,21.57788 0,0 -3.23153,6.74281 -2.9876,14.52177"
       id="path3214"
       inkscape:connector-curvature="0" />
    <path
       style="fill:none;stroke:#ff0000;stroke-width:0.49606299;stroke-miterlimit:4;stroke-opacity:1;stroke-dasharray:none"
       d="m -26.01557,333.19127 c 0,115.2342 0.002,230.46841 0.002,345.70262"
       id="path3216"
       inkscape:connector-curvature="0" />
    <path
       style="fill:none;stroke:#ff0000;stroke-width:0.49606299;stroke-miterlimit:4;stroke-opacity:1;stroke-dasharray:none"
       d="m 699.15519,510.5636 -333.53514,0"
       id="path3218"
       inkscape:connector-curvature="0"
       sodipodi:nodetypes="cc" />
    <path
       style="fill:none;stroke:#ff0000;stroke-width:0.49606299;stroke-miterlimit:4;stroke-opacity:1;stroke-dasharray:none"
       d="m 365.62005,510.5636 0,-10.28631 c 0,0 0,0 333.53514,0"
       id="path3220"
       inkscape:connector-curvature="0"
       sodipodi:nodetypes="ccc" />
    <path
       style="fill:none;stroke:#ff0000;stroke-width:0.49606299;stroke-miterlimit:4;stroke-opacity:1;stroke-dasharray:none"
       d="m 482.03811,482.64528 c 5.71338,-0.85264 11.42899,-1.70528 15.78842,-4.08418 0,0 4.36168,-2.37665 7.36942,-6.27956 6.08039,-8.63384 6.08039,-8.63384 12.15854,-17.26767 9.15527,-13.36254 14.4703,-26.89739 14.4703,-26.89739 5.31278,-13.53708 6.78756,-27.24425 2.30728,-40.85743 0,0 -4.48029,-13.61317 -14.91564,-27.13012 -5.27474,-10.9635 -5.27474,-10.9635 -10.55172,-21.92923 -0.11861,-8.41005 0.98691,-15.48407 0.98691,-15.48407 1.10553,-7.07402 3.43743,-12.80977 5.64848,-18.88792 0,0 2.21329,-6.07815 4.30796,-12.4987 1.70753,-3.45308 1.70753,-3.45308 3.41728,-6.90841 1.32037,-0.4901 3.9141,-0.90412 3.9141,-0.90412 2.59373,-0.41401 6.46083,-0.74969 8.99862,-0.95558 0,0 2.53778,-0.20812 3.74625,-0.28869 -2.20657,7.12101 -2.20657,7.12101 -4.41539,14.23979 -5.62609,14.32035 -7.83043,25.17196 -7.83043,25.17196 -2.20657,10.8516 -0.99139,18.23669 2.64521,25.55016 0,0 3.63436,7.31124 9.69013,14.5531 4.58994,7.78567 4.58994,7.78567 9.17988,15.57134 3.12412,8.32948 8.31158,7.94456 8.31158,7.94456 5.18747,-0.38716 12.43828,-9.48871 16.98794,-18.86777 0,0 4.54966,-9.37907 6.39817,-19.03563 0.82579,-11.20519 0.82579,-11.20519 1.64934,-22.41038 -0.19694,-12.75158 -0.77208,-22.05008 -0.77208,-22.05008 -0.57514,-9.29849 -1.52849,-15.1439 -1.59563,-18.01737 0,0 -0.0671,-2.87571 0.75194,-2.77724 1.57996,0.18798 1.57996,0.18798 3.15768,0.37597 2.33861,0.2775 4.3214,0.54605 4.3214,0.54605 1.98054,0.26855 3.60526,0.52814 4.75331,0.71165 0,0 1.15028,0.18351 1.82613,0.29317 0.64004,4.21173 0.64004,4.21173 1.28008,8.42571 0.602,8.31829 0.85712,14.22636 0.85712,14.22636 0.25512,5.90807 0.16113,9.40592 0.24841,12.12945 0,0 0.0895,2.72353 0.35806,4.67498 8.92253,-1.05629 8.92253,-1.05629 17.84282,-2.11034 17.57427,-4.0618 26.43637,-5.644 26.43637,-5.644 8.8621,-1.58667 9.01652,-0.69151 9.04114,0.99363 0,0 0.0269,1.68514 -0.31331,8.19073 -0.12308,1.73662 -0.12308,1.73662 -0.24393,3.47099 -0.14546,0.9914 -8.88001,2.78396 -8.88001,2.78396 -8.73454,1.79032 -26.06264,4.38405 -34.77033,6.32208 0,0 -8.70769,1.93802 -8.79944,3.22258 -0.97349,5.35531 -0.97349,5.35531 -1.94698,10.71062 -1.62248,5.40006 -3.82906,13.32896 -3.82906,13.32896 -2.20881,7.92666 -4.76897,14.35616 -9.18212,20.2508 0,0 -4.41539,5.89464 -10.68152,11.25443 -5.10019,7.51488 -5.10019,7.51488 -10.19813,15.02753 -3.932,9.66775 1.59786,10.8986 1.59786,10.8986 5.52986,1.22861 20.52159,-5.97521 30.52502,-13.3133 0,0 10.00568,-7.33809 15.02306,-14.80822 3.23377,-2.75038 3.23377,-2.75038 6.46755,-5.50077 1.4524,1.96936 2.48183,3.36581 2.48183,3.36581 1.03168,1.39645 1.64039,2.22224 2.64745,3.58289 0,0 1.00705,1.36064 2.41246,3.26062 0.17008,1.51954 0.17008,1.51954 0.34016,3.03908 -1.063,1.14357 -2.84662,3.06145 -2.84662,3.06145 -1.78584,1.91565 -4.29006,4.60561 -10.70166,9.4641 0,0 -6.41383,4.86073 -16.73505,11.88999 -9.9542,4.92116 -9.9542,4.92116 -19.90617,9.84231 -9.58495,2.81081 -16.95884,6.94198 -16.95884,6.94198 -7.37166,4.12894 -12.53451,9.57823 -18.27697,16.10173 0,0 -5.74247,6.52349 -12.06679,14.12342 1.56877,4.09313 1.56877,4.09313 3.13754,8.18625"
       id="path3222"
       inkscape:connector-curvature="0" />
    <path
       sodipodi:nodetypes="ccc"
       style="fill:none;stroke:#ff0000;stroke-width:0.49606299;stroke-linecap:butt;stroke-linejoin:miter;stroke-miterlimit:4;stroke-opacity:1;stroke-dasharray:none"
       d="m 698.93187,510.62499 1.43175,0.15908 -0.15909,4.68282"
       id="path4006"
       inkscape:connector-curvature="0" />
    <path
       sodipodi:nodetypes="ccc"
       style="fill:none;stroke:#ff0000;stroke-width:0.49606299;stroke-linecap:butt;stroke-linejoin:miter;stroke-miterlimit:4;stroke-opacity:1;stroke-dasharray:none"
       d="m 698.77278,500.30382 2.22717,-0.15908 -0.9545,-2.81334"
       id="path4008"
       inkscape:connector-curvature="0" />
    <path
       style="fill:none;stroke:#ff0000;stroke-width:0.49606299;stroke-linecap:butt;stroke-linejoin:miter;stroke-miterlimit:4;stroke-opacity:1;stroke-dasharray:none"
       d="m 529.03101,481.58216 19.56724,1.11359"
       id="path4010"
       inkscape:connector-curvature="0" />
    <path
       style="fill:none;stroke:#ff0000;stroke-width:0.49606299;stroke-linecap:butt;stroke-linejoin:miter;stroke-miterlimit:4;stroke-opacity:1;stroke-dasharray:none"
       d="m 529.03101,531.05704 19.40815,-1.74992"
       id="path4012"
       inkscape:connector-curvature="0" />
    <path
       style="fill:none;stroke:#ff0000;stroke-width:0.49606299;stroke-linecap:butt;stroke-linejoin:miter;stroke-miterlimit:4;stroke-opacity:1;stroke-dasharray:none"
       d="m 337.01759,529.62529 19.8854,-0.31817"
       id="path4014"
       inkscape:connector-curvature="0" />
    <path
       style="fill:none;stroke:#ff0000;stroke-width:0.49606299;stroke-linecap:butt;stroke-linejoin:miter;stroke-miterlimit:4;stroke-opacity:1;stroke-dasharray:none"
       d="m 336.85851,482.85483 20.20357,0.15908"
       id="path4016"
       inkscape:connector-curvature="0" />
    <g
       id="g4323"
       transform="translate(-9.8445969,-33.78244)">
      <path
         inkscape:connector-curvature="0"
         id="path3030"
         d="m 87.87365,777.14464 c -9.52452,-0.649 -19.04681,-1.29575 -26.87276,-6.07368 0,0 -7.82372,-4.77569 -13.9511,-13.68031 -5.14047,-7.15682 -5.14047,-7.15682 -10.28094,-14.31364 -4.15131,-5.40678 -3.12635,-12.67997 -3.12635,-12.67997 1.02496,-7.27319 7.23291,-16.4128 9.32087,-21.42123 0,0 2.09021,-5.00843 0.0627,-5.88793 -2.27148,-1.09881 -2.27148,-1.09881 -4.54519,-2.19986 -2.51317,-1.3226 -4.60337,-2.42141 -4.60337,-2.42141 -2.08797,-1.09881 -3.75073,-1.9716 -6.43845,2.19314 0,0 -2.68773,4.16698 -6.39817,13.37596 -2.45722,6.54588 -2.45722,6.54588 -4.91444,13.09175 -1.204,3.88724 -5.78723,3.59855 -5.78723,3.59855 -4.58323,-0.28869 -12.54345,-4.74883 -16.65449,-6.37355 0,0 -4.11327,-1.62696 -4.3751,-0.41625 -0.44534,2.04768 -0.44534,2.04768 -0.89069,4.09536 -0.62885,2.88466 -1.14133,5.12928 -1.14133,5.12928 -0.51024,2.24462 -0.90859,3.8492 0.87502,5.35083 0,0 1.78361,1.4994 5.74918,2.89809 6.38475,2.43708 6.38475,2.43708 12.76949,4.87192 8.80839,3.4777 16.45084,9.20003 16.45084,9.20003 7.64468,5.72232 14.12565,13.69374 17.90324,21.57788 0,0 3.77758,7.88414 4.85401,15.68324"
         style="fill:none;stroke:#ff0000;stroke-width:0.49606299;stroke-miterlimit:4;stroke-opacity:1;stroke-dasharray:none" />
      <path
         inkscape:connector-curvature="0"
         id="path3050"
         d="m 87.87365,823.93923 c -9.52452,0.64676 -19.04681,1.29575 -26.87276,6.07144 0,0 -7.82372,4.77793 -13.9511,13.68255 -5.14047,7.15682 -5.14047,7.15682 -10.28094,14.31364 -4.15131,5.40678 -3.12635,12.67997 -3.12635,12.67997 1.02496,7.27319 7.23291,16.4128 9.32087,21.42123 0,0 2.09021,5.00843 0.0627,5.88569 -2.27148,1.10105 -2.27148,1.10105 -4.54519,2.2021 -2.51317,1.3226 -4.60337,2.42141 -4.60337,2.42141 -2.08797,1.09881 -3.75073,1.97159 -6.43845,-2.19538 0,0 -2.68773,-4.16698 -6.39817,-13.37372 -2.45722,-6.54588 -2.45722,-6.54588 -4.91444,-13.09399 -1.204,-3.885 -5.78723,-3.59631 -5.78723,-3.59631 -4.58323,0.28645 -12.54345,4.74883 -16.65449,6.37355 0,0 -4.11327,1.62472 -4.3751,0.41625 -0.44534,-2.04768 -0.44534,-2.04768 -0.89069,-4.09536 -0.62885,-2.88466 -1.14133,-5.12928 -1.14133,-5.12928 -0.51024,-2.24686 -0.90859,-3.8492 0.87502,-5.35083 0,0 1.78361,-1.4994 5.74918,-2.89809 6.38475,-2.43708 6.38475,-2.43708 12.76949,-4.87416 8.80839,-3.47546 16.45084,-9.19779 16.45084,-9.19779 7.64468,-5.72232 14.12565,-13.69374 17.90324,-21.57788 0,0 3.77758,-7.88414 4.85401,-15.68324"
         style="fill:none;stroke:#ff0000;stroke-width:0.49606299;stroke-miterlimit:4;stroke-opacity:1;stroke-dasharray:none" />
      <g
         id="g4264">
        <path
           style="fill:none;stroke:#ff0000;stroke-width:0.49606299;stroke-miterlimit:4;stroke-opacity:1;stroke-dasharray:none"
           d="m 330.53418,823.93923 c -7.00241,0.59081 -12.93957,1.15029 -17.68393,4.85626 0,0 -6.40712,5.00395 -22.39695,30.19829 -0.31331,6.08934 -0.31331,6.08934 -0.63333,12.33757 2.10363,3.83129 8.2713,8.3541 8.2713,8.3541 6.16766,4.5228 12.55464,8.61817 17.71078,11.97055 0,0 5.15613,3.35238 9.08142,5.96178 1.33603,1.76571 1.33603,1.76571 2.66982,3.53365 -1.24875,0.92426 -2.80634,2.10363 -2.80634,2.10363 -1.55534,1.17938 -3.41728,2.61612 -4.88087,3.88725 0,0 -1.46359,1.27336 -2.52883,2.3856 -3.62541,-2.49302 -3.62541,-2.49302 -7.24857,-4.98605 -6.18557,-6.09605 -11.34842,-10.38836 -11.34842,-10.38836 -5.16285,-4.2923 -9.30521,-6.77861 -11.00826,-3.3658 0,0 -1.70304,3.4128 -0.96453,12.7292 3.31657,10.01686 3.31657,10.01686 6.63539,20.03372 5.89911,10.71957 13.31777,19.49663 13.31777,19.49663 7.41866,8.77707 16.35909,15.60939 20.03149,19.48097 0,0 3.67016,3.87157 2.07454,4.78464 -1.70976,1.31812 -1.70976,1.31812 -3.41952,2.63625 -1.82166,1.72319 -3.05251,2.88914 -3.05251,2.88914 -1.23308,1.16594 -1.87536,1.77242 -3.77534,0.20141 0,0 -1.89998,-1.57101 -5.05991,-5.3195 -4.77345,-5.21208 -4.77345,-5.21208 -9.54914,-10.4264 -6.38922,-6.67791 -13.12531,0.55052 -13.12531,0.55052 -6.73609,7.23067 -13.81906,28.36769 -17.85848,39.14544 0,0 -4.03942,10.77778 -5.03529,11.19628 -1.75675,0.7362 -1.75675,0.7362 -3.51127,1.4725 -2.51541,1.0563 -5.22103,2.1059 -5.22103,2.1059 -2.70787,1.0518 -5.60372,2.0969 -5.10019,-1.4748 0,0 0.50353,-3.5717 4.41091,-11.76468 3.1823,-7.17025 3.1823,-7.17025 6.3646,-14.34273 2.45722,-6.14977 5.65295,-13.26854 5.65295,-13.26854 3.19349,-7.11654 7.12773,-15.20209 9.70803,-21.35185 0,0 2.58031,-6.152 3.80892,-10.37046 -2.21105,-8.43466 -2.21105,-8.43466 -4.42434,-16.87156 -5.65295,-12.65312 -10.14666,-15.92493 -10.14666,-15.92493 -4.49371,-3.27406 -7.83043,2.83318 -10.53382,12.06006 0,0 -2.70339,9.22689 -4.77345,21.57117 -1.89551,6.16543 -1.89551,6.16543 -3.79325,12.33086 -1.72319,-0.0179 -3.979,0.0268 -3.979,0.0268 -2.25804,0.0448 -5.05095,0.14994 -7.63125,0.10966 0,0 -2.57807,-0.0403 -4.94354,-0.22827 0.5371,-4.52504 0.5371,-4.52504 1.0742,-9.05009 3.43966,-8.86658 6.63539,-17.78015 6.63539,-17.78015 3.19349,-8.91358 6.14305,-17.87639 9.45962,-25.08245 0,0 5.75589,-12.50094 16.236,-32.32878 6.64882,-12.41813 6.64882,-12.41813 11.22534,-20.96245 9.39696,-10.93664 10.01015,-16.61197 10.01015,-16.61197 0.61318,-5.67757 -7.55965,-6.09382 -15.73024,-6.51007"
           id="path3008"
           inkscape:connector-curvature="0" />
        <path
           style="fill:none;stroke:#ff0000;stroke-width:0.49606299;stroke-miterlimit:4;stroke-opacity:1;stroke-dasharray:none"
           d="m 262.05652,777.14464 c -5.71337,-0.85264 -11.42674,-1.70529 -15.78842,-4.08418 0,0 -4.36168,-2.37665 -7.36718,-6.27956 -6.08039,-8.63384 -6.08039,-8.63384 -12.16302,-17.26768 -9.15303,-13.36253 -14.46582,-26.89738 -14.46582,-26.89738 -5.31502,-13.53709 -6.7898,-27.24425 -2.30951,-40.85743 0,0 4.47804,-13.61318 14.91563,-27.13012 5.27698,-10.9635 5.27698,-10.9635 10.55172,-21.927 0.11861,-8.41005 -0.98691,-15.48406 -0.98691,-15.48406 -1.10553,-7.07402 -3.43519,-12.80977 -5.64847,-18.88792 0,0 -2.21329,-6.07815 -4.30797,-12.4987 -1.70752,-3.45309 -1.70752,-3.45309 -3.41728,-6.91065 -1.32037,-0.4901 -3.9141,-0.90188 -3.9141,-0.90188 -2.59373,-0.41401 -6.46083,-0.7497 -8.99861,-0.95558 0,0 -2.53779,-0.20813 -3.74626,-0.28869 2.20658,7.12101 2.20658,7.12101 4.41539,14.23979 5.62609,14.32035 7.83267,25.17195 7.83267,25.17195 2.20433,10.8516 0.98915,18.23669 -2.64744,25.54793 0,0 -3.63436,7.31347 -9.69013,14.55309 -4.58995,7.78568 -4.58995,7.78568 -9.17989,15.57135 -3.12411,8.32948 -8.31158,7.94456 -8.31158,7.94456 -5.18746,-0.38716 -12.43828,-9.48872 -16.98794,-18.86778 0,0 -4.54966,-9.37682 -6.39593,-19.03338 -0.82579,-11.20519 -0.82579,-11.20519 -1.65157,-22.41038 0.19693,-12.75159 0.77207,-22.05008 0.77207,-22.05008 0.57514,-9.2985 1.52849,-15.14391 1.59563,-18.01738 0,0 0.0671,-2.8757 -0.75194,-2.77724 -1.57772,0.18799 -1.57772,0.18799 -3.15768,0.37597 -2.33861,0.2775 -4.3214,0.54605 -4.3214,0.54605 -1.98054,0.26855 -3.60526,0.52815 -4.75331,0.71165 0,0 -1.15028,0.18351 -1.82613,0.29093 -0.64004,4.21398 -0.64004,4.21398 -1.28008,8.42795 -0.60199,8.3183 -0.85712,14.22637 -0.85712,14.22637 -0.25512,5.90807 -0.15889,9.40367 -0.2484,12.1272 0,0 -0.0895,2.72577 -0.35807,4.67499 -8.92252,-1.05406 -8.92252,-1.05406 -17.84282,-2.10811 -17.57426,-4.0618 -26.43637,-5.64623 -26.43637,-5.64623 -8.8621,-1.58444 -9.01428,-0.69152 -9.04113,0.99586 0,0 -0.0246,1.68515 0.3133,8.19074 0.12309,1.73661 0.12309,1.73661 0.24393,3.47099 0.14547,0.99139 8.88001,2.78395 8.88001,2.78395 8.73454,1.79033 26.06264,4.38406 34.77033,6.32208 0,0 8.70993,1.93803 8.79945,3.22259 0.97348,5.3553 0.97348,5.3553 1.94697,10.71061 1.62248,5.40007 3.8313,13.32673 3.8313,13.32673 2.20657,7.92666 4.76673,14.35616 9.17988,20.2508 0,0 4.41315,5.89464 10.68152,11.25442 5.10019,7.51489 5.10019,7.51489 10.19814,15.02754 3.932,9.66775 -1.59563,10.89859 -1.59563,10.89859 -5.5321,1.22861 -20.52159,-5.9752 -30.52726,-13.31329 0,0 -10.00568,-7.33809 -15.02306,-14.80822 -3.23377,-2.75039 -3.23377,-2.75039 -6.46978,-5.50077 -1.45017,1.96935 -2.4796,3.36581 -2.4796,3.36581 -1.03168,1.39645 -1.63815,2.22 -2.6452,3.58288 0,0 -1.0093,1.36065 -2.4147,3.25839 -0.17009,1.52178 -0.17009,1.52178 -0.34017,3.04132 1.06301,1.14357 2.84886,3.05921 2.84886,3.05921 1.78361,1.91789 4.28782,4.60785 10.69942,9.46634 0,0 6.41384,4.86073 16.73729,11.88999 9.95197,4.92115 9.95197,4.92115 19.90393,9.84231 9.58719,2.81081 16.95885,6.94198 16.95885,6.94198 7.37165,4.12893 12.5345,9.57823 18.27697,16.10172 0,0 5.74246,6.52126 12.06678,14.12119 -1.56653,4.09536 -1.56653,4.09536 -3.1353,8.18849"
           id="path3010"
           inkscape:connector-curvature="0" />
        <path
           style="fill:none;stroke:#ff0000;stroke-width:0.49606299;stroke-miterlimit:4;stroke-opacity:1;stroke-dasharray:none"
           d="m 378.47682,805.0017 0,-10.62992 c 0,0 0,0 391.63334,0"
           id="path3012"
           inkscape:connector-curvature="0"
           sodipodi:nodetypes="ccc" />
        <path
           style="fill:none;stroke:#ff0000;stroke-width:0.49606299;stroke-miterlimit:4;stroke-opacity:1;stroke-dasharray:none"
           d="m 770.11016,805.06296 -391.63334,0"
           id="path3014"
           inkscape:connector-curvature="0"
           sodipodi:nodetypes="cc" />
        <path
           style="fill:none;stroke:#ff0000;stroke-width:0.49606299;stroke-miterlimit:4;stroke-opacity:1;stroke-dasharray:none"
           d="m 406.66771,823.93923 c 105.36952,5.60595 210.73904,11.21414 267.60645,21.32052 0,0 56.8652,10.10638 65.2305,24.71095 4.657,21.56446 4.657,21.56446 9.3141,43.12667 0.9511,28.51986 4.6571,43.3236 4.6571,43.3236 3.706,14.80151 10.1713,15.88689 16.6343,16.97228"
           id="path3016"
           inkscape:connector-curvature="0" />
        <path
           style="fill:none;stroke:#ff0000;stroke-width:0.49606299;stroke-miterlimit:4;stroke-opacity:1;stroke-dasharray:none"
           d="m 406.66771,777.14464 c 105.36952,-5.60819 210.73904,-11.21415 267.60645,-21.32052 0,0 56.8652,-10.10638 65.2305,-24.71319 4.657,-21.56222 4.657,-21.56222 9.3141,-43.12443 0.9511,-28.51986 4.6571,-43.32137 4.6571,-43.32137 3.706,-14.8015 10.1713,-15.88912 16.6343,-16.97227"
           id="path3018"
           inkscape:connector-curvature="0" />
        <path
           style="fill:none;stroke:#ff0000;stroke-width:0.49606299;stroke-miterlimit:4;stroke-opacity:1;stroke-dasharray:none"
           d="m 334.68325,777.14464 c 3.86934,-0.26184 7.74092,-0.52367 9.92287,-3.46652 0,0 2.17972,-2.94284 2.67206,-8.5667 -0.55052,-9.71027 -0.55052,-9.71027 -1.10328,-19.42054 -1.59563,-13.79668 -6.38922,-30.75553 -6.38922,-30.75553 -4.79136,-16.95884 -12.78068,-37.08209 -16.06816,-47.32721 0,0 -3.28748,-10.24513 -1.87313,-10.61215 2.63178,-0.87055 2.63178,-0.87055 5.26356,-1.73885 3.84919,-1.3696 6.95093,-2.4796 6.95093,-2.4796 3.10173,-1.11224 5.45377,-1.96488 7.54621,2.36994 0,0 2.09021,4.33482 3.92081,13.86158 1.96712,8.39886 1.96712,8.39886 3.93424,16.79996 2.10811,7.27543 3.37476,11.63039 3.37476,11.63039 1.26442,4.35272 1.02496,4.08418 4.12446,3.79101 0,0 3.09726,-0.29093 11.02392,-2.6273 2.22448,-0.31107 2.22448,-0.31107 4.44896,-0.62214 0.11861,2.49751 0.62213,4.25426 0.62213,4.25426 0.50353,1.75676 1.70081,5.1897 2.10811,6.48097 0,0 0.4073,1.29351 0.69375,2.15063 -2.98984,1.00706 -2.98984,1.00706 -5.97744,2.01411 -6.26166,1.15924 -9.39249,2.07231 -9.39249,2.07231 -3.13083,0.9153 -3.13083,1.58443 -2.64073,4.08865 0,0 0.49234,2.50421 1.47702,6.84351 1.41212,7.35376 1.41212,7.35376 2.82423,14.70751 1.84404,10.37045 3.33896,17.47357 3.33896,17.47357 1.49492,7.10311 2.64073,10.93888 7.18591,13.57513 0,0 4.54519,2.63401 14.51506,5.84541"
           id="path3020"
           inkscape:connector-curvature="0" />
        <path
           style="fill:none;stroke:#ff0000;stroke-width:0.49606299;stroke-miterlimit:4;stroke-opacity:1;stroke-dasharray:none"
           d="m 87.87365,777.14464 c 0.98244,0 1.96488,0 2.45722,0 0,0 0.49011,0 0.49011,0"
           id="path3022"
           inkscape:connector-curvature="0" />
        <path
           style="fill:none;stroke:#ff0000;stroke-width:0.49606299;stroke-miterlimit:4;stroke-opacity:1;stroke-dasharray:none"
           d="m 178.55804,777.14464 c 5.83646,0 11.67515,0 17.51161,0"
           id="path3024"
           inkscape:connector-curvature="0" />
        <path
           style="fill:none;stroke:#ff0000;stroke-width:0.49606299;stroke-miterlimit:4;stroke-opacity:1;stroke-dasharray:none"
           d="m 262.05652,777.14464 c 3.56274,0 7.12773,0 10.69271,0"
           id="path3026"
           inkscape:connector-curvature="0" />
        <path
           style="fill:none;stroke:#ff0000;stroke-width:0.49606299;stroke-miterlimit:4;stroke-opacity:1;stroke-dasharray:none"
           d="m 334.68325,777.14464 c -1.38302,0 -2.76605,0 -4.14907,0"
           id="path3028"
           inkscape:connector-curvature="0" />
        <path
           style="fill:none;stroke:#ff0000;stroke-width:0.49606299;stroke-miterlimit:4;stroke-opacity:1;stroke-dasharray:none"
           d="m 178.55804,777.14464 c -12.53227,-0.45206 -25.06677,-0.90188 -38.33979,-10.35703 0,0 -13.27301,-9.45291 -27.28677,-27.91115 -8.32501,-14.13461 -8.32501,-14.13461 -16.65226,-28.26922 -2.63849,-9.81321 -5.09571,-18.95281 -5.09571,-18.95281 -2.45945,-9.13737 -4.7354,-17.60337 -5.62609,-28.1618 0,0 -0.89292,-10.5562 -0.40058,-23.20932 -0.65123,-10.26079 -0.65123,-10.26079 -1.30246,-20.52159 -1.7948,-7.86623 -3.71716,-11.16714 -3.71716,-11.16714 -1.92237,-3.30091 -3.97005,-2.0365 -6.54812,-0.34464 0,0 -2.57582,1.69186 -5.68204,3.80892 -2.02082,1.4054 -2.02082,1.4054 -4.04389,2.80857 -0.93768,0.69151 -0.16784,3.11068 -0.16784,3.11068 0.77207,2.41694 3.25167,6.56154 4.2453,13.555 0,0 0.99363,6.99121 0.50353,16.83352 0.30883,9.66551 0.30883,9.66551 0.61766,19.33326 1.11224,9.49543 -3.87157,11.57668 -3.87157,11.57668 -4.98382,2.08349 -16.06368,-3.24944 -25.05111,-7.262 0,0 -8.98967,-4.0148 -15.89137,-6.707 -3.79325,-0.79446 -3.79325,-0.79446 -7.58649,-1.58668 -0.68928,1.10777 -1.77914,2.83767 -1.77914,2.83767 -1.0921,1.7299 -2.58478,4.08641 -3.40385,5.60371 0,0 -0.81908,1.51954 -0.96678,2.20658 3.38148,1.92683 3.38148,1.92683 6.76071,3.85591 6.90842,3.17111 14.53967,6.16319 14.53967,6.16319 7.63126,2.99208 15.9876,5.80289 23.36149,9.49319 0,0 7.37166,3.69031 13.76312,8.26011 4.20726,4.97486 4.20726,4.97486 8.41229,9.94749 2.0253,5.37544 2.01411,8.12583 2.01411,8.12583 -0.0112,2.74815 -2.05663,2.87123 -8.7144,3.94766 0,0 -6.65777,1.0742 -17.92786,3.10174 -5.27027,1.79032 -5.27027,1.79032 -10.53829,3.58065 0.73179,1.55311 1.20846,2.57583 1.20846,2.57583 0.47668,1.02272 0.70047,1.51506 1.10329,2.26923 0,0 0.40282,0.75194 0.98468,1.77019 0.83474,1.45911 0.83474,1.45911 1.66724,2.91822 1.08538,1.90222 7.77224,0.71166 7.77224,0.71166 6.68463,-1.19281 18.96849,-5.47839 25.88361,-6.20124 0,0 6.91513,-0.72508 8.45929,2.11482 6.62643,7.63574 6.62643,7.63574 13.25287,15.27147 11.71096,12.43604 11.71319,18.65294 11.71319,18.65294 0.002,6.2169 -11.702,6.2169 -23.40624,6.2169"
           id="path3032"
           inkscape:connector-curvature="0" />
        <path
           style="fill:none;stroke:#ff0000;stroke-width:0.49606299;stroke-miterlimit:4;stroke-opacity:1;stroke-dasharray:none"
           d="m 330.53418,777.14464 c -7.00241,-0.59305 -12.93957,-1.15029 -17.68393,-4.85626 0,0 -6.40712,-5.00395 -22.39695,-30.19829 -0.31331,-6.08934 -0.31331,-6.08934 -0.63333,-12.33981 2.10363,-3.82905 8.2713,-8.35186 8.2713,-8.35186 6.16766,-4.5228 12.55464,-8.61817 17.71078,-11.97055 0,0 5.15613,-3.35238 9.08142,-5.96178 1.33603,-1.76571 1.33603,-1.76571 2.66982,-3.53365 -1.24875,-0.92426 -2.80634,-2.10363 -2.80634,-2.10363 -1.55534,-1.18162 -3.41728,-2.61612 -4.88087,-3.88725 0,0 -1.46359,-1.27336 -2.52883,-2.3856 -3.62541,2.49302 -3.62541,2.49302 -7.24857,4.98605 -6.18557,6.09605 -11.34842,10.38836 -11.34842,10.38836 -5.16285,4.2923 -9.30521,6.77861 -11.00826,3.3658 0,0 -1.70304,-3.41504 -0.96453,-12.7292 3.31657,-10.01686 3.31657,-10.01686 6.63539,-20.03373 5.89911,-10.7218 13.31777,-19.49662 13.31777,-19.49662 7.41866,-8.77483 16.35909,-15.60715 20.03149,-19.47873 0,0 3.67016,-3.87381 2.07454,-4.78464 -1.70976,-1.31813 -1.70976,-1.31813 -3.41952,-2.63625 -1.82166,-1.72319 -3.05251,-2.88914 -3.05251,-2.88914 -1.23308,-1.16595 -1.87536,-1.77242 -3.77534,-0.20365 0,0 -1.89998,1.57101 -5.05991,5.32174 -4.77345,5.21208 -4.77345,5.21208 -9.54914,10.4264 -6.38922,6.67791 -13.12531,-0.55053 -13.12531,-0.55053 -6.73609,-7.23067 -13.81906,-28.36768 -17.85848,-39.14543 0,0 -4.03942,-10.77775 -5.03529,-11.19624 -1.75675,-0.73627 -1.75675,-0.73627 -3.51127,-1.47254 -2.51541,-1.05629 -5.22103,-2.10587 -5.22103,-2.10587 -2.70787,-1.05182 -5.60372,-2.09916 -5.10019,1.47478 0,0 0.50353,3.57169 4.41091,11.76467 3.1823,7.17024 3.1823,7.17024 6.3646,14.34273 2.45722,6.14976 5.65295,13.26854 5.65295,13.26854 3.19349,7.11654 7.12773,15.20209 9.70803,21.35185 0,0 2.58031,6.14976 3.80892,10.36822 -2.21105,8.43466 -2.21105,8.43466 -4.42434,16.86932 -5.65295,12.65536 -10.14666,15.92717 -10.14666,15.92717 -4.49371,3.27406 -7.83043,-2.83318 -10.53382,-12.06007 0,0 -2.70339,-9.22688 -4.77345,-21.57116 -1.89551,-6.16543 -1.89551,-6.16543 -3.79325,-12.32862 -1.72319,0.0157 -3.979,-0.0269 -3.979,-0.0269 -2.25804,-0.0448 -5.05095,-0.14994 -7.63125,-0.10965 0,0 -2.57807,0.0403 -4.94354,0.22602 0.5371,4.52505 0.5371,4.52505 1.0742,9.05009 3.43966,8.86658 6.63539,17.78016 6.63539,17.78016 3.19349,8.91357 6.14305,17.87638 9.45962,25.08244 0,0 5.75589,12.4987 16.236,32.32878 6.64882,12.41813 6.64882,12.41813 11.22534,20.96245 9.39696,10.93664 10.01015,16.61197 10.01015,16.61197 0.61318,5.67757 -7.55965,6.09382 -15.73024,6.51007"
           id="path3034"
           inkscape:connector-curvature="0" />
        <path
           style="fill:none;stroke:#ff0000;stroke-width:0.49606299;stroke-miterlimit:4;stroke-opacity:1;stroke-dasharray:none"
           d="m 770.11016,973.39325 c 0,0 0,-169.43851 0,-169.43851"
           id="path3036"
           inkscape:connector-curvature="0" />
        <path
           style="fill:none;stroke:#ff0000;stroke-width:0.49606299;stroke-miterlimit:4;stroke-opacity:1;stroke-dasharray:none"
           d="m 770.11016,797.12913 c 0,0 0,-169.43627 0,-169.43627"
           id="path3038"
           inkscape:connector-curvature="0" />
        <path
           style="fill:none;stroke:#ff0000;stroke-width:0.49606299;stroke-miterlimit:4;stroke-opacity:1;stroke-dasharray:none"
           d="m 334.68325,823.93923 c 3.86934,0.26184 7.74092,0.52367 9.92287,3.46652 0,0 2.17972,2.94284 2.67206,8.5667 -0.55052,9.71027 -0.55052,9.71027 -1.10328,19.42054 -1.59563,13.79668 -6.38922,30.75553 -6.38922,30.75553 -4.79136,16.95884 -12.78068,37.08208 -16.06816,47.32721 0,0 -3.28748,10.24513 -1.87313,10.61215 2.63178,0.86831 2.63178,0.86831 5.26356,1.73885 3.84919,1.3696 6.95093,2.48184 6.95093,2.48184 3.10173,1.11224 5.45377,1.96488 7.54621,-2.37218 0,0 2.09021,-4.33482 3.92081,-13.86158 1.96712,-8.4011 1.96712,-8.4011 3.93424,-16.79996 2.10811,-7.27543 3.37476,-11.63039 3.37476,-11.63039 1.26442,-4.35273 1.02496,-4.08418 4.12446,-3.79325 0,0 3.09726,0.29317 11.02392,2.62954 2.22448,0.31107 2.22448,0.31107 4.44896,0.62214 0.11861,-2.49751 0.62213,-4.25426 0.62213,-4.25426 0.50353,-1.75676 1.70081,-5.1897 2.10811,-6.48097 0,0 0.4073,-1.29351 0.69375,-2.15063 -2.98984,-1.00706 -2.98984,-1.00706 -5.97744,-2.01412 -6.26166,-1.15923 -9.39249,-2.07453 -9.39249,-2.07453 -3.13083,-0.91307 -3.13083,-1.5822 -2.64073,-4.08642 0,0 0.49234,-2.50421 1.47702,-6.84351 1.41212,-7.35376 1.41212,-7.35376 2.82423,-14.70975 1.84404,-10.36822 3.33896,-17.47133 3.33896,-17.47133 1.49492,-7.10311 2.64073,-10.93888 7.18591,-13.57513 0,0 4.54519,-2.63401 14.51506,-5.84541"
           id="path3040"
           inkscape:connector-curvature="0" />
        <path
           style="fill:none;stroke:#ff0000;stroke-width:0.49606299;stroke-miterlimit:4;stroke-opacity:1;stroke-dasharray:none"
           d="m 87.87365,823.93923 c 0.98244,0 1.96488,0 2.45722,0 0,0 0.49011,0 0.49011,0"
           id="path3042"
           inkscape:connector-curvature="0" />
        <path
           style="fill:none;stroke:#ff0000;stroke-width:0.49606299;stroke-miterlimit:4;stroke-opacity:1;stroke-dasharray:none"
           d="m 178.55804,823.93923 c 5.83646,0 11.67515,0 17.51161,0"
           id="path3044"
           inkscape:connector-curvature="0" />
        <path
           style="fill:none;stroke:#ff0000;stroke-width:0.49606299;stroke-miterlimit:4;stroke-opacity:1;stroke-dasharray:none"
           d="m 262.05652,823.93923 c 3.56274,0 7.12773,0 10.69271,0"
           id="path3046"
           inkscape:connector-curvature="0" />
        <path
           style="fill:none;stroke:#ff0000;stroke-width:0.49606299;stroke-miterlimit:4;stroke-opacity:1;stroke-dasharray:none"
           d="m 334.68325,823.93923 c -1.38302,0 -2.76605,0 -4.14907,0"
           id="path3048"
           inkscape:connector-curvature="0" />
        <path
           style="fill:none;stroke:#ff0000;stroke-width:0.49606299;stroke-miterlimit:4;stroke-opacity:1;stroke-dasharray:none"
           d="m 178.55804,823.93923 c -12.53227,0.44982 -25.06677,0.90188 -38.33979,10.35703 0,0 -13.27301,9.45291 -27.28677,27.91115 -8.32501,14.13461 -8.32501,14.13461 -16.65226,28.26922 -2.63849,9.81321 -5.09571,18.95281 -5.09571,18.95281 -2.45945,9.13737 -4.7354,17.60113 -5.62609,28.1618 0,0 -0.89292,10.55844 -0.40058,23.21155 -0.65123,10.2608 -0.65123,10.2608 -1.30246,20.51935 -1.7948,7.86848 -3.71716,11.16715 -3.71716,11.16715 -1.92237,3.30315 -3.97005,2.0365 -6.54812,0.34688 0,0 -2.57582,-1.69186 -5.68204,-3.80892 -2.02082,-1.4054 -2.02082,-1.4054 -4.04389,-2.80857 -0.93768,-0.69375 -0.16784,-3.11069 -0.16784,-3.11069 0.77207,-2.41693 3.25167,-6.56153 4.2453,-13.55499 0,0 0.99363,-6.99121 0.50353,-16.83352 0.30883,-9.66775 0.30883,-9.66775 0.61766,-19.33774 1.11224,-9.49543 -3.87157,-11.57668 -3.87157,-11.57668 -4.98382,-2.08125 -16.06368,3.25168 -25.05111,7.26424 0,0 -8.98967,4.01256 -15.89137,6.707 -3.79325,0.79446 -3.79325,0.79446 -7.58649,1.58667 -0.68928,-1.10776 -1.77914,-2.83766 -1.77914,-2.83766 -1.0921,-1.73214 -2.58478,-4.08641 -3.40385,-5.60595 0,0 -0.81908,-1.51954 -0.96678,-2.20434 3.38148,-1.92683 3.38148,-1.92683 6.76071,-3.85591 6.90842,-3.17111 14.53967,-6.16319 14.53967,-6.16319 7.63126,-2.99208 15.9876,-5.80289 23.36149,-9.49543 0,0 7.37166,-3.6903 13.76312,-8.26011 4.20726,-4.97262 4.20726,-4.97262 8.41229,-9.94525 2.0253,-5.37544 2.01411,-8.12583 2.01411,-8.12583 -0.0112,-2.74815 -2.05663,-2.87123 -8.7144,-3.94766 0,0 -6.65777,-1.0742 -17.92786,-3.10174 -5.27027,-1.79033 -5.27027,-1.79033 -10.53829,-3.58065 0.73179,-1.55311 1.20846,-2.57583 1.20846,-2.57583 0.47668,-1.02272 0.70047,-1.51506 1.10329,-2.26923 0,0 0.40282,-0.75418 0.98468,-1.77019 0.83474,-1.45911 0.83474,-1.45911 1.66724,-2.91822 1.08538,-1.90446 7.77224,-0.71166 7.77224,-0.71166 6.68463,1.19057 18.96849,5.47839 25.88361,6.20124 0,0 6.91513,0.72284 8.45929,-2.11482 6.62643,-7.63574 6.62643,-7.63574 13.25287,-15.27147 11.71096,-12.43604 11.71319,-18.65294 11.71319,-18.65294 0.002,-6.2169 -11.702,-6.2169 -23.40624,-6.2169"
           id="path3052"
           inkscape:connector-curvature="0" />
        <path
           style="fill:none;stroke:#ff0000;stroke-width:0.49606299;stroke-miterlimit:4;stroke-opacity:1;stroke-dasharray:none"
           d="m 262.05652,823.93923 c -5.71337,0.85264 -11.42674,1.70529 -15.78842,4.08418 0,0 -4.36168,2.37665 -7.36718,6.27956 -6.08039,8.63384 -6.08039,8.63384 -12.16302,17.26544 -9.15303,13.36477 -14.46582,26.89962 -14.46582,26.89962 -5.31502,13.53485 -6.7898,27.24425 -2.30951,40.85743 0,0 4.47804,13.61318 14.91563,27.13012 5.27698,10.9635 5.27698,10.9635 10.55172,21.92924 0.11861,8.41004 -0.98691,15.48406 -0.98691,15.48406 -1.10553,7.07402 -3.43519,12.80977 -5.64847,18.88792 0,0 -2.21329,6.0782 -4.30797,12.4987 -1.70752,3.4531 -1.70752,3.4531 -3.41728,6.9084 -1.32037,0.4924 -3.9141,0.9041 -3.9141,0.9041 -2.59373,0.414 -6.46083,0.7497 -8.99861,0.9556 0,0 -2.53779,0.2081 -3.74626,0.2887 2.20658,-7.121 2.20658,-7.121 4.41539,-14.2398 5.62609,-14.32034 7.83267,-25.17194 7.83267,-25.17194 2.20433,-10.85161 0.98915,-18.23669 -2.64744,-25.55017 0,0 -3.63436,-7.31123 -9.69013,-14.55309 -4.58995,-7.78568 -4.58995,-7.78568 -9.17989,-15.57135 -3.12411,-8.32948 -8.31158,-7.94456 -8.31158,-7.94456 -5.18746,0.38716 -12.43828,9.48872 -16.98794,18.86778 0,0 -4.54966,9.37906 -6.39593,19.03562 -0.82579,11.20519 -0.82579,11.20519 -1.65157,22.41038 0.19693,12.75158 0.77207,22.05003 0.77207,22.05003 0.57514,9.2985 1.52849,15.144 1.59563,18.0174 0,0 0.0671,2.8735 -0.75194,2.7773 -1.57772,-0.188 -1.57772,-0.188 -3.15768,-0.376 -2.33861,-0.2775 -4.3214,-0.5461 -4.3214,-0.5461 -1.98054,-0.2685 -3.60526,-0.5281 -4.75331,-0.7116 0,0 -1.15028,-0.1835 -1.82613,-0.2909 -0.64004,-4.214 -0.64004,-4.214 -1.28008,-8.428 -0.60199,-8.3183 -0.85712,-14.22635 -0.85712,-14.22635 -0.25512,-5.90807 -0.15889,-9.40591 -0.2484,-12.12944 0,0 -0.0895,-2.72353 -0.35807,-4.67499 -8.92252,1.05629 -8.92252,1.05629 -17.84282,2.11035 -17.57426,4.06179 -26.43637,5.64399 -26.43637,5.64399 -8.8621,1.58444 -9.01428,0.69152 -9.04113,-0.99363 0,0 -0.0246,-1.68514 0.3133,-8.19073 0.12309,-1.73661 0.12309,-1.73661 0.24393,-3.47099 0.14547,-0.99139 8.88001,-2.78395 8.88001,-2.78395 8.73454,-1.79033 26.06264,-4.38406 34.77033,-6.32209 0,0 8.70993,-1.93802 8.79945,-3.22258 0.97348,-5.35531 0.97348,-5.35531 1.94697,-10.71061 1.62248,-5.40007 3.8313,-13.32897 3.8313,-13.32897 2.20657,-7.92666 4.76673,-14.35616 9.17988,-20.2508 0,0 4.41315,-5.89464 10.68152,-11.25442 5.10019,-7.51489 5.10019,-7.51489 10.19814,-15.02754 3.932,-9.66775 -1.59563,-10.89859 -1.59563,-10.89859 -5.5321,-1.23085 -20.52159,5.9752 -30.52726,13.31329 0,0 -10.00568,7.33809 -15.02306,14.80822 -3.23377,2.75039 -3.23377,2.75039 -6.46978,5.50077 -1.45017,-1.96935 -2.4796,-3.36581 -2.4796,-3.36581 -1.03168,-1.39645 -1.63815,-2.22224 -2.6452,-3.58288 0,0 -1.0093,-1.36065 -2.4147,-3.26063 -0.17009,-1.51954 -0.17009,-1.51954 -0.34017,-3.04131 1.06301,-1.14134 2.84886,-3.05922 2.84886,-3.05922 1.78361,-1.91565 4.28782,-4.60561 10.69942,-9.4641 0,0 6.41384,-4.86073 16.73729,-11.88999 9.95197,-4.92115 9.95197,-4.92115 19.90393,-9.84231 9.58719,-2.81081 16.95885,-6.94198 16.95885,-6.94198 7.37165,-4.12893 12.5345,-9.57823 18.27697,-16.10173 0,0 5.74246,-6.52349 12.06678,-14.12341 -1.56653,-4.09313 -1.56653,-4.09313 -3.1353,-8.1885"
           id="path3054"
           inkscape:connector-curvature="0" />
        <path
           style="fill:none;stroke:#ff0000;stroke-width:0.49606299;stroke-miterlimit:4;stroke-opacity:1;stroke-dasharray:none"
           d="m 155.19431,1009.3564 c -1.74109,0.3043 -2.80857,2.5243 -2.38337,4.9592 0,0 0.42297,2.4348 2.17973,4.1625 1.74108,-0.3021 1.74108,-0.3021 3.48217,-0.6065 1.06749,-2.22 0.64452,-4.6548 0.64452,-4.6548 -0.4252,-2.4349 -2.18196,-4.1625 -3.92305,-3.8604 z"
           id="path3056"
           inkscape:connector-curvature="0" />
        <path
           style="fill:none;stroke:#ff0000;stroke-width:0.49606299;stroke-miterlimit:4;stroke-opacity:1;stroke-dasharray:none"
           d="m 134.20724,902.12492 c -1.16371,-1.33155 -3.61422,-1.09433 -5.47615,0.53262 0,0 -1.86194,1.62696 -2.42813,4.02376 1.16147,1.33155 1.16147,1.33155 2.32518,2.6631 2.45275,-0.23945 4.31468,-1.86641 4.31468,-1.86641 1.8597,-1.62472 2.42589,-4.02375 1.26442,-5.35307 z"
           id="path3058"
           inkscape:connector-curvature="0" />
        <path
           style="fill:none;stroke:#ff0000;stroke-width:0.49606299;stroke-miterlimit:4;stroke-opacity:1;stroke-dasharray:none"
           d="m 134.20724,699.27449 c -1.16371,1.33156 -3.61422,1.0921 -5.47615,-0.53486 0,0 -1.86194,-1.62696 -2.42813,-4.02375 1.16147,-1.33155 1.16147,-1.33155 2.32518,-2.66087 2.45275,0.23722 4.31468,1.86417 4.31468,1.86417 1.8597,1.62696 2.42589,4.02376 1.26442,5.35531 z"
           id="path3060"
           inkscape:connector-curvature="0" />
        <path
           style="fill:none;stroke:#ff0000;stroke-width:0.49606299;stroke-miterlimit:4;stroke-opacity:1;stroke-dasharray:none"
           d="m -6.97772,732.88559 c 0.65347,-1.64262 3.04356,-2.23343 5.34188,-1.32037 0,0 2.29609,0.91531 3.62989,2.98761 -0.65347,1.64262 -0.65347,1.64262 -1.30694,3.283 -2.39232,0.59305 -4.68841,-0.32225 -4.68841,-0.32225 -2.29833,-0.91307 -3.62988,-2.98537 -2.97642,-4.62799 z"
           id="path3062"
           inkscape:connector-curvature="0" />
        <path
           style="fill:none;stroke:#ff0000;stroke-width:0.49606299;stroke-miterlimit:4;stroke-opacity:1;stroke-dasharray:none"
           d="m 49.50029,735.81948 c -0.3603,-1.7299 1.31142,-3.54036 3.73059,-4.04389 0,0 2.41918,-0.50577 4.67499,0.4901 0.3603,1.7299 0.3603,1.7299 0.7206,3.4598 -1.66948,1.8127 -4.09089,2.31623 -4.09089,2.31623 -2.42141,0.50353 -4.67274,-0.4901 -5.03529,-2.22224 z"
           id="path3064"
           inkscape:connector-curvature="0" />
        <path
           style="fill:none;stroke:#ff0000;stroke-width:0.49606299;stroke-miterlimit:4;stroke-opacity:1;stroke-dasharray:none"
           d="m 30.1827,713.58142 c -1.5173,-0.90635 -1.72095,-3.36133 -0.45206,-5.48287 0,0 1.26666,-2.12377 3.5247,-3.10845 1.5173,0.90635 1.5173,0.90635 3.0346,1.8127 0.20365,2.45722 -1.06524,4.57876 -1.06524,4.57876 -1.26889,2.12153 -3.5247,3.10621 -5.042,2.19986 z"
           id="path3066"
           inkscape:connector-curvature="0" />
        <path
           style="fill:none;stroke:#ff0000;stroke-width:0.49606299;stroke-miterlimit:4;stroke-opacity:1;stroke-dasharray:none"
           d="m 25.8255,673.94588 c -0.51024,1.6941 -2.8399,2.49079 -5.20761,1.77914 0,0 -2.3677,-0.70942 -3.87605,-2.65864 0.508,-1.69185 0.508,-1.69185 1.01601,-3.38594 2.3319,-0.7967 4.6996,-0.085 4.6996,-0.085 2.3677,0.70942 3.87605,2.65864 3.36805,4.35049 z"
           id="path3068"
           inkscape:connector-curvature="0" />
        <path
           style="fill:none;stroke:#ff0000;stroke-width:0.49606299;stroke-miterlimit:4;stroke-opacity:1;stroke-dasharray:none"
           d="m 311.36204,704.50895 c -0.93096,-1.50163 0.0179,-3.77534 2.1193,-5.0778 0,0 2.09916,-1.30247 4.55861,-1.1391 0.93097,1.50164 0.93097,1.50164 1.86194,3.00551 -0.94663,2.27371 -3.04803,3.57617 -3.04803,3.57617 -2.10139,1.30022 -4.56085,1.13909 -5.49182,-0.36478 z"
           id="path3070"
           inkscape:connector-curvature="0" />
        <path
           style="fill:none;stroke:#ff0000;stroke-width:0.49606299;stroke-miterlimit:4;stroke-opacity:1;stroke-dasharray:none"
           d="m 73.81513,623.54602 c -1.76794,0 -3.2002,-2.00292 -3.2002,-4.47581 0,0 -0.002,-2.47288 1.43226,-4.47581 1.76794,0 1.76794,0 3.53589,0 1.43226,2.00293 1.43226,4.47581 1.43226,4.47581 0,2.47289 -1.43226,4.47581 -3.20021,4.47581 z"
           id="path3072"
           inkscape:connector-curvature="0" />
        <path
           style="fill:none;stroke:#ff0000;stroke-width:0.49606299;stroke-miterlimit:4;stroke-opacity:1;stroke-dasharray:none"
           d="m 107.04355,619.0993 c -0.42073,1.71424 -2.70787,2.62954 -5.10914,2.03874 0,0 -2.40127,-0.58857 -4.00585,-2.45946 0.42297,-1.71647 0.42297,-1.71647 0.84369,-3.43295 2.28938,-0.91306 4.68841,-0.32226 4.68841,-0.32226 2.40127,0.58857 4.00585,2.45946 3.58289,4.17593 z"
           id="path3074"
           inkscape:connector-curvature="0" />
        <path
           style="fill:none;stroke:#ff0000;stroke-width:0.49606299;stroke-miterlimit:4;stroke-opacity:1;stroke-dasharray:none"
           d="m 218.09735,593.36116 c -1.6829,0.5371 -3.65897,-0.93768 -4.40867,-3.29196 0,0 -0.75194,-2.35652 0.004,-4.6996 1.68515,-0.5371 1.68515,-0.5371 3.36805,-1.0742 1.97383,1.47255 2.72577,3.82906 2.72577,3.82906 0.7497,2.35428 -0.004,4.6996 -1.68962,5.2367 z"
           id="path3076"
           inkscape:connector-curvature="0" />
        <path
           style="fill:none;stroke:#ff0000;stroke-width:0.49606299;stroke-miterlimit:4;stroke-opacity:1;stroke-dasharray:none"
           d="m 316.14669,640.9144 c -1.40093,-1.07643 -1.31589,-3.53813 0.18798,-5.49853 0,0 1.50611,-1.9604 3.86262,-2.67653 1.40317,1.07643 1.40317,1.07643 2.8041,2.15062 -0.0828,2.46394 -1.58891,4.42434 -1.58891,4.42434 -1.50611,1.96041 -3.86263,2.67654 -5.26579,1.6001 z"
           id="path3078"
           inkscape:connector-curvature="0" />
        <path
           style="fill:none;stroke:#ff0000;stroke-width:0.49606299;stroke-miterlimit:4;stroke-opacity:1;stroke-dasharray:none"
           d="m 370.17419,705.5451 c 0.3894,1.72319 -1.24651,3.56498 -3.65897,4.1088 0,0 -2.41023,0.54604 -4.6817,-0.4073 -0.3894,-1.72543 -0.3894,-1.72543 -0.78103,-3.44861 1.63815,-1.83956 4.05061,-2.38561 4.05061,-2.38561 2.41022,-0.54605 4.67946,0.40954 5.07109,2.13272 z"
           id="path3080"
           inkscape:connector-curvature="0" />
        <path
           style="fill:none;stroke:#ff0000;stroke-width:0.49606299;stroke-miterlimit:4;stroke-opacity:1;stroke-dasharray:none"
           d="m 335.424,669.24181 c -1.66724,0.58633 -3.68359,-0.82803 -4.50266,-3.16216 0,0 -0.81908,-2.3319 -0.13204,-4.69737 1.66724,-0.58633 1.66724,-0.58633 3.33448,-1.17042 2.01859,1.41435 2.83766,3.74849 2.83766,3.74849 0.81907,2.3319 0.1298,4.69736 -1.53744,5.28146 z"
           id="path3082"
           inkscape:connector-curvature="0" />
        <path
           style="fill:none;stroke:#ff0000;stroke-width:0.49606299;stroke-miterlimit:4;stroke-opacity:1;stroke-dasharray:none"
           d="m 266.6129,604.99603 c -1.54864,0.85488 -3.77088,-0.20365 -4.96816,-2.36771 0,0 -1.19504,-2.16405 -0.91082,-4.61008 1.54639,-0.85488 1.54639,-0.85488 3.09278,-1.712 2.22448,1.06077 3.42176,3.22482 3.42176,3.22482 1.19504,2.16406 0.91083,4.61009 -0.63556,5.46497 z"
           id="path3084"
           inkscape:connector-curvature="0" />
        <path
           style="fill:none;stroke:#ff0000;stroke-width:0.49606299;stroke-miterlimit:4;stroke-opacity:1;stroke-dasharray:none"
           d="m 246.30838,664.19309 c -1.64038,0.66018 -3.71716,-0.66242 -4.64141,-2.95627 0,0 -0.92426,-2.29385 -0.3424,-4.68617 1.64038,-0.66019 1.64038,-0.66019 3.28077,-1.32037 2.07677,1.3226 3.00103,3.61646 3.00103,3.61646 0.92201,2.29161 0.3424,4.68617 -1.29799,5.34635 z"
           id="path3086"
           inkscape:connector-curvature="0" />
        <path
           style="fill:none;stroke:#ff0000;stroke-width:0.49606299;stroke-miterlimit:4;stroke-opacity:1;stroke-dasharray:none"
           d="m 155.19431,591.72749 c -1.74109,-0.30212 -2.80857,-2.52212 -2.38337,-4.95696 0,0 0.42297,-2.43484 2.17973,-4.16474 1.74108,0.30435 1.74108,0.30435 3.48217,0.60647 1.06749,2.22 0.64452,4.65708 0.64452,4.65708 -0.4252,2.43484 -2.18196,4.1625 -3.92305,3.85815 z"
           id="path3088"
           inkscape:connector-curvature="0" />
        <path
           style="fill:none;stroke:#ff0000;stroke-width:0.49606299;stroke-miterlimit:4;stroke-opacity:1;stroke-dasharray:none"
           d="m -6.97772,868.51159 c 0.65347,1.64262 3.04356,2.23343 5.34188,1.32036 0,0 2.29609,-0.91306 3.62989,-2.98536 -0.65347,-1.64263 -0.65347,-1.64263 -1.30694,-3.28525 -2.39232,-0.5908 -4.68841,0.32226 -4.68841,0.32226 -2.29833,0.91307 -3.62988,2.98537 -2.97642,4.62799 z"
           id="path3090"
           inkscape:connector-curvature="0" />
        <path
           style="fill:none;stroke:#ff0000;stroke-width:0.49606299;stroke-miterlimit:4;stroke-opacity:1;stroke-dasharray:none"
           d="m 49.50029,865.57769 c -0.3603,1.72991 1.31142,3.54261 3.73059,4.04614 0,0 2.41918,0.50353 4.67499,-0.4901 0.3603,-1.7299 0.3603,-1.7299 0.7206,-3.46204 -1.66948,-1.81047 -4.09089,-2.314 -4.09089,-2.314 -2.42141,-0.50576 -4.67274,0.4901 -5.03529,2.22 z"
           id="path3092"
           inkscape:connector-curvature="0" />
        <path
           style="fill:none;stroke:#ff0000;stroke-width:0.49606299;stroke-miterlimit:4;stroke-opacity:1;stroke-dasharray:none"
           d="m 30.1827,887.81576 c -1.5173,0.90635 -1.72095,3.36133 -0.45206,5.4851 0,0 1.26666,2.12154 3.5247,3.10622 1.5173,-0.90636 1.5173,-0.90636 3.0346,-1.81271 0.20365,-2.45498 -1.06524,-4.57651 -1.06524,-4.57651 -1.26889,-2.12378 -3.5247,-3.10845 -5.042,-2.2021 z"
           id="path3094"
           inkscape:connector-curvature="0" />
        <path
           style="fill:none;stroke:#ff0000;stroke-width:0.49606299;stroke-miterlimit:4;stroke-opacity:1;stroke-dasharray:none"
           d="m 25.8255,927.45129 c -0.51024,-1.69185 -2.8399,-2.48855 -5.20761,-1.77913 0,0 -2.3677,0.71165 -3.87605,2.65863 0.508,1.6941 0.508,1.6941 1.01601,3.38595 2.3319,0.7967 4.6996,0.0873 4.6996,0.0873 2.3677,-0.71165 3.87605,-2.65863 3.36805,-4.35272 z"
           id="path3096"
           inkscape:connector-curvature="0" />
        <path
           style="fill:none;stroke:#ff0000;stroke-width:0.49606299;stroke-miterlimit:4;stroke-opacity:1;stroke-dasharray:none"
           d="m 311.36204,896.88822 c -0.93096,1.50388 0.0179,3.77535 2.1193,5.07781 0,0 2.09916,1.30246 4.55861,1.14133 0.93097,-1.50387 0.93097,-1.50387 1.86194,-3.0055 -0.94663,-2.27372 -3.04803,-3.57618 -3.04803,-3.57618 -2.10139,-1.30246 -4.56085,-1.13909 -5.49182,0.36254 z"
           id="path3098"
           inkscape:connector-curvature="0" />
        <path
           style="fill:none;stroke:#ff0000;stroke-width:0.49606299;stroke-miterlimit:4;stroke-opacity:1;stroke-dasharray:none"
           d="m 73.81513,977.85339 c -1.76794,0 -3.2002,2.00517 -3.2002,4.47581 0,0 -0.002,2.47289 1.43226,4.47581 1.76794,0 1.76794,0 3.53589,0 1.43226,-2.00292 1.43226,-4.47581 1.43226,-4.47581 0,-2.47064 -1.43226,-4.47581 -3.20021,-4.47581 z"
           id="path3100"
           inkscape:connector-curvature="0" />
        <path
           style="fill:none;stroke:#ff0000;stroke-width:0.49606299;stroke-miterlimit:4;stroke-opacity:1;stroke-dasharray:none"
           d="m 107.04355,982.30235 c -0.42073,-1.71648 -2.70787,-2.62954 -5.10914,-2.04097 0,0 -2.40127,0.59081 -4.00585,2.45946 0.42297,1.71647 0.42297,1.71647 0.84369,3.43294 2.28938,0.91307 4.68841,0.3245 4.68841,0.3245 2.40127,-0.59081 4.00585,-2.45946 3.58289,-4.17593 z"
           id="path3102"
           inkscape:connector-curvature="0" />
        <path
           style="fill:none;stroke:#ff0000;stroke-width:0.49606299;stroke-miterlimit:4;stroke-opacity:1;stroke-dasharray:none"
           d="m 218.09735,1008.0405 c -1.6829,-0.5371 -3.65897,0.9354 -4.40867,3.292 0,0 -0.75194,2.3542 0.004,4.6996 1.68515,0.5371 1.68515,0.5371 3.36805,1.0741 1.97383,-1.4747 2.72577,-3.829 2.72577,-3.829 0.7497,-2.3565 -0.004,-4.6996 -1.68962,-5.2367 z"
           id="path3104"
           inkscape:connector-curvature="0" />
        <path
           style="fill:none;stroke:#ff0000;stroke-width:0.49606299;stroke-miterlimit:4;stroke-opacity:1;stroke-dasharray:none"
           d="m 316.14669,960.48501 c -1.40093,1.07643 -1.31589,3.53813 0.18798,5.50077 0,0 1.50611,1.96041 3.86262,2.67654 1.40317,-1.07644 1.40317,-1.07644 2.8041,-2.15287 -0.0828,-2.46169 -1.58891,-4.4221 -1.58891,-4.4221 -1.50611,-1.96264 -3.86263,-2.67877 -5.26579,-1.60234 z"
           id="path3106"
           inkscape:connector-curvature="0" />
        <path
           style="fill:none;stroke:#ff0000;stroke-width:0.49606299;stroke-miterlimit:4;stroke-opacity:1;stroke-dasharray:none"
           d="m 370.17419,895.85431 c 0.3894,-1.72542 -1.24651,-3.56498 -3.65897,-4.11103 0,0 -2.41023,-0.54605 -4.6817,0.40954 -0.3894,1.72318 -0.3894,1.72318 -0.78103,3.44861 1.63815,1.83956 4.05061,2.38561 4.05061,2.38561 2.41022,0.54604 4.67946,-0.40954 5.07109,-2.13273 z"
           id="path3108"
           inkscape:connector-curvature="0" />
        <path
           style="fill:none;stroke:#ff0000;stroke-width:0.49606299;stroke-miterlimit:4;stroke-opacity:1;stroke-dasharray:none"
           d="m 335.424,932.15537 c -1.66724,-0.58409 -3.68359,0.83026 -4.50266,3.16216 0,0 -0.81908,2.3319 -0.13204,4.69736 1.66724,0.58633 1.66724,0.58633 3.33448,1.17267 2.01859,-1.4166 2.83766,-3.7485 2.83766,-3.7485 0.81907,-2.33189 0.1298,-4.69736 -1.53744,-5.28369 z"
           id="path3110"
           inkscape:connector-curvature="0" />
        <path
           style="fill:none;stroke:#ff0000;stroke-width:0.49606299;stroke-miterlimit:4;stroke-opacity:1;stroke-dasharray:none"
           d="m 266.6129,996.40339 c -1.54864,-0.85488 -3.77088,0.20589 -4.96816,2.36994 0,0 -1.19504,2.16177 -0.91082,4.61007 1.54639,0.8549 1.54639,0.8549 3.09278,1.7098 2.22448,-1.0608 3.42176,-3.2226 3.42176,-3.2226 1.19504,-2.16406 0.91083,-4.61009 -0.63556,-5.46721 z"
           id="path3112"
           inkscape:connector-curvature="0" />
        <path
           style="fill:none;stroke:#ff0000;stroke-width:0.49606299;stroke-miterlimit:4;stroke-opacity:1;stroke-dasharray:none"
           d="m 246.30838,936.89078 c -1.64038,-0.66019 -3.71716,0.66242 -4.64141,2.95627 0,0 -0.92426,2.29162 -0.3424,4.68617 1.64038,0.66018 1.64038,0.66018 3.28077,1.32037 2.07677,-1.32261 3.00103,-3.61646 3.00103,-3.61646 0.92201,-2.29385 0.3424,-4.68617 -1.29799,-5.34635 z"
           id="path3114"
           inkscape:connector-curvature="0" />
        <path
           style="fill:none;stroke:#ff0000;stroke-width:0.49606299;stroke-linecap:butt;stroke-linejoin:miter;stroke-miterlimit:4;stroke-opacity:1;stroke-dasharray:none"
           d="m 386.96972,823.77012 20.36265,0.15908"
           id="path4002"
           inkscape:connector-curvature="0" />
        <path
           style="fill:none;stroke:#ff0000;stroke-width:0.49606299;stroke-linecap:butt;stroke-linejoin:miter;stroke-miterlimit:4;stroke-opacity:1;stroke-dasharray:none"
           d="m 386.81063,777.47691 20.36265,-0.47725"
           id="path4004"
           inkscape:connector-curvature="0" />
        <path
           style="fill:none;stroke:#ff0000;stroke-width:0.49606299;stroke-linecap:butt;stroke-linejoin:miter;stroke-miterlimit:4;stroke-opacity:1;stroke-dasharray:none"
           d="m 45.861382,808.58929 0,-15.6536"
           id="path4018"
           inkscape:connector-curvature="0" />
        <path
           style="fill:none;stroke:#ff0000;stroke-width:0.49606299;stroke-linecap:butt;stroke-linejoin:miter;stroke-miterlimit:4;stroke-opacity:1;stroke-dasharray:none"
           d="m 195.88667,824.10438 19.11679,1.24674"
           id="path4020"
           inkscape:connector-curvature="0" />
        <path
           style="fill:none;stroke:#ff0000;stroke-width:0.49606299;stroke-linecap:butt;stroke-linejoin:miter;stroke-miterlimit:4;stroke-opacity:1;stroke-dasharray:none"
           d="m 195.74814,777.14355 19.39385,-1.24675"
           id="path4022"
           inkscape:connector-curvature="0" />
      </g>
    </g>
  </g>
</svg>
