<?xml version="1.0" encoding="UTF-8" standalone="no"?>
<!-- Created with Inkscape (http://www.inkscape.org/) -->

<svg
   xmlns:dc="http://purl.org/dc/elements/1.1/"
   xmlns:cc="http://creativecommons.org/ns#"
   xmlns:rdf="http://www.w3.org/1999/02/22-rdf-syntax-ns#"
   xmlns:svg="http://www.w3.org/2000/svg"
   xmlns="http://www.w3.org/2000/svg"
   xmlns:sodipodi="http://sodipodi.sourceforge.net/DTD/sodipodi-0.dtd"
   xmlns:inkscape="http://www.inkscape.org/namespaces/inkscape"
   id="svg4126"
   version="1.1"
   inkscape:version="0.48.4 r9939"
   width="57.311424"
   height="55.2906"
   sodipodi:docname="vos1.svg">
  <metadata
     id="metadata4132">
    <rdf:RDF>
      <cc:Work
         rdf:about="">
        <dc:format>image/svg+xml</dc:format>
        <dc:type
           rdf:resource="http://purl.org/dc/dcmitype/StillImage" />
        <dc:title></dc:title>
      </cc:Work>
    </rdf:RDF>
  </metadata>
  <defs
     id="defs4130" />
  <sodipodi:namedview
     pagecolor="#ffffff"
     bordercolor="#666666"
     borderopacity="1"
     objecttolerance="10"
     gridtolerance="10"
     guidetolerance="10"
     inkscape:pageopacity="0"
     inkscape:pageshadow="2"
     inkscape:window-width="1366"
     inkscape:window-height="715"
     id="namedview4128"
     showgrid="false"
     showguides="true"
     inkscape:guide-bbox="true"
     inkscape:zoom="6.816568"
     inkscape:cx="25.5"
     inkscape:cy="29.75"
     inkscape:window-x="0"
     inkscape:window-y="31"
     inkscape:window-maximized="1"
     inkscape:current-layer="svg4126"
     inkscape:document-units="cm"
     units="cm"
     fit-margin-top="0"
     fit-margin-left="0"
     fit-margin-right="0"
     fit-margin-bottom="0" />
  <g
     id="g5309"
     transform="matrix(0.30578264,0,0,0.30578264,-6.3869227,-6.4978811)">
    <path
       sodipodi:nodetypes="cccccccccccccccccc"
       inkscape:connector-curvature="0"
       id="path4681"
       d="m 33.741586,111.14921 c 0.593338,-5.807 7.085614,-8.0439 12.491349,-6.5333 -0.715077,-2.8312 -0.310084,-10.281901 1.132569,-14.510201 3.72249,-3.8605 5.601261,-10.3179 11.282693,-11.4776 4.709103,-1.9701 10.551009,-2.8588 14.869214,0.41 2.963864,1.7 6.476307,2.8018 7.745501,6.3476 5.53875,7.6593 8.083375,16.871301 10.52484,25.856001 2.586011,-4.1801 3.680303,-11.1928 5.755138,-16.465401 3.66689,-6.0329 5.08888,-13.5692 11.66794,-17.2851 7.35818,-3.1042 16.25159,-0.4492 22.1184,4.6886 5.51358,3.7959 6.82889,12.1557 5.05633,18.052701 -3.48282,4.161 3.70618,3.9919 5.77457,4.2824 3.14028,-0.3058 5.90543,3.3539 3.31327,5.6834 -0.73615,4.5357 -9.37431,5.9909 -12.78933,9.4973 -6.70073,4.2546 -12.82267,9.6486 -20.57739,11.8805 -7.19058,2.724 -14.847751,5.5474 -22.601507,5.0302 -9.319691,0.089 -17.940127,-4.2897 -26.499384,-7.3693 -10.144597,-2.96 -19.23227,-12.4138 -29.264203,-18.0878 z"
       style="fill:none;stroke:#000000;stroke-width:3;stroke-linecap:butt;stroke-linejoin:miter;stroke-miterlimit:4;stroke-opacity:1;stroke-dasharray:none" />
    <path
       sodipodi:nodetypes="ccccccccccccccccccccccccccccc"
       inkscape:connector-curvature="0"
       id="path4168"
       d="m 24.879058,93.735909 c 6.42713,-6.295 7.136728,-13.6641 12.711624,-20.3233 -4.598042,-8.2478 -8.679438,-16.5027 -5.798524,-26.3459 0.813874,-8.4996 0.01592,-18.8369 6.174866,-25.2891 7.404366,0.423 14.150833,2.956 22.076796,6.3512 9.045885,4.5272 12.605448,13.8216 16.584952,18.7161 6.276186,-5.6626 17.546789,-6.51 25.086288,-2.7417 7.51769,5.6568 9.15222,-8.8379 17.18335,-11.0911 6.6191,-4.6145 17.02494,-6.3133 24.6739,-7.7046 5.92448,9.106 5.6719,20.7079 5.69892,29.4479 -0.77687,7.9718 -3.09783,15.9158 -7.83404,22.3347 -0.26137,9.3234 9.84929,15.2934 14.33336,17.9603 -1.29551,12.811501 -13.10462,20.834001 -23.10192,27.178301 -3.33987,2.2974 -13.6462,5.0731 -5.35235,9.2791 5.9633,4.7183 7.55738,15.2256 8.04882,21.8442 5.29888,-5.567 13.03502,-15.3967 23.02217,-16.4234 10.1292,-3.2557 20.67512,-1.4673 32.58335,-2.9227 2.77571,-3.4366 5.55141,-8.0798 8.32711,-11.5164 8.49349,2.7866 7.35342,14.3129 8.50536,21.2158 -0.65624,7.7992 -2.61368,15.0548 -3.6305,22.8233 -3.1924,8.1007 -5.40575,16.9124 -12.61589,22.5764 -7.28653,6.2366 -17.65984,7.5438 -26.40306,11.3119 -10.01655,1.8845 -20.47714,0.6839 -30.67352,1.1356 -23.72872,0.052 -47.455207,-0.3949 -71.183844,-0.3704 -2.461313,-11.8459 -5.545518,-20.7326 -9.074051,-28.7988 -2.352311,-10.714 -1.678174,-21.3394 1.197377,-31.8343 2.353509,-5.9132 14.981678,-9.799 0.154981,-12.9399 -10.96252,-5.9719 -20.852891,-14.0327 -30.040217,-22.3673 -3.42879,-3.9379 -6.98407,-11.406001 -0.655308,-11.505901 z"
       style="fill:none;stroke:#ffff00;stroke-width:1px;stroke-linecap:butt;stroke-linejoin:miter;stroke-opacity:1" />
    <path
       sodipodi:nodetypes="ccccccccccccccccccccccccccccccccccccccccccccscccc"
       inkscape:connector-curvature="0"
       id="path4708"
       d="m 172.92352,141.91581 0.72398,-5.1554 c -0.62167,4.3518 -0.21985,2.032 -0.21985,2.032 l -1.14102,4.5222 -1.15997,3.3926 -1.48975,2.7975 -2.44119,3.2638 0.0265,1.5731 4.03715,-0.2842 4.11664,-1.088 5.32582,-1.4177 3.00232,-0.2198 -0.0379,0.326 -1.05004,3.7148 -2.24029,5.724 -1.14475,5.1401 4.93922,-1.3836 4.19629,-4.0408 3.57461,-3.2638 -0.15542,9.6359 0.53069,7.2744 2.5474,4.0598 3.60489,0.7884 2.72549,-6.8005 1.93706,-5.9779 0.7847,-6.1486 0.90547,-3.8944 0.13599,-1.1462 0.13599,-1.1462 0.13599,-1.1462 0.13599,-1.1462 0.13599,-1.1462 0.13599,-1.1462 0.13599,-1.1462 0,-1.7873 0.31084,-1.6319 0,-1.7873 -0.31084,-1.9427 0,-1.7873 0,-2.1171 0,-1.7873 -0.32978,-4.2057 -1.94839,-4.7688 -3.93855,-3.4457 c 0,0 -7.46007,11.8118 -8.08174,11.8118 -0.62167,0 -12.52444,0.7694 -12.52444,0.7694 l -4.02192,0.1555 -1.87635,0.045 z"
       style="fill:#000000;fill-opacity:1;stroke:#000000;stroke-width:1px;stroke-linecap:butt;stroke-linejoin:miter;stroke-opacity:1" />
    <path
       sodipodi:nodetypes="cccccccccccsc"
       inkscape:connector-curvature="0"
       id="path4712"
       d="m 75.99945,134.59221 c -0.11855,6.525 -1.946724,13.5573 -1.01221,20.0938 -0.561087,6.8135 3.148889,13.0109 7.11994,18.228 1.467918,2.2637 3.639694,4.1473 6.363424,4.6344 2.790627,0.6249 5.68357,0.3944 8.504313,0.3484 3.078283,-0.7365 4.706553,-3.7627 7.057003,-5.6094 3.22389,-3.2486 5.32642,-7.6167 5.5224,-12.2164 1.19948,-8.8565 1.22214,-18.3357 -2.9375,-26.4835 l -3.17641,2.0992 -9.563565,1.539 -6.485637,0.3298 c 0,0 -6.485637,-1.0993 -6.925341,-1.0993 -0.439704,0 -4.466417,-1.864 -4.466417,-1.864 z"
       style="fill:#000000;fill-opacity:1;stroke:#000000;stroke-width:1px;stroke-linecap:butt;stroke-linejoin:miter;stroke-opacity:1" />
    <path
       transform="translate(-34.736631,14.290409)"
       sodipodi:open="true"
       sodipodi:end="9.4656941"
       sodipodi:start="3.3067413"
       d="m 133.41584,175.92252 c 1.23761,-5.09018 8.26059,-8.52885 15.68626,-7.68048 7.42567,0.84836 12.44209,5.6625 11.20447,10.75267 -1.23761,5.09018 -8.26059,8.52885 -15.68626,7.68049 -6.78144,-0.77476 -11.65974,-4.89004 -11.37853,-9.59878"
       sodipodi:ry="9.3437138"
       sodipodi:rx="13.63083"
       sodipodi:cy="177.45862"
       sodipodi:cx="146.86121"
       id="path4724"
       style="fill:#000000;fill-opacity:1;stroke:#ffff00;stroke-width:0.10629921;stroke-miterlimit:4;stroke-opacity:1;stroke-dasharray:none"
       sodipodi:type="arc" />
    <path
       transform="translate(-66.978807,14.379009)"
       sodipodi:open="true"
       sodipodi:end="9.4656941"
       sodipodi:start="3.3067413"
       d="m 133.41584,175.92252 c 1.23761,-5.09018 8.26059,-8.52885 15.68626,-7.68048 7.42567,0.84836 12.44209,5.6625 11.20447,10.75267 -1.23761,5.09018 -8.26059,8.52885 -15.68626,7.68049 -6.78144,-0.77476 -11.65974,-4.89004 -11.37853,-9.59878"
       sodipodi:ry="9.3437138"
       sodipodi:rx="13.63083"
       sodipodi:cy="177.45862"
       sodipodi:cx="146.86121"
       id="path4724-8"
       style="fill:#000000;fill-opacity:1;stroke:#ffff00;stroke-width:0.10629921;stroke-miterlimit:4;stroke-opacity:1;stroke-dasharray:none"
       sodipodi:type="arc" />
    <path
       transform="matrix(1.0469037,0,0,1.0915496,-61.892575,5.1156094)"
       sodipodi:open="true"
       sodipodi:end="9.4656941"
       sodipodi:start="3.3067413"
       d="m 158.48195,93.091003 c 0.52399,-4.551218 3.49743,-7.625794 6.64136,-6.867258 3.14393,0.758536 5.26782,5.062943 4.74383,9.614161 -0.52399,4.551214 -3.49743,7.625794 -6.64136,6.867254 -2.87117,-0.69272 -4.93659,-4.372268 -4.81752,-8.582439"
       sodipodi:ry="8.3543797"
       sodipodi:rx="5.7711177"
       sodipodi:cy="94.464455"
       sodipodi:cx="164.17455"
       id="path4744-2-5"
       style="fill:#000501;fill-opacity:1;stroke:#000000;stroke-width:1.65730977;stroke-linecap:round;stroke-linejoin:round;stroke-miterlimit:4;stroke-opacity:1;stroke-dasharray:none"
       sodipodi:type="arc" />
    <path
       inkscape:connector-curvature="0"
       id="path4706"
       d="m 84.109306,117.60761 c 0,0 12.899703,0 13.676793,0.1554 0.777091,0.1554 2.642101,2.4867 2.642101,2.4867 l -0.621666,3.4192 -1.398763,3.5746 -2.486689,1.7096 -4.351707,1.865 -4.196289,-0.3108 -2.020435,-2.6421 -2.797526,-3.2638 -1.087926,-2.4867 0.310836,-2.9529 z"
       style="fill:#010000;fill-opacity:1;stroke:#000000;stroke-width:1px;stroke-linecap:butt;stroke-linejoin:miter;stroke-opacity:1" />
    <path
       transform="matrix(1.0469037,0,0,1.0915496,-103.97745,4.0674094)"
       sodipodi:open="true"
       sodipodi:end="9.4656941"
       sodipodi:start="3.3067413"
       d="m 158.48195,93.091003 c 0.52399,-4.551218 3.49743,-7.625794 6.64136,-6.867258 3.14393,0.758536 5.26782,5.062943 4.74383,9.614161 -0.52399,4.551214 -3.49743,7.625794 -6.64136,6.867254 -2.87117,-0.69272 -4.93659,-4.372268 -4.81752,-8.582439"
       sodipodi:ry="8.3543797"
       sodipodi:rx="5.7711177"
       sodipodi:cy="94.464455"
       sodipodi:cx="164.17455"
       id="path4744-2"
       style="fill:#000000;fill-opacity:1;stroke:#000000;stroke-width:1.65730977;stroke-linecap:round;stroke-linejoin:round;stroke-miterlimit:4;stroke-opacity:1;stroke-dasharray:none"
       sodipodi:type="arc" />
    <path
       sodipodi:nodetypes="aaaaaaaasa"
       inkscape:connector-curvature="0"
       id="path5289"
       d="m 43.123767,64.896109 c -3.871931,-0.8173 -3.850341,-7.138 -4.285635,-11.0712 -0.264827,-2.393 0.644668,-4.7733 1.071409,-7.1427 0.819414,-4.5497 -0.73274,-10.6585 2.85709,-13.5712 1.479085,-1.2001 3.838784,-0.333 5.714179,0 3.745291,0.665 7.5938,1.7529 10.714086,3.9285 2.563251,1.7872 4.500712,4.4413 6.071315,7.1427 0.700353,1.2046 1.966821,2.6433 1.428545,3.9285 -1.769791,4.2257 -4.00754,0.8124 -12.499767,5.7142 -9.448488,5.4537 -5.964725,12.1491 -11.071222,11.0712 z"
       style="fill:#010000;fill-opacity:1;stroke:#000000;stroke-width:0.71427238px;stroke-linecap:butt;stroke-linejoin:miter;stroke-opacity:1" />
    <path
       sodipodi:nodetypes="aaaaaaaasa"
       inkscape:connector-curvature="0"
       id="path5289-8"
       d="m 139.18378,65.642609 c 3.87194,-0.8173 3.85035,-7.138 4.28564,-11.0712 0.26483,-2.393 -0.64467,-4.7733 -1.07141,-7.1428 -0.81941,-4.5496 0.73274,-10.6584 -2.85709,-13.5711 -1.47908,-1.2002 -3.83878,-0.333 -5.71418,0 -3.74529,0.665 -7.5938,1.7529 -10.71408,3.9285 -2.56326,1.7872 -4.50072,4.4413 -6.07132,7.1427 -0.70035,1.2046 -1.96682,2.6433 -1.42854,3.9285 1.76979,4.2257 4.00754,0.8124 12.49976,5.7142 9.44849,5.4537 5.96473,12.1491 11.07122,11.0712 z"
       style="fill:#010000;fill-opacity:1;stroke:#000000;stroke-width:0.71427238px;stroke-linecap:butt;stroke-linejoin:miter;stroke-opacity:1" />
  </g>
</svg>
