<?xml version="1.0" encoding="UTF-8" standalone="no"?>
<svg
   xmlns:dc="http://purl.org/dc/elements/1.1/"
   xmlns:cc="http://creativecommons.org/ns#"
   xmlns:rdf="http://www.w3.org/1999/02/22-rdf-syntax-ns#"
   xmlns:svg="http://www.w3.org/2000/svg"
   xmlns="http://www.w3.org/2000/svg"
   xmlns:sodipodi="http://sodipodi.sourceforge.net/DTD/sodipodi-0.dtd"
   xmlns:inkscape="http://www.inkscape.org/namespaces/inkscape"
   width="89.925659"
   height="46.398884"
   id="svg2"
   version="1.1"
   inkscape:version="0.48.5 r10040"
   sodipodi:docname="schaap_lasercut.svg">
  <metadata
     id="metadata29">
    <rdf:RDF>
      <cc:Work
         rdf:about="">
        <dc:format>image/svg+xml</dc:format>
        <dc:type
           rdf:resource="http://purl.org/dc/dcmitype/StillImage" />
      </cc:Work>
    </rdf:RDF>
  </metadata>
  <defs
     id="defs27" />
  <sodipodi:namedview
     pagecolor="#ffffff"
     bordercolor="#666666"
     borderopacity="1"
     objecttolerance="10"
     gridtolerance="10"
     guidetolerance="10"
     inkscape:pageopacity="0"
     inkscape:pageshadow="2"
     inkscape:window-width="1424"
     inkscape:window-height="872"
     id="namedview25"
     showgrid="false"
     inkscape:zoom="7.9847039"
     inkscape:cx="46.957722"
     inkscape:cy="24.11305"
     inkscape:window-x="0"
     inkscape:window-y="0"
     inkscape:window-maximized="0"
     inkscape:current-layer="svg2"
     inkscape:document-units="cm"
     fit-margin-top="0"
     fit-margin-left="0"
     fit-margin-right="0"
     fit-margin-bottom="0" />
  <path
     stroke-miterlimit="4"
     id="path3172"
     d="m 23.69953,43.995149 c 0,1.654654 2.688458,1.707546 6.001019,1.707546 3.312562,0 6.00102,0.126223 6.00102,-1.707546 0,-3.224563 -2.688458,-5.841604 -6.00102,-5.841604 -3.312561,0 -6.001019,2.617041 -6.001019,5.841604 z"
     inkscape:connector-curvature="0"
     style="fill:#ffffff;fill-opacity:1;fill-rule:nonzero;stroke:#000000;stroke-width:0.5841589;stroke-linecap:round;stroke-linejoin:round;stroke-miterlimit:4;stroke-dasharray:none" />
  <path
     stroke-miterlimit="4"
     id="path3329"
     d="m 20.950125,43.995149 c 0,1.654654 -2.688458,1.707546 -6.001017,1.707546 -3.312564,0 -6.0010225,0.126223 -6.0010225,-1.707546 0,-3.224563 2.6884585,-5.841604 6.0010225,-5.841604 3.312559,0 6.001017,2.617041 6.001017,5.841604 z"
     inkscape:connector-curvature="0"
     style="fill:#ffffff;fill-opacity:1;fill-rule:nonzero;stroke:#000000;stroke-width:0.5841589;stroke-linecap:round;stroke-linejoin:round;stroke-miterlimit:4;stroke-dasharray:none" />
  <path
     stroke-miterlimit="4"
     id="path3331"
     d="m 12.641026,45.593312 c 0,-2.979138 1.73106,-4.81246 1.73106,-4.81246 0,0 -0.692426,2.52081 -0.577022,4.81246 l -1.154038,0 z"
     inkscape:connector-curvature="0"
     style="fill:#000000;fill-opacity:1;fill-rule:evenodd;stroke:#000000;stroke-width:0.38943928;stroke-linejoin:round;stroke-miterlimit:4" />
  <path
     stroke-miterlimit="4"
     id="path3155"
     d="m 21.711961,8.8906982 c -5.523308,0.111138 -9.336819,2.1210658 -11.663767,5.2329258 -4.4115033,-0.471017 -8.0775586,4.3001 -8.0775586,4.3001 0,0 3.4631314,1.719376 5.8777117,0.27871 -0.4398283,1.585664 -0.6530792,3.295554 -0.6530792,5.079351 0,8.222428 10.2889601,14.896774 15.0036391,14.896774 4.897703,0 15.003639,-6.674346 15.003639,-14.896774 0,-1.783797 -0.213364,-3.493687 -0.653079,-5.079351 2.414585,1.440666 5.871985,-0.27871 5.871985,-0.27871 0,0 -3.661134,-4.769619 -8.071833,-4.3001 -2.394466,-3.20255 -6.362627,-5.2329258 -12.150712,-5.2329258 -0.163881,0 -0.325975,-0.00324 -0.486946,0 z"
     inkscape:connector-curvature="0"
     style="fill:#000000;fill-opacity:1;fill-rule:nonzero;stroke:#000000;stroke-width:0.38943928;stroke-linecap:round;stroke-linejoin:round;stroke-miterlimit:4" />
  <path
     stroke-miterlimit="4"
     id="path3174"
     d="m 32.008631,45.593312 c 0,-2.979138 -1.731061,-4.81246 -1.731061,-4.81246 0,0 0.692423,2.52081 0.577023,4.81246 l 1.154038,0 z"
     inkscape:connector-curvature="0"
     style="fill:#000000;fill-opacity:1;fill-rule:evenodd;stroke:#000000;stroke-width:0.38943928;stroke-linejoin:round;stroke-miterlimit:4" />
  <path
     stroke-miterlimit="4"
     id="path3157"
     d="m 21.534548,21.600063 c 6.82e-4,2.278628 -1.859571,4.126185 -4.154547,4.126185 -2.294981,0 -4.15524,-1.847557 -4.154553,-4.126185 -6.81e-4,-2.27864 1.859572,-4.126195 4.154553,-4.126195 2.294976,0 4.155231,1.847555 4.154547,4.126195 z"
     inkscape:connector-curvature="0"
     style="fill:#ffffff;fill-rule:nonzero;stroke:#000000;stroke-width:0.38943928;stroke-linecap:round;stroke-linejoin:round;stroke-miterlimit:4" />
  <path
     stroke-miterlimit="4"
     id="path3159"
     d="m 31.201446,21.600063 c 6.81e-4,2.278628 -1.859573,4.126185 -4.154553,4.126185 -2.294982,0 -4.155236,-1.847557 -4.154554,-4.126185 -6.81e-4,-2.27864 1.859572,-4.126195 4.154554,-4.126195 2.29498,0 4.155233,1.847555 4.154553,4.126195 z"
     inkscape:connector-curvature="0"
     style="fill:#ffffff;fill-rule:nonzero;stroke:#000000;stroke-width:0.38943928;stroke-linecap:round;stroke-linejoin:round;stroke-miterlimit:4" />
  <path
     stroke-miterlimit="4"
     id="path3161"
     d="m 27.508512,22.328121 c 1.95e-4,0.759544 -0.619861,1.3754 -1.384852,1.3754 -0.764992,0 -1.385081,-0.615856 -1.384852,-1.3754 -1.95e-4,-0.759542 0.61986,-1.375397 1.384852,-1.375397 0.764991,0 1.385081,0.615855 1.384852,1.375398 z"
     inkscape:connector-curvature="0"
     style="fill:#000000;fill-rule:nonzero;stroke-width:47.66669083;stroke-linecap:round;stroke-linejoin:round;stroke-miterlimit:4" />
  <path
     stroke-miterlimit="4"
     id="path3163"
     d="m 19.803488,22.328121 c 1.95e-4,0.759544 -0.619859,1.3754 -1.38485,1.3754 -0.764993,0 -1.385081,-0.615856 -1.384852,-1.3754 -1.95e-4,-0.759542 0.619859,-1.375397 1.384852,-1.375397 0.764991,0 1.385079,0.615855 1.38485,1.375398 z"
     inkscape:connector-curvature="0"
     style="fill:#000000;fill-rule:nonzero;stroke-width:47.66669083;stroke-linecap:round;stroke-linejoin:round;stroke-miterlimit:4" />
  <path
     stroke-miterlimit="4"
     id="path2398"
     d="m 25.242201,33.363925 c -0.420301,0.72316 -1.191627,1.062704 -1.722618,0.758321 -0.530996,-0.304384 -0.620491,-1.137391 -0.199875,-1.860376 0.420304,-0.723159 1.191634,-1.062703 1.722624,-0.758321 0.530999,0.304387 0.620488,1.137394 0.199869,1.860376 z"
     inkscape:connector-curvature="0"
     style="fill:none;stroke:#ff0000;stroke-width:0.09735982;stroke-linecap:round;stroke-linejoin:round;stroke-miterlimit:4;stroke-opacity:1;stroke-dasharray:none" />
  <path
     stroke-miterlimit="4"
     id="path2412"
     d="m 19.240827,33.363925 c 0.420304,0.72316 1.191634,1.062704 1.722624,0.758321 0.530997,-0.304384 0.620486,-1.137391 0.199868,-1.860376 -0.420302,-0.723159 -1.191627,-1.062703 -1.722623,-0.758321 -0.530991,0.304387 -0.620486,1.137394 -0.199869,1.860376 z"
     inkscape:connector-curvature="0"
     style="fill:none;stroke:#ff0000;stroke-width:0.09735982;stroke-linecap:round;stroke-linejoin:round;stroke-miterlimit:4;stroke-opacity:1;stroke-dasharray:none" />
  <path
     stroke-miterlimit="4"
     id="path3181"
     d="m 10.010256,10.962861 c -0.6049004,-0.06288 -1.1508385,0.37125 -1.2141682,0.97184 -0.010126,0.09605 -0.00356,0.190158 0.010658,0.281344 -0.5099108,0.04961 -0.9347628,0.452462 -0.9901762,0.977975 -0.06333,0.600601 0.3802129,1.137581 0.9851125,1.20046 0.1379657,0.01434 0.2686808,3.89e-4 0.395195,-0.03327 -0.031144,0.57762 0.3988316,1.088046 0.9847829,1.148958 0.60491,0.06287 1.145742,-0.377504 1.209072,-0.978105 0.01583,-0.150143 10e-4,-0.297232 -0.04073,-0.433163 0.471622,-0.0829 0.855679,-0.467258 0.908021,-0.963634 0.06332,-0.600601 -0.380213,-1.13758 -0.985112,-1.200459 -0.09652,-0.01003 -0.191125,-0.0091 -0.282769,0.0049 -0.04998,-0.506275 -0.450597,-0.921851 -0.979887,-0.976863 z m 0.05371,2.167379 c 0.0073,0.07407 0.0189,0.146355 0.0406,0.215822 -0.03164,0.0056 -0.0634,0.01059 -0.09414,0.01881 0.0042,-0.07748 0.0014,-0.155786 -0.01033,-0.22983 0.02097,-0.002 0.04322,-0.0016 0.06387,-0.0048 z"
     inkscape:connector-curvature="0"
     style="fill:#ffffff;fill-opacity:1;fill-rule:nonzero;stroke:#000000;stroke-width:0.70866142;stroke-linecap:round;stroke-linejoin:round;stroke-miterlimit:4;stroke-dasharray:none" />
  <path
     stroke-miterlimit="4"
     id="path3329-1"
     d="m 21.355146,44.225485 c 0,0.441065 -0.17916,0.775389 -0.503086,1.028776 -0.323927,0.253388 -0.792621,0.425836 -1.37169,0.543153 -0.579069,0.117315 -1.268513,0.179498 -2.033938,0.212351 -0.765426,0.03285 -1.606834,0.03638 -2.489833,0.03638 -0.883,0 -1.724409,0.0084 -2.489836,-0.0095 -0.765428,-0.01793 -1.454871,-0.06221 -2.033941,-0.167592 C 9.8537543,45.763652 9.38506,45.59717 9.0611332,45.334831 8.7372069,45.072493 8.5580477,44.714297 8.5580477,44.225485 c 0,-0.859543 0.1791592,-1.678599 0.5030855,-2.423693 C 9.38506,41.056698 9.4392587,40.7503 9.7991578,40.217924"
     inkscape:connector-curvature="0"
     style="fill:none;stroke:#ff0000;stroke-width:0.41523722;stroke-linecap:round;stroke-linejoin:round;stroke-miterlimit:4;stroke-opacity:1"
     sodipodi:nodetypes="csssssssssc" />
  <path
     stroke-miterlimit="4"
     id="path3329-1-7"
     d="m 23.315949,44.24927 c 0,0.441065 0.17916,0.775389 0.503086,1.028776 0.323927,0.253388 0.792621,0.425836 1.37169,0.543153 0.579069,0.117315 1.268513,0.179498 2.033938,0.212351 0.765427,0.03286 1.606834,0.03638 2.489833,0.03638 0.883001,0 1.724409,0.0084 2.489836,-0.0095 0.765428,-0.01793 1.454871,-0.06221 2.033941,-0.167592 0.579068,-0.105379 1.047762,-0.271861 1.371689,-0.5342 0.323927,-0.262338 0.503085,-0.620534 0.503085,-1.109346 0,-0.859543 -0.179158,-1.678599 -0.503085,-2.423693 -0.323927,-0.745094 -0.269475,-1.053359 -0.817233,-1.742284"
     inkscape:connector-curvature="0"
     style="fill:none;stroke:#ff0000;stroke-width:0.41523722;stroke-linecap:round;stroke-linejoin:round;stroke-miterlimit:4;stroke-opacity:1"
     sodipodi:nodetypes="csssssssssc" />
  <path
     stroke-miterlimit="4"
     id="path2383"
     d="M 9.8945221,40.1719 C 8.7237144,39.386357 7.6331472,38.491871 6.6375747,37.503095 5.6420021,36.514319 4.7414243,35.431252 3.9505954,34.26855 3.1597665,33.105847 2.4786865,31.863508 1.9221097,30.556186 1.3655328,29.248865 0.93345919,27.87656 0.64064294,26.453926 0.34782669,25.031292 0.19426784,23.558328 0.19472064,22.049689 0.19426783,20.54105 0.34782667,19.068087 0.64064291,17.645453 0.93345916,16.222819 1.3655328,14.850515 1.9221096,13.543193 2.4786864,12.235872 3.1597664,10.993533 3.9505953,9.8308312 4.7414243,8.668129 5.6420021,7.5850632 6.6375746,6.5962874 7.6331472,5.6075115 8.7237144,4.7130256 9.8945221,3.9274832 11.06533,3.1419407 12.316378,2.4653417 13.632912,1.9123397 c 1.316535,-0.553002 2.698555,-0.98240699 4.131308,-1.27356151 1.432752,-0.29115453 2.916237,-0.44405855 4.435699,-0.44405855 1.519462,0 3.002947,0.15290402 4.4357,0.44405855 1.432752,0.29115452 2.814773,0.72055951 4.131307,1.27356151 1.316534,0.553002 2.567582,1.229601 3.73839,2.0151435 1.170807,0.7855424 2.261374,1.6800283 3.256947,2.6688042 0.995572,0.9887758 1.89615,2.0718416 2.686978,3.2345438 0.790829,1.1627018 1.471909,2.4050408 2.028486,3.7123618 0.556577,1.307322 0.98865,2.679626 1.281467,4.10226 0.292816,1.422634 0.446375,2.895597 0.445923,4.404236 4.5e-4,1.508639 -0.153111,2.981603 -0.445929,4.404237 -0.292817,1.422634 -0.724892,2.794939 -1.281469,4.10226 -0.556577,1.307322 -1.237657,2.549661 -2.028486,3.712364 -0.790829,1.162702 -1.691406,2.245769 -2.686977,3.234545 -0.995572,0.988776 -1.89828,1.726713 -3.069086,2.512256 m -11.408277,3.934543 c 0,0 0.02782,-0.03233 -1.084974,-0.04523 -0.986593,-0.01144 -0.397112,0.02329 -0.827949,0.04523"
     inkscape:connector-curvature="0"
     style="fill:none;stroke:#ff0000;stroke-width:0.38943928;stroke-linecap:round;stroke-linejoin:round;stroke-miterlimit:4;stroke-opacity:1"
     sodipodi:nodetypes="csssscssssssssssssssscssssccsc" />
  <path
     stroke-miterlimit="4"
     id="path3172-2"
     d="m 69.12892,44.210214 c 0,1.654654 2.688458,1.707546 6.001019,1.707546 3.312562,0 6.00102,0.126223 6.00102,-1.707546 0,-3.224563 -2.688458,-5.841604 -6.00102,-5.841604 -3.312561,0 -6.001019,2.617041 -6.001019,5.841604 z"
     inkscape:connector-curvature="0"
     style="fill:#ffffff;fill-opacity:1;fill-rule:nonzero;stroke:#000000;stroke-width:0.5841589;stroke-linecap:round;stroke-linejoin:round;stroke-miterlimit:4;stroke-dasharray:none" />
  <path
     stroke-miterlimit="4"
     id="path3329-0"
     d="m 66.379515,44.210214 c 0,1.654654 -2.688458,1.707546 -6.001017,1.707546 -3.312564,0 -6.001023,0.126223 -6.001023,-1.707546 0,-3.224563 2.688459,-5.841604 6.001023,-5.841604 3.312559,0 6.001017,2.617041 6.001017,5.841604 z"
     inkscape:connector-curvature="0"
     style="fill:#ffffff;fill-opacity:1;fill-rule:nonzero;stroke:#000000;stroke-width:0.5841589;stroke-linecap:round;stroke-linejoin:round;stroke-miterlimit:4;stroke-dasharray:none" />
  <path
     stroke-miterlimit="4"
     id="path3331-1"
     d="m 58.070416,45.808377 c 0,-2.979138 1.73106,-4.81246 1.73106,-4.81246 0,0 -0.692426,2.52081 -0.577022,4.81246 l -1.154038,0 z"
     inkscape:connector-curvature="0"
     style="fill:#000000;fill-opacity:1;fill-rule:evenodd;stroke:#000000;stroke-width:0.38943928;stroke-linejoin:round;stroke-miterlimit:4" />
  <path
     stroke-miterlimit="4"
     id="path3155-6"
     d="m 67.141351,9.1057628 c -5.523308,0.111138 -9.336819,2.1210662 -11.663767,5.2329262 -4.411503,-0.471017 -8.077559,4.3001 -8.077559,4.3001 0,0 3.463132,1.719376 5.877712,0.27871 -0.439828,1.585664 -0.653079,3.295554 -0.653079,5.079351 0,8.222428 10.28896,14.896774 15.003639,14.896774 4.897703,0 15.003639,-6.674346 15.003639,-14.896774 0,-1.783797 -0.213364,-3.493687 -0.653079,-5.079351 2.414585,1.440666 5.871985,-0.27871 5.871985,-0.27871 0,0 -3.661134,-4.769619 -8.071833,-4.3001 -2.394466,-3.20255 -6.362627,-5.2329262 -12.150712,-5.2329262 -0.163881,0 -0.325975,-0.00324 -0.486946,0 z"
     inkscape:connector-curvature="0"
     style="fill:#000000;fill-opacity:1;fill-rule:nonzero;stroke:#000000;stroke-width:0.38943928;stroke-linecap:round;stroke-linejoin:round;stroke-miterlimit:4" />
  <path
     stroke-miterlimit="4"
     id="path3174-4"
     d="m 77.438021,45.808377 c 0,-2.979138 -1.731061,-4.81246 -1.731061,-4.81246 0,0 0.692423,2.52081 0.577023,4.81246 l 1.154038,0 z"
     inkscape:connector-curvature="0"
     style="fill:#000000;fill-opacity:1;fill-rule:evenodd;stroke:#000000;stroke-width:0.38943928;stroke-linejoin:round;stroke-miterlimit:4" />
  <path
     stroke-miterlimit="4"
     id="path3157-0"
     d="m 66.963938,21.815128 c 6.82e-4,2.278628 -1.859571,4.126185 -4.154547,4.126185 -2.294981,0 -4.15524,-1.847557 -4.154553,-4.126185 -6.81e-4,-2.27864 1.859572,-4.126195 4.154553,-4.126195 2.294976,0 4.155231,1.847555 4.154547,4.126195 z"
     inkscape:connector-curvature="0"
     style="fill:#ffffff;fill-rule:nonzero;stroke:#000000;stroke-width:0.38943928;stroke-linecap:round;stroke-linejoin:round;stroke-miterlimit:4" />
  <path
     stroke-miterlimit="4"
     id="path3159-6"
     d="m 76.630836,21.815128 c 6.81e-4,2.278628 -1.859573,4.126185 -4.154553,4.126185 -2.294982,0 -4.155236,-1.847557 -4.154554,-4.126185 -6.81e-4,-2.27864 1.859572,-4.126195 4.154554,-4.126195 2.29498,0 4.155233,1.847555 4.154553,4.126195 z"
     inkscape:connector-curvature="0"
     style="fill:#ffffff;fill-rule:nonzero;stroke:#000000;stroke-width:0.38943928;stroke-linecap:round;stroke-linejoin:round;stroke-miterlimit:4" />
  <path
     stroke-miterlimit="4"
     id="path3161-1"
     d="m 72.937902,22.543186 c 1.95e-4,0.759544 -0.619861,1.3754 -1.384852,1.3754 -0.764992,0 -1.385081,-0.615856 -1.384852,-1.3754 -1.95e-4,-0.759542 0.61986,-1.375397 1.384852,-1.375397 0.764991,0 1.385081,0.615855 1.384852,1.375398 z"
     inkscape:connector-curvature="0"
     style="fill:#000000;fill-rule:nonzero;stroke-width:47.66669083;stroke-linecap:round;stroke-linejoin:round;stroke-miterlimit:4" />
  <path
     stroke-miterlimit="4"
     id="path3163-8"
     d="m 65.232878,22.543186 c 1.95e-4,0.759544 -0.619859,1.3754 -1.38485,1.3754 -0.764993,0 -1.385081,-0.615856 -1.384852,-1.3754 -1.95e-4,-0.759542 0.619859,-1.375397 1.384852,-1.375397 0.764991,0 1.385079,0.615855 1.38485,1.375398 z"
     inkscape:connector-curvature="0"
     style="fill:#000000;fill-rule:nonzero;stroke-width:47.66669083;stroke-linecap:round;stroke-linejoin:round;stroke-miterlimit:4" />
  <path
     stroke-miterlimit="4"
     id="path2398-9"
     d="m 70.671591,33.57899 c -0.420301,0.72316 -1.191627,1.062704 -1.722618,0.758321 -0.530996,-0.304384 -0.620491,-1.137391 -0.199875,-1.860376 0.420304,-0.723159 1.191634,-1.062703 1.722624,-0.758321 0.530999,0.304387 0.620488,1.137394 0.199869,1.860376 z"
     inkscape:connector-curvature="0"
     style="fill:none;stroke:#ff0000;stroke-width:0.09735982;stroke-linecap:round;stroke-linejoin:round;stroke-miterlimit:4;stroke-opacity:1;stroke-dasharray:none" />
  <path
     stroke-miterlimit="4"
     id="path2412-8"
     d="m 64.670217,33.57899 c 0.420304,0.72316 1.191634,1.062704 1.722624,0.758321 0.530997,-0.304384 0.620486,-1.137391 0.199868,-1.860376 -0.420302,-0.723159 -1.191627,-1.062703 -1.722623,-0.758321 -0.530991,0.304387 -0.620486,1.137394 -0.199869,1.860376 z"
     inkscape:connector-curvature="0"
     style="fill:none;stroke:#ff0000;stroke-width:0.09735982;stroke-linecap:round;stroke-linejoin:round;stroke-miterlimit:4;stroke-opacity:1;stroke-dasharray:none" />
  <path
     stroke-miterlimit="4"
     id="path3181-4"
     d="m 55.439646,11.177926 c -0.6049,-0.06288 -1.150839,0.37125 -1.214168,0.97184 -0.01013,0.09605 -0.0036,0.190158 0.01066,0.281344 -0.509911,0.04961 -0.934763,0.452462 -0.990176,0.977975 -0.06333,0.600601 0.380212,1.137581 0.985112,1.20046 0.137966,0.01434 0.268681,3.89e-4 0.395195,-0.03327 -0.03114,0.57762 0.398832,1.088046 0.984783,1.148958 0.60491,0.06287 1.145742,-0.377504 1.209072,-0.978105 0.01583,-0.150143 0.001,-0.297232 -0.04073,-0.433163 0.471622,-0.0829 0.855679,-0.467258 0.908021,-0.963634 0.06332,-0.600601 -0.380213,-1.13758 -0.985112,-1.200459 -0.09652,-0.01003 -0.191125,-0.0091 -0.282769,0.0049 -0.04998,-0.506275 -0.450597,-0.921851 -0.979887,-0.976863 z m 0.05371,2.167379 c 0.0073,0.07407 0.0189,0.146355 0.0406,0.215822 -0.03164,0.0056 -0.0634,0.01059 -0.09414,0.01881 0.0042,-0.07748 0.0014,-0.155786 -0.01033,-0.22983 0.02097,-0.002 0.04322,-0.0016 0.06387,-0.0048 z"
     inkscape:connector-curvature="0"
     style="fill:#ffffff;fill-opacity:1;fill-rule:nonzero;stroke:#000000;stroke-width:0.70866142;stroke-linecap:round;stroke-linejoin:round;stroke-miterlimit:4;stroke-dasharray:none" />
  <path
     stroke-miterlimit="4"
     id="path3329-1-1"
     d="m 66.784536,44.44055 c 0,0.441065 -0.17916,0.775389 -0.503086,1.028776 -0.323927,0.253388 -0.792621,0.425836 -1.37169,0.543153 -0.579069,0.117315 -1.268513,0.179498 -2.033938,0.212351 -0.765426,0.03285 -1.606834,0.03638 -2.489833,0.03638 -0.883,0 -1.724409,0.0084 -2.489836,-0.0095 -0.765428,-0.01793 -1.454871,-0.06221 -2.033941,-0.167592 -0.579068,-0.105401 -1.047762,-0.271883 -1.371689,-0.534222 -0.323926,-0.262338 -0.503085,-0.620534 -0.503085,-1.109346 0,-0.859543 0.179159,-1.678599 0.503085,-2.423693 0.323927,-0.745094 0.378126,-1.051492 0.738025,-1.583868"
     inkscape:connector-curvature="0"
     style="fill:none;stroke:#ff0000;stroke-width:0.41523722;stroke-linecap:round;stroke-linejoin:round;stroke-miterlimit:4;stroke-opacity:1"
     sodipodi:nodetypes="csssssssssc" />
  <path
     stroke-miterlimit="4"
     id="path3329-1-7-4"
     d="m 68.745339,44.464335 c 0,0.441065 0.17916,0.775389 0.503086,1.028776 0.323927,0.253388 0.792621,0.425836 1.37169,0.543153 0.579069,0.117315 1.268513,0.179498 2.033938,0.212351 0.765427,0.03286 1.606834,0.03638 2.489833,0.03638 0.883001,0 1.724409,0.0084 2.489836,-0.0095 0.765428,-0.01793 1.454871,-0.06221 2.033941,-0.167592 0.579068,-0.105379 1.047762,-0.271861 1.371689,-0.5342 0.323927,-0.262338 0.503085,-0.620534 0.503085,-1.109346 0,-0.859543 -0.179158,-1.678599 -0.503085,-2.423693 -0.323927,-0.745094 -0.269475,-1.053359 -0.817233,-1.742284"
     inkscape:connector-curvature="0"
     style="fill:none;stroke:#ff0000;stroke-width:0.41523722;stroke-linecap:round;stroke-linejoin:round;stroke-miterlimit:4;stroke-opacity:1"
     sodipodi:nodetypes="csssssssssc" />
  <path
     stroke-miterlimit="4"
     id="path2383-3"
     d="m 55.323912,40.386965 c -1.170808,-0.785543 -2.261375,-1.680029 -3.256947,-2.668805 -0.995573,-0.988776 -1.896151,-2.071843 -2.68698,-3.234545 -0.790828,-1.162703 -1.471909,-2.405042 -2.028485,-3.712364 -0.556577,-1.307321 -0.988651,-2.679626 -1.281467,-4.10226 -0.292816,-1.422634 -0.446375,-2.895598 -0.445922,-4.404237 -4.53e-4,-1.508639 0.153106,-2.981602 0.445922,-4.404236 0.292816,-1.422634 0.72489,-2.794938 1.281467,-4.10226 0.556576,-1.307321 1.237656,-2.54966 2.028485,-3.712362 0.790829,-1.1627024 1.691407,-2.2457682 2.68698,-3.234544 0.995572,-0.9887759 2.086139,-1.8832618 3.256947,-2.6688042 1.170808,-0.7855425 2.421856,-1.4621415 3.73839,-2.0151435 1.316535,-0.553002 2.698555,-0.982407 4.131308,-1.27356155 1.432752,-0.29115453 2.916237,-0.44405855 4.435699,-0.44405855 1.519462,0 3.002947,0.15290402 4.4357,0.44405855 1.432752,0.29115455 2.814773,0.72055955 4.131307,1.27356155 1.316534,0.553002 2.567582,1.229601 3.73839,2.0151435 1.170807,0.7855424 2.261374,1.6800283 3.256947,2.6688042 0.995572,0.9887758 1.89615,2.0718416 2.686978,3.234544 0.790829,1.162702 1.471909,2.405041 2.028486,3.712362 0.556577,1.307322 0.98865,2.679626 1.281467,4.10226 0.292816,1.422634 0.446375,2.895597 0.445923,4.404236 4.5e-4,1.508639 -0.153111,2.981603 -0.445929,4.404237 -0.292817,1.422634 -0.724892,2.794939 -1.281469,4.10226 -0.556577,1.307322 -1.237657,2.549661 -2.028486,3.712364 -0.790829,1.162702 -1.691406,2.245769 -2.686977,3.234545 -0.995572,0.988776 -1.89828,1.726713 -3.069086,2.512256 m -11.408277,3.934543 c 0,0 0.02782,-0.03233 -1.084974,-0.04523 -0.986593,-0.01144 -0.397112,0.02329 -0.827949,0.04523"
     inkscape:connector-curvature="0"
     style="fill:none;stroke:#ff0000;stroke-width:0.38943928;stroke-linecap:round;stroke-linejoin:round;stroke-miterlimit:4;stroke-opacity:1"
     sodipodi:nodetypes="csssscssssssssssssssscssssccsc" />
</svg>
