<?xml version="1.0" encoding="UTF-8" standalone="no"?>
<!-- Created with Inkscape (http://www.inkscape.org/) -->

<svg
   xmlns:dc="http://purl.org/dc/elements/1.1/"
   xmlns:cc="http://creativecommons.org/ns#"
   xmlns:rdf="http://www.w3.org/1999/02/22-rdf-syntax-ns#"
   xmlns:svg="http://www.w3.org/2000/svg"
   xmlns="http://www.w3.org/2000/svg"
   xmlns:sodipodi="http://sodipodi.sourceforge.net/DTD/sodipodi-0.dtd"
   xmlns:inkscape="http://www.inkscape.org/namespaces/inkscape"
   version="1.0"
   width="177.16534"
   height="88.582672"
   id="svg2"
   inkscape:version="0.48.5 r10040"
   sodipodi:docname="Penrose-driehoek_back.svg">
  <metadata
     id="metadata10">
    <rdf:RDF>
      <cc:Work
         rdf:about="">
        <dc:format>image/svg+xml</dc:format>
        <dc:type
           rdf:resource="http://purl.org/dc/dcmitype/StillImage" />
        <dc:title />
      </cc:Work>
    </rdf:RDF>
  </metadata>
  <sodipodi:namedview
     pagecolor="#ffffff"
     bordercolor="#666666"
     borderopacity="1"
     objecttolerance="10"
     gridtolerance="10"
     guidetolerance="10"
     inkscape:pageopacity="0"
     inkscape:pageshadow="2"
     inkscape:window-width="1155"
     inkscape:window-height="668"
     id="namedview8"
     showgrid="false"
     inkscape:document-units="cm"
     units="cm"
     fit-margin-top="0"
     fit-margin-left="0"
     fit-margin-right="0"
     fit-margin-bottom="0"
     inkscape:zoom="4.5796759"
     inkscape:cx="67.916087"
     inkscape:cy="48.097928"
     inkscape:window-x="735"
     inkscape:window-y="291"
     inkscape:window-maximized="0"
     inkscape:current-layer="svg2" />
  <defs
     id="defs4" />
  <path
     inkscape:connector-curvature="0"
     id="path3214"
     style="fill:#969696;fill-opacity:1;stroke:#000000;stroke-width:1.77165353;stroke-linecap:butt;stroke-linejoin:round;stroke-miterlimit:4;stroke-opacity:1;stroke-dasharray:none"
     d="m 131.90597,11.429581 -25.97541,45.136046 28.87476,0.0157 5.53848,9.664346 -51.126399,0.0078 31.189829,-54.852102 11.49874,0.02821 z" />
  <path
     inkscape:connector-curvature="0"
     id="path4185"
     style="fill:none;stroke:#000000;stroke-width:1.77165353;stroke-linecap:butt;stroke-linejoin:round;stroke-miterlimit:4;stroke-opacity:1;stroke-dasharray:none"
     d="m 131.90739,11.425874 30.85212,54.818695 -5.65639,9.940053 -25.59521,-45.282459 -14.28241,25.678466 -11.31279,0 25.99468,-45.154755 z" />
  <path
     inkscape:connector-curvature="0"
     id="path5156"
     style="fill:#000000;fill-opacity:1;stroke:#000000;stroke-width:1.77165353000000000;stroke-linecap:butt;stroke-linejoin:round;stroke-miterlimit:4;stroke-opacity:1;stroke-dasharray:none"
     d="m 131.502,30.910704 -5.64032,10.143452 14.5068,25.198867 -51.154004,0.02591 5.385432,10.181802 L 157.10082,76.18099 131.502,30.910704 z" />
  <path
     style="fill:none;stroke:#ffff00;stroke-width:0.13831878px;stroke-linecap:butt;stroke-linejoin:miter;stroke-opacity:1"
     d="m 125.87667,42.796124 -6.7642,12.762179 14.02417,0.162544 z"
     id="path2987"
     inkscape:connector-curvature="0"
     sodipodi:nodetypes="cccc" />
  <path
     style="fill:none;stroke:#ffff00;stroke-width:0.13831878px;stroke-linecap:butt;stroke-linejoin:miter;stroke-opacity:1"
     d="m 129.39435,10.538243 c -2.05357,0.02808 -4.10801,0.02687 -6.16127,0.0577 m -7.02319,6.172471 c -9.20978,16.143429 -18.970103,33.276958 -28.167332,49.427649 1.795524,3.413621 3.981198,7.802616 5.776724,11.216236 20.884788,-0.06154 43.330168,-0.51306 64.214948,-0.574749 1.88011,-3.325196 4.15038,-7.235617 6.03049,-10.560813 -9.00439,-16.034535 -18.00877,-32.069069 -27.01316,-48.103604 l -0.28294,-0.541424"
     id="path3757"
     inkscape:connector-curvature="0"
     sodipodi:nodetypes="ccccccccc" />
  <path
     sodipodi:type="arc"
     style="fill:none;stroke:#ffff00;stroke-width:0.30000001;stroke-linecap:round;stroke-linejoin:round;stroke-miterlimit:4;stroke-opacity:1;stroke-dasharray:none"
     id="path3771"
     sodipodi:cx="31.703547"
     sodipodi:cy="0.6126951"
     sodipodi:rx="9.0870037"
     sodipodi:ry="8.8556147"
     d="M 23.108257,3.4862765 A 9.0870037,8.8556147 0 1 1 40.530021,2.7180041"
     sodipodi:start="2.8111174"
     sodipodi:end="6.5232209"
     sodipodi:open="true"
     transform="matrix(-1.1620065,0,0,1.1710305,163.39807,13.476673)" />
  <path
     sodipodi:type="arc"
     style="fill:none;stroke:#ffff00;stroke-width:0.30000001;stroke-linecap:round;stroke-linejoin:round;stroke-miterlimit:4;stroke-opacity:1;stroke-dasharray:none"
     id="path3771-1"
     sodipodi:cx="31.703547"
     sodipodi:cy="0.6126951"
     sodipodi:rx="9.0870037"
     sodipodi:ry="11.574686"
     d="M 23.405707,-4.1052998 A 9.0870037,11.574686 0 0 1 39.939512,-4.2780396"
     sodipodi:start="3.5614314"
     sodipodi:end="5.8469425"
     sodipodi:open="true"
     transform="matrix(-0.34194172,0,0,0.34194172,137.19676,11.548138)" />
  <path
     inkscape:connector-curvature="0"
     id="path3214-7"
     style="fill:#969696;fill-opacity:1;stroke:#000000;stroke-width:1.77165353;stroke-linecap:butt;stroke-linejoin:round;stroke-miterlimit:4;stroke-opacity:1;stroke-dasharray:none"
     d="m 49.016944,12.755189 -25.975412,45.136046 28.874762,0.0157 5.538483,9.664346 -51.126403,0.0078 31.189827,-54.852102 11.498743,0.02821 z" />
  <path
     inkscape:connector-curvature="0"
     id="path4185-3"
     style="fill:none;stroke:#000000;stroke-width:1.77165353;stroke-linecap:butt;stroke-linejoin:round;stroke-miterlimit:4;stroke-opacity:1;stroke-dasharray:none"
     d="M 49.018366,12.751482 79.870487,67.570177 74.214089,77.51023 48.618884,32.227771 34.336477,57.906237 l -11.312797,0 25.994686,-45.154755 z" />
  <path
     inkscape:connector-curvature="0"
     id="path5156-7"
     style="fill:#000000;fill-opacity:1;stroke:#000000;stroke-width:1.77165353000000000;stroke-linecap:butt;stroke-linejoin:round;stroke-miterlimit:4;stroke-opacity:1;stroke-dasharray:none"
     d="M 48.612977,32.236312 42.972656,42.379764 57.479453,67.578631 6.325449,67.60454 11.710881,77.786342 74.21179,77.506598 48.612977,32.236312 z" />
  <path
     style="fill:none;stroke:#ffff00;stroke-width:0.13831878px;stroke-linecap:butt;stroke-linejoin:miter;stroke-opacity:1"
     d="m 42.987639,44.121732 -6.764194,12.762179 14.024166,0.162544 z"
     id="path2987-2"
     inkscape:connector-curvature="0"
     sodipodi:nodetypes="cccc" />
  <path
     style="fill:none;stroke:#ffff00;stroke-width:0.13831878px;stroke-linecap:butt;stroke-linejoin:miter;stroke-opacity:1"
     d="m 46.505327,11.863851 c -2.053569,0.02808 -4.108009,0.02687 -6.161277,0.0577 m -7.023191,6.172471 C 24.111086,34.237451 14.35076,51.37098 5.153531,67.521671 c 1.795524,3.413621 3.981198,7.802616 5.776724,11.216236 20.884784,-0.06154 43.330168,-0.51306 64.21495,-0.574749 1.880113,-3.325196 4.150376,-7.235617 6.030488,-10.560813 C 72.171307,51.56781 63.16692,35.533276 54.162535,19.498741 l -0.282942,-0.541424"
     id="path3757-6"
     inkscape:connector-curvature="0"
     sodipodi:nodetypes="ccccccccc" />
  <path
     sodipodi:type="arc"
     style="fill:none;stroke:#ffff00;stroke-width:0.30000001;stroke-linecap:round;stroke-linejoin:round;stroke-miterlimit:4;stroke-opacity:1;stroke-dasharray:none"
     id="path3771-0"
     sodipodi:cx="31.703547"
     sodipodi:cy="0.6126951"
     sodipodi:rx="9.0870037"
     sodipodi:ry="8.8556147"
     d="M 23.108257,3.4862765 A 9.0870037,8.8556147 0 1 1 40.530021,2.7180041"
     sodipodi:start="2.8111174"
     sodipodi:end="6.5232209"
     sodipodi:open="true"
     transform="matrix(-1.1620065,0,0,1.1710305,80.509046,14.802281)" />
  <path
     sodipodi:type="arc"
     style="fill:none;stroke:#ffff00;stroke-width:0.30000001;stroke-linecap:round;stroke-linejoin:round;stroke-miterlimit:4;stroke-opacity:1;stroke-dasharray:none"
     id="path3771-1-1"
     sodipodi:cx="31.703547"
     sodipodi:cy="0.6126951"
     sodipodi:rx="9.0870037"
     sodipodi:ry="11.574686"
     d="M 23.405707,-4.1052998 A 9.0870037,11.574686 0 0 1 39.939512,-4.2780396"
     sodipodi:start="3.5614314"
     sodipodi:end="5.8469425"
     sodipodi:open="true"
     transform="matrix(-0.34194172,0,0,0.34194172,54.307731,12.873746)" />
  <path
     style="fill:none;stroke:#00ffff;stroke-width:0.625;stroke-linecap:butt;stroke-linejoin:miter;stroke-miterlimit:4;stroke-opacity:1;stroke-dasharray:none"
     d="M 0.28346457,0.28345952 5.399798,4.9173578"
     id="path2996"
     inkscape:connector-curvature="0"
     sodipodi:nodetypes="cc" />
</svg>
