<?xml version="1.0" encoding="UTF-8" standalone="no"?>
<!-- Created with Inkscape (http://www.inkscape.org/) -->

<svg
   xmlns:dc="http://purl.org/dc/elements/1.1/"
   xmlns:cc="http://creativecommons.org/ns#"
   xmlns:rdf="http://www.w3.org/1999/02/22-rdf-syntax-ns#"
   xmlns:svg="http://www.w3.org/2000/svg"
   xmlns="http://www.w3.org/2000/svg"
   xmlns:sodipodi="http://sodipodi.sourceforge.net/DTD/sodipodi-0.dtd"
   xmlns:inkscape="http://www.inkscape.org/namespaces/inkscape"
   width="141.73228"
   height="70.866142"
   id="svg2"
   version="1.1"
   inkscape:version="0.48.5 r10040"
   sodipodi:docname="Reutersvards_square_back.svg">
  <defs
     id="defs4">
    <inkscape:perspective
       sodipodi:type="inkscape:persp3d"
       inkscape:vp_x="156.03344 : 236.1142 : 1"
       inkscape:vp_y="0 : 1000 : 0"
       inkscape:vp_z="824.09448 : 388.18109 : 1"
       inkscape:persp3d-origin="452.04724 : 212.78739 : 1"
       id="perspective3850" />
  </defs>
  <sodipodi:namedview
     id="base"
     pagecolor="#ffffff"
     bordercolor="#666666"
     borderopacity="1.0"
     inkscape:pageopacity="0.0"
     inkscape:pageshadow="2"
     inkscape:zoom="7.6833012"
     inkscape:cx="88.407434"
     inkscape:cy="29.774859"
     inkscape:document-units="cm"
     inkscape:current-layer="layer1"
     showgrid="false"
     inkscape:window-width="1382"
     inkscape:window-height="979"
     inkscape:window-x="445"
     inkscape:window-y="77"
     inkscape:window-maximized="0"
     units="cm" />
  <metadata
     id="metadata7">
    <rdf:RDF>
      <cc:Work
         rdf:about="">
        <dc:format>image/svg+xml</dc:format>
        <dc:type
           rdf:resource="http://purl.org/dc/dcmitype/StillImage" />
        <dc:title></dc:title>
      </cc:Work>
    </rdf:RDF>
  </metadata>
  <g
     inkscape:label="Layer 1"
     inkscape:groupmode="layer"
     id="layer1"
     transform="translate(0,-981.49467)">
    <path
       style="fill:none;stroke:#00ffff;stroke-width:0.625;stroke-linecap:butt;stroke-linejoin:miter;stroke-miterlimit:4;stroke-opacity:1;stroke-dasharray:none"
       d="m 141.51741,981.73498 -4.80385,4.54928"
       id="path2996"
       inkscape:connector-curvature="0"
       sodipodi:nodetypes="cc" />
    <path
       style="fill:none;stroke:#00ffff;stroke-width:0.625;stroke-linecap:butt;stroke-linejoin:miter;stroke-miterlimit:4;stroke-opacity:1;stroke-dasharray:none"
       d="m 0.23572,981.73681 4.80384,4.54928"
       id="path2996-9"
       inkscape:connector-curvature="0"
       sodipodi:nodetypes="cc" />
    <path
       inkscape:connector-curvature="0"
       id="path4724"
       style="fill:#ffffff;fill-opacity:1;fill-rule:evenodd;stroke:#000000;stroke-width:0.3856518;stroke-linecap:round;stroke-linejoin:round;stroke-opacity:1"
       d="m 79.439738,995.0949 -2.708689,-8.38067 -5.82423,6.44925 2.708824,8.38052 z" />
    <path
       inkscape:connector-curvature="0"
       id="path4726"
       style="fill:#000000;fill-opacity:1;fill-rule:evenodd;stroke:#000000;stroke-width:0.3856518;stroke-linecap:round;stroke-linejoin:round;stroke-opacity:1"
       d="m 87.603688,996.64453 -3.845713,-0.6248 -4.318237,-0.92483 -2.912452,3.22425 -2.911643,3.22485 4.318178,0.9249 2.951602,-3.20301 3.751193,0.85111 z"
       sodipodi:nodetypes="ccccccccc" />
    <path
       sodipodi:nodetypes="ccccc"
       inkscape:connector-curvature="0"
       id="path4728"
       style="fill:#7d7d7d;fill-opacity:1;fill-rule:evenodd;stroke:#000000;stroke-width:0.3856518;stroke-linecap:round;stroke-linejoin:round;stroke-opacity:1"
       d="m 87.972754,996.65956 -2.60529,-8.09558 -8.636415,-1.84975 2.708689,8.38067 z" />
    <path
       inkscape:connector-curvature="0"
       id="path4724-4"
       style="fill:#ffffff;fill-opacity:1;fill-rule:evenodd;stroke:#000000;stroke-width:0.3856518;stroke-linecap:round;stroke-linejoin:round;stroke-opacity:1"
       d="m 92.302378,997.38319 -1.354341,-4.19033 -1.354348,-4.19034 -2.911778,3.225 1.246309,4.26668 -3.227394,3.6153 4.266118,0.9654 z"
       sodipodi:nodetypes="cccccccc" />
    <path
       inkscape:connector-curvature="0"
       id="path4726-9"
       style="fill:#000000;fill-opacity:1;fill-rule:evenodd;stroke:#000000;stroke-width:0.3856518;stroke-linecap:round;stroke-linejoin:round;stroke-opacity:1"
       d="m 100.93886,999.23289 -4.318245,-0.9249 -4.318237,-0.9248 -3.302664,3.67901 0.560469,0.1163 1.236576,3.5784 4.31817,0.925 2.911711,-3.225 z"
       sodipodi:nodetypes="ccccccccc" />
    <path
       inkscape:connector-curvature="0"
       id="path4728-7"
       style="fill:#7d7d7d;fill-opacity:1;fill-rule:evenodd;stroke:#000000;stroke-width:0.3856518;stroke-linecap:round;stroke-linejoin:round;stroke-opacity:1"
       d="m 100.93886,999.23289 -2.708756,-8.38062 -8.636415,-1.84975 2.708689,8.38067 z" />
    <path
       inkscape:connector-curvature="0"
       id="path4724-3"
       style="fill:#ffffff;fill-opacity:1;fill-rule:evenodd;stroke:#000000;stroke-width:0.3856518;stroke-linecap:round;stroke-linejoin:round;stroke-opacity:1"
       d="m 118.29271,1003.0349 -1.35434,-4.19041 -1.35435,-4.1903 -2.74255,3.038 1.34548,4.46451 -3.06978,3.1957 1.35146,4.1316 2.91171,-3.2249 z"
       sodipodi:nodetypes="ccccccccc" />
    <path
       inkscape:connector-curvature="0"
       id="path4726-41"
       style="fill:#000000;fill-opacity:1;fill-rule:evenodd;stroke:#000000;stroke-width:0.3856518;stroke-linecap:round;stroke-linejoin:round;stroke-opacity:1"
       d="m 126.92919,1004.8845 -4.31824,-0.9248 -4.31824,-0.9248 -2.91245,3.2242 -2.91165,3.2249 4.50299,1.0921 2.89672,-3.0825 3.98106,0.8001 z"
       sodipodi:nodetypes="ccccccccc" />
    <path
       inkscape:connector-curvature="0"
       id="path4728-9"
       style="fill:#7d7d7d;fill-opacity:1;fill-rule:evenodd;stroke:#000000;stroke-width:0.3856518;stroke-linecap:round;stroke-linejoin:round;stroke-opacity:1"
       d="m 126.92919,1004.8845 -2.70876,-8.38056 -8.63641,-1.84975 2.70869,8.38071 z" />
    <path
       inkscape:connector-curvature="0"
       id="path4724-1"
       style="fill:#ffffff;fill-opacity:1;fill-rule:evenodd;stroke:#000000;stroke-width:0.3856518;stroke-linecap:round;stroke-linejoin:round;stroke-opacity:1"
       d="m 122.57976,1015.8489 -2.70869,-8.3807 -5.82423,6.4493 2.70882,8.3805 z" />
    <path
       inkscape:connector-curvature="0"
       id="path4726-7"
       style="fill:#000000;fill-opacity:1;fill-rule:evenodd;stroke:#000000;stroke-width:0.3856518;stroke-linecap:round;stroke-linejoin:round;stroke-opacity:1"
       d="m 131.21624,1017.6986 -4.31825,-0.9249 -4.31823,-0.9248 -2.91245,3.2242 -2.91165,3.2249 4.31818,0.9249 2.85811,-3.2876 4.37174,0.9876 z"
       sodipodi:nodetypes="ccccccccc" />
    <path
       inkscape:connector-curvature="0"
       id="path4728-5"
       style="fill:#7d7d7d;fill-opacity:1;fill-rule:evenodd;stroke:#000000;stroke-width:0.3856518;stroke-linecap:round;stroke-linejoin:round;stroke-opacity:1"
       d="m 131.21624,1017.6986 -2.70876,-8.3806 -8.63641,-1.8498 2.70869,8.3807 z" />
    <path
       sodipodi:nodetypes="ccccccccc"
       inkscape:connector-curvature="0"
       id="path4724-40"
       style="fill:#ffffff;fill-opacity:1;fill-rule:evenodd;stroke:#000000;stroke-width:0.3856518;stroke-linecap:round;stroke-linejoin:round;stroke-opacity:1"
       d="m 126.6849,1028.4983 -1.35434,-4.1903 -1.35435,-4.1904 -2.91178,3.225 -2.91245,3.2243 1.38891,4.434 1.75835,0.4317 2.30327,0.455 z" />
    <path
       inkscape:connector-curvature="0"
       id="path4726-94"
       style="fill:#000000;fill-opacity:1;fill-rule:evenodd;stroke:#000000;stroke-width:0.3856518;stroke-linecap:round;stroke-linejoin:round;stroke-opacity:1"
       d="m 135.32138,1030.348 -4.31825,-0.9249 -4.31823,-0.9248 -2.91245,3.2243 0.57061,1.4441 0.89047,2.9037 2.83637,-3.052 4.06731,0.9246 z"
       sodipodi:nodetypes="ccccccccc" />
    <path
       inkscape:connector-curvature="0"
       id="path4728-4"
       style="fill:#7d7d7d;fill-opacity:1;fill-rule:evenodd;stroke:#000000;stroke-width:0.3856518;stroke-linecap:round;stroke-linejoin:round;stroke-opacity:1"
       d="m 135.32138,1030.348 -2.70876,-8.3806 -8.63641,-1.8498 2.70869,8.3807 z" />
    <path
       inkscape:connector-curvature="0"
       id="path4724-8"
       style="fill:#ffffff;fill-opacity:1;fill-rule:evenodd;stroke:#000000;stroke-width:0.3856518;stroke-linecap:round;stroke-linejoin:round;stroke-opacity:1"
       d="m 130.80732,1041.4943 -1.35434,-4.1904 -1.35435,-4.1903 -2.91178,3.225 1.50903,4.1643 -3.06705,3.2502 1.35441,4.1903 2.91171,-3.2249 z"
       sodipodi:nodetypes="ccccccccc" />
    <path
       inkscape:connector-curvature="0"
       id="path4726-6"
       style="fill:#000000;fill-opacity:1;fill-rule:evenodd;stroke:#000000;stroke-width:0.3856518;stroke-linecap:round;stroke-linejoin:round;stroke-opacity:1"
       d="m 139.4438,1043.3439 -8.63648,-1.8496 -5.8241,6.4491 8.63635,1.8498 z" />
    <path
       inkscape:connector-curvature="0"
       id="path4728-1"
       style="fill:#7d7d7d;fill-opacity:1;fill-rule:evenodd;stroke:#000000;stroke-width:0.3856518;stroke-linecap:round;stroke-linejoin:round;stroke-opacity:1"
       d="m 139.4438,1043.3439 -2.70876,-8.3805 -8.63641,-1.8498 2.70869,8.3807 z" />
    <path
       inkscape:connector-curvature="0"
       id="path4724-9"
       style="fill:#ffffff;fill-opacity:1;fill-rule:evenodd;stroke:#000000;stroke-width:0.3856518;stroke-linecap:round;stroke-linejoin:round;stroke-opacity:1"
       d="m 83.611548,1007.718 -2.708689,-8.38071 -5.82423,6.44921 2.708824,8.3806 z" />
    <path
       inkscape:connector-curvature="0"
       id="path4726-3"
       style="fill:#000000;fill-opacity:1;fill-rule:evenodd;stroke:#000000;stroke-width:0.3856518;stroke-linecap:round;stroke-linejoin:round;stroke-opacity:1"
       d="m 92.248031,1009.5676 -4.318246,-0.9248 -4.318237,-0.9248 -2.912452,3.2242 -2.911643,3.2249 3.863982,0.769 3.007877,-3.1947 4.782297,0.934 z"
       sodipodi:nodetypes="ccccccccc" />
    <path
       inkscape:connector-curvature="0"
       id="path4728-56"
       style="fill:#7d7d7d;fill-opacity:1;fill-rule:evenodd;stroke:#000000;stroke-width:0.3856518;stroke-linecap:round;stroke-linejoin:round;stroke-opacity:1"
       d="m 92.248031,1009.5676 -2.708757,-8.3806 -8.636415,-1.84971 2.708689,8.38071 z" />
    <path
       inkscape:connector-curvature="0"
       id="path4724-7"
       style="fill:#ffffff;fill-opacity:1;fill-rule:evenodd;stroke:#000000;stroke-width:0.3856518;stroke-linecap:round;stroke-linejoin:round;stroke-opacity:1"
       d="m 87.352848,1020.0381 -2.708689,-8.3807 -5.82423,6.4493 2.708824,8.3805 z" />
    <path
       inkscape:connector-curvature="0"
       id="path4726-34"
       style="fill:#000000;fill-opacity:1;fill-rule:evenodd;stroke:#000000;stroke-width:0.3856518;stroke-linecap:round;stroke-linejoin:round;stroke-opacity:1"
       d="m 93.380819,1024.6293 -0.916036,-3.4158 -5.111935,-1.1754 -2.912452,3.2243 -2.911643,3.2248 5.247114,0.979 2.484194,-2.7331 3.389344,0.7576 z"
       sodipodi:nodetypes="ccccccccc" />
    <path
       sodipodi:nodetypes="ccccccccc"
       inkscape:connector-curvature="0"
       id="path4728-3"
       style="fill:#7d7d7d;fill-opacity:1;fill-rule:evenodd;stroke:#000000;stroke-width:0.3856518;stroke-linecap:round;stroke-linejoin:round;stroke-opacity:1"
       d="m 93.963579,1019.7569 0.872744,-1.1543 -1.555749,-5.0954 -4.318245,-0.9248 -4.31817,-0.925 1.354348,4.1904 1.354341,4.1903 5.135306,1.1965 z" />
    <path
       inkscape:connector-curvature="0"
       id="path4724-87"
       style="fill:#ffffff;fill-opacity:1;fill-rule:evenodd;stroke:#000000;stroke-width:0.3856518;stroke-linecap:round;stroke-linejoin:round;stroke-opacity:1"
       d="m 92.003738,1033.1814 -2.708689,-8.3807 -5.82423,6.4493 2.708824,8.3805 z" />
    <path
       inkscape:connector-curvature="0"
       id="path4726-96"
       style="fill:#000000;fill-opacity:1;fill-rule:evenodd;stroke:#000000;stroke-width:0.3856518;stroke-linecap:round;stroke-linejoin:round;stroke-opacity:1"
       d="m 100.64022,1035.0311 -8.636482,-1.8497 -5.824095,6.4491 8.636348,1.8498 z" />
    <path
       sodipodi:nodetypes="ccccccccc"
       inkscape:connector-curvature="0"
       id="path4728-10"
       style="fill:#7d7d7d;fill-opacity:1;fill-rule:evenodd;stroke:#000000;stroke-width:0.3856518;stroke-linecap:round;stroke-linejoin:round;stroke-opacity:1"
       d="m 100.64022,1035.0311 -1.39388,-4.3111 -4.098738,-1.0403 -1.228794,-3.8689 -4.623759,-1.0101 1.354348,4.1904 1.354341,4.1903 4.318237,0.9248 z" />
    <path
       inkscape:connector-curvature="0"
       id="path4724-11"
       style="fill:#ffffff;fill-opacity:1;fill-rule:evenodd;stroke:#000000;stroke-width:0.3856518;stroke-linecap:round;stroke-linejoin:round;stroke-opacity:1"
       d="m 104.81699,1035.8426 -1.35434,-4.1903 -2.62283,-0.7152 -1.723702,-0.4318 1.504822,4.4394 -2.98244,3.1568 1.354408,4.1902 2.911712,-3.2249 z"
       sodipodi:nodetypes="ccccccccc" />
    <path
       inkscape:connector-curvature="0"
       id="path4726-40"
       style="fill:#000000;fill-opacity:1;fill-rule:evenodd;stroke:#000000;stroke-width:0.3856518;stroke-linecap:round;stroke-linejoin:round;stroke-opacity:1"
       d="m 113.45347,1037.6923 -8.63648,-1.8497 -5.824097,6.4491 8.636347,1.8498 z" />
    <path
       sodipodi:nodetypes="ccccccccc"
       inkscape:connector-curvature="0"
       id="path4728-70"
       style="fill:#7d7d7d;fill-opacity:1;fill-rule:evenodd;stroke:#000000;stroke-width:0.3856518;stroke-linecap:round;stroke-linejoin:round;stroke-opacity:1"
       d="m 113.45347,1037.6923 -1.35441,-4.1903 -1.35435,-4.1903 -4.31824,-0.9248 -1.60781,1.9529 -1.35597,1.3125 1.35434,4.1903 4.31824,0.9249 z" />
    <path
       inkscape:connector-curvature="0"
       id="path4724-30"
       style="fill:#ffffff;fill-opacity:1;fill-rule:evenodd;stroke:#000000;stroke-width:0.3856518;stroke-linecap:round;stroke-linejoin:round;stroke-opacity:1"
       d="m 117.97679,1038.4865 -1.35434,-4.1903 -1.35435,-4.1903 -3.081,3.4119 1.2463,4.2667 -2.6351,2.9609 1.35441,4.1902 2.91171,-3.2249 z"
       sodipodi:nodetypes="ccccccccc" />
    <path
       inkscape:connector-curvature="0"
       id="path4726-74"
       style="fill:#000000;fill-opacity:1;fill-rule:evenodd;stroke:#000000;stroke-width:0.3856518;stroke-linecap:round;stroke-linejoin:round;stroke-opacity:1"
       d="m 126.61327,1040.3362 -8.63648,-1.8497 -5.8241,6.4491 8.63635,1.8498 z" />
    <path
       inkscape:connector-curvature="0"
       id="path4728-8"
       style="fill:#7d7d7d;fill-opacity:1;fill-rule:evenodd;stroke:#000000;stroke-width:0.3856518;stroke-linecap:round;stroke-linejoin:round;stroke-opacity:1"
       d="m 126.61327,1040.3362 -2.70876,-8.3806 -8.63641,-1.8497 2.70869,8.3806 z" />
    <path
       inkscape:connector-curvature="0"
       id="path4724-04"
       style="fill:#ffffff;fill-opacity:1;fill-rule:evenodd;stroke:#000000;stroke-width:0.3856518;stroke-linecap:round;stroke-linejoin:round;stroke-opacity:1"
       d="m 101.01149,1023.2271 -2.708691,-8.3807 -5.82423,6.4493 2.708824,8.3805 z" />
    <path
       inkscape:connector-curvature="0"
       id="path4726-45"
       style="fill:#000000;fill-opacity:1;fill-rule:evenodd;stroke:#000000;stroke-width:0.3856518;stroke-linecap:round;stroke-linejoin:round;stroke-opacity:1"
       d="m 109.64797,1025.0768 -4.31825,-0.9249 -4.31823,-0.9248 -2.912454,3.2242 -2.911643,3.2249 4.318178,0.9249 4.055419,1.0273 3.17443,-3.3273 z"
       sodipodi:nodetypes="ccccccccc" />
    <path
       inkscape:connector-curvature="0"
       id="path4728-73"
       style="fill:#7d7d7d;fill-opacity:1;fill-rule:evenodd;stroke:#000000;stroke-width:0.3856518;stroke-linecap:round;stroke-linejoin:round;stroke-opacity:1"
       d="m 109.64797,1025.0768 -1.01828,-3.716 -4.90576,-1.1117 -1.32782,-4.5112 -4.093311,-0.8915 1.354341,4.1904 1.35435,4.1903 4.31823,0.9248 z"
       sodipodi:nodetypes="ccccccccc" />
    <path
       inkscape:connector-curvature="0"
       id="path4724-89"
       style="fill:#ffffff;fill-opacity:1;fill-rule:evenodd;stroke:#000000;stroke-width:0.3856518;stroke-linecap:round;stroke-linejoin:round;stroke-opacity:1"
       d="m 109.51956,1013.9195 -0.67717,-2.0951 -0.67717,-2.0952 -0.32775,-1.3537 -3.03288,-0.6167 -0.9055,1.0051 -1.45626,1.6121 -1.45619,1.6121 0.67717,2.0952 0.67724,2.0951 0.67718,2.0952 0.67723,2.095 1.45545,-1.6127 1.45626,-1.6122 1.4562,-1.6121 z"
       sodipodi:nodetypes="cccccccccccccccc" />
    <path
       inkscape:connector-curvature="0"
       id="path4726-63"
       style="fill:#000000;fill-opacity:1;fill-rule:evenodd;stroke:#000000;stroke-width:0.3856518;stroke-linecap:round;stroke-linejoin:round;stroke-opacity:1"
       d="m 114.93435,1016.5103 -0.60897,-1.7349 -4.80582,-0.8559 -2.91245,3.2243 -2.91165,3.2248 8.63185,1.7608 3.16561,-3.5055 z"
       sodipodi:nodetypes="cccccccc" />
    <path
       inkscape:connector-curvature="0"
       id="path4728-2"
       style="fill:#7d7d7d;fill-opacity:1;fill-rule:evenodd;stroke:#000000;stroke-width:0.3856518;stroke-linecap:round;stroke-linejoin:round;stroke-opacity:1"
       d="m 114.0452,1013.8986 3.1484,-3.4106 -4.6809,-1.0782 -1.33399,-3.9641 -0.80665,0.8593 -0.80671,0.8594 -1.19908,1.2695 -0.72308,-0.1491 1.87636,5.6347 4.8103,0.9449 z"
       sodipodi:nodetypes="ccccccccccc" />
    <path
       inkscape:connector-curvature="0"
       id="path4724-0"
       style="fill:#ffffff;fill-opacity:1;fill-rule:evenodd;stroke:#000000;stroke-width:0.3856518;stroke-linecap:round;stroke-linejoin:round;stroke-opacity:1"
       d="m 105.64409,1000.1917 -1.35434,-4.19029 -1.35435,-4.19034 -3.25023,3.59899 1.14393,4.00393 -2.542411,2.81091 1.533044,4.4157 2.911707,-3.2249 z"
       sodipodi:nodetypes="ccccccccc" />
    <path
       inkscape:connector-curvature="0"
       id="path4726-4"
       style="fill:#000000;fill-opacity:1;fill-rule:evenodd;stroke:#000000;stroke-width:0.3856518;stroke-linecap:round;stroke-linejoin:round;stroke-opacity:1"
       d="m 114.28057,1002.0414 -8.63648,-1.8497 -5.824097,6.4491 8.542847,1.7653 z"
       sodipodi:nodetypes="ccccc" />
    <path
       inkscape:connector-curvature="0"
       id="path4728-0"
       style="fill:#7d7d7d;fill-opacity:1;fill-rule:evenodd;stroke:#000000;stroke-width:0.3856518;stroke-linecap:round;stroke-linejoin:round;stroke-opacity:1"
       d="m 114.28057,1002.0414 -2.70876,-8.38058 -8.63641,-1.84975 2.70869,8.38063 z" />
    <path
       style="fill:none;stroke:#ffff00;stroke-width:1px;stroke-linecap:butt;stroke-linejoin:round;stroke-opacity:1"
       d="m 73.231419,1001.9965 3.827415,0.8489 -2.483528,2.7443 2.905392,9.0474 3.277684,0.6683 -2.566509,2.7485 2.940672,8.9208 4.783775,0.8428 -2.956579,3.2671 2.940672,8.9208 9.007376,2.1295 2.59765,-2.958 1.177924,3.6015 8.955537,1.9241 2.88188,-3.0969 1.31688,3.8857 9.04266,2.003 2.43996,-2.7838 1.27333,3.8464 9.08208,1.9594 6.30323,-7.0527 -2.68759,-8.8503 -4.16762,-0.9983 2.92544,-3.0575 -2.95309,-9.1698 -3.8627,-0.7224 2.64949,-2.7526 -3.04021,-9.2486 -4.06808,-0.6705 2.84659,-2.9704 -2.99251,-9.12625 -9.20448,-1.91169 -2.40882,2.57422 -0.83772,-3.45212 -9.45757,-1.98225 -2.886015,3.01396 -1.0161,-3.69278 -9.465846,-2.14821 -2.60179,2.875 -0.999542,-3.36086"
       id="path6410"
       inkscape:connector-curvature="0"
       sodipodi:nodetypes="cccccccccccccccccccccccccccccccccccccccc" />
    <path
       style="fill:none;stroke:#ffff00;stroke-width:1px;stroke-linecap:butt;stroke-linejoin:round;stroke-opacity:1"
       d="m 91.758644,1005.6892 1.285744,4.0952 -2.081037,2.4747 2.854496,0.5231 1.424705,4.3795 2.738777,-3.4641 3.132421,1.0915 -1.14481,-2.9376 3.47319,-3.7504 -4.151059,-0.6664 -1.225624,-3.7239 -2.649491,2.7526 z"
       id="path6412"
       inkscape:connector-curvature="0"
       sodipodi:nodetypes="ccccccccccccc" />
    <path
       style="fill:none;stroke:#ffff00;stroke-width:0.92125982;stroke-linecap:round;stroke-linejoin:round;stroke-miterlimit:4;stroke-opacity:1;stroke-dasharray:none"
       d="m 109.57681,1022.3682 0.91793,2.9878 -2.55299,2.7078 3.31064,0.5273 1.20687,3.5671 2.24093,-2.7621 3.6687,0.6156 -1.21225,-3.6441 2.66788,-2.6984 -3.58195,-0.6081 -0.88042,-3.2689 -2.47381,3.022 z"
       id="path6412-2"
       inkscape:connector-curvature="0"
       sodipodi:nodetypes="ccccccccccccc" />
    <path
       inkscape:connector-curvature="0"
       id="path4724-48"
       style="fill:#ffffff;fill-opacity:1;fill-rule:evenodd;stroke:#000000;stroke-width:0.3856518;stroke-linecap:round;stroke-linejoin:round;stroke-opacity:1"
       d="m 15.537709,995.0949 -2.708689,-8.38067 -5.82423,6.44925 2.708824,8.38052 z" />
    <path
       inkscape:connector-curvature="0"
       id="path4726-68"
       style="fill:#000000;fill-opacity:1;fill-rule:evenodd;stroke:#000000;stroke-width:0.3856518;stroke-linecap:round;stroke-linejoin:round;stroke-opacity:1"
       d="m 23.701659,996.64453 -3.845713,-0.6248 -4.318237,-0.92483 -2.912452,3.22425 -2.911643,3.22485 4.318178,0.9249 2.951602,-3.20301 3.751193,0.85111 z"
       sodipodi:nodetypes="ccccccccc" />
    <path
       sodipodi:nodetypes="ccccc"
       inkscape:connector-curvature="0"
       id="path4728-78"
       style="fill:#7d7d7d;fill-opacity:1;fill-rule:evenodd;stroke:#000000;stroke-width:0.3856518;stroke-linecap:round;stroke-linejoin:round;stroke-opacity:1"
       d="m 24.070725,996.65956 -2.60529,-8.09558 -8.636415,-1.84975 2.708689,8.38067 z" />
    <path
       inkscape:connector-curvature="0"
       id="path4724-4-0"
       style="fill:#ffffff;fill-opacity:1;fill-rule:evenodd;stroke:#000000;stroke-width:0.3856518;stroke-linecap:round;stroke-linejoin:round;stroke-opacity:1"
       d="m 28.400349,997.38319 -1.354341,-4.19033 -1.354348,-4.19034 -2.911778,3.225 1.246309,4.26668 -3.227394,3.6153 4.266118,0.9654 z"
       sodipodi:nodetypes="cccccccc" />
    <path
       inkscape:connector-curvature="0"
       id="path4726-9-9"
       style="fill:#000000;fill-opacity:1;fill-rule:evenodd;stroke:#000000;stroke-width:0.3856518;stroke-linecap:round;stroke-linejoin:round;stroke-opacity:1"
       d="m 37.036832,999.23289 -4.318246,-0.9249 -4.318237,-0.9248 -3.302664,3.67901 0.560469,0.1163 1.236576,3.5784 4.31817,0.925 2.911711,-3.225 z"
       sodipodi:nodetypes="ccccccccc" />
    <path
       inkscape:connector-curvature="0"
       id="path4728-7-5"
       style="fill:#7d7d7d;fill-opacity:1;fill-rule:evenodd;stroke:#000000;stroke-width:0.3856518;stroke-linecap:round;stroke-linejoin:round;stroke-opacity:1"
       d="m 37.036832,999.23289 -2.708757,-8.38062 -8.636415,-1.84975 2.708689,8.38067 z" />
    <path
       inkscape:connector-curvature="0"
       id="path4724-3-6"
       style="fill:#ffffff;fill-opacity:1;fill-rule:evenodd;stroke:#000000;stroke-width:0.3856518;stroke-linecap:round;stroke-linejoin:round;stroke-opacity:1"
       d="m 54.390679,1003.0349 -1.354341,-4.19041 -1.354348,-4.1903 -2.742552,3.038 1.345481,4.46451 -3.069774,3.1957 1.351454,4.1316 2.91171,-3.2249 z"
       sodipodi:nodetypes="ccccccccc" />
    <path
       inkscape:connector-curvature="0"
       id="path4726-41-9"
       style="fill:#000000;fill-opacity:1;fill-rule:evenodd;stroke:#000000;stroke-width:0.3856518;stroke-linecap:round;stroke-linejoin:round;stroke-opacity:1"
       d="m 63.027162,1004.8845 -4.318246,-0.9248 -4.318237,-0.9248 -2.912452,3.2242 -2.911643,3.2249 4.502987,1.0921 2.896722,-3.0825 3.981063,0.8001 z"
       sodipodi:nodetypes="ccccccccc" />
    <path
       inkscape:connector-curvature="0"
       id="path4728-9-0"
       style="fill:#7d7d7d;fill-opacity:1;fill-rule:evenodd;stroke:#000000;stroke-width:0.3856518;stroke-linecap:round;stroke-linejoin:round;stroke-opacity:1"
       d="m 63.027162,1004.8845 -2.708757,-8.38056 -8.636415,-1.84975 2.708689,8.38071 z" />
    <path
       inkscape:connector-curvature="0"
       id="path4724-1-0"
       style="fill:#ffffff;fill-opacity:1;fill-rule:evenodd;stroke:#000000;stroke-width:0.3856518;stroke-linecap:round;stroke-linejoin:round;stroke-opacity:1"
       d="m 58.677729,1015.8489 -2.708689,-8.3807 -5.82423,6.4493 2.708824,8.3805 z" />
    <path
       inkscape:connector-curvature="0"
       id="path4726-7-1"
       style="fill:#000000;fill-opacity:1;fill-rule:evenodd;stroke:#000000;stroke-width:0.3856518;stroke-linecap:round;stroke-linejoin:round;stroke-opacity:1"
       d="m 67.314212,1017.6986 -4.318246,-0.9249 -4.318237,-0.9248 -2.912452,3.2242 -2.911643,3.2249 4.318178,0.9249 2.858104,-3.2876 4.371747,0.9876 z"
       sodipodi:nodetypes="ccccccccc" />
    <path
       inkscape:connector-curvature="0"
       id="path4728-5-3"
       style="fill:#7d7d7d;fill-opacity:1;fill-rule:evenodd;stroke:#000000;stroke-width:0.3856518;stroke-linecap:round;stroke-linejoin:round;stroke-opacity:1"
       d="m 67.314212,1017.6986 -2.708757,-8.3806 -8.636415,-1.8498 2.708689,8.3807 z" />
    <path
       sodipodi:nodetypes="ccccccccc"
       inkscape:connector-curvature="0"
       id="path4724-40-5"
       style="fill:#ffffff;fill-opacity:1;fill-rule:evenodd;stroke:#000000;stroke-width:0.3856518;stroke-linecap:round;stroke-linejoin:round;stroke-opacity:1"
       d="m 62.782869,1028.4983 -1.354341,-4.1903 -1.354348,-4.1904 -2.911778,3.225 -2.912452,3.2243 1.388914,4.434 1.758343,0.4317 2.303272,0.455 z" />
    <path
       inkscape:connector-curvature="0"
       id="path4726-94-5"
       style="fill:#000000;fill-opacity:1;fill-rule:evenodd;stroke:#000000;stroke-width:0.3856518;stroke-linecap:round;stroke-linejoin:round;stroke-opacity:1"
       d="m 71.419352,1030.348 -4.318246,-0.9249 -4.318237,-0.9248 -2.912452,3.2243 0.570614,1.4441 0.890471,2.9037 2.836365,-3.052 4.067316,0.9246 z"
       sodipodi:nodetypes="ccccccccc" />
    <path
       inkscape:connector-curvature="0"
       id="path4728-4-8"
       style="fill:#7d7d7d;fill-opacity:1;fill-rule:evenodd;stroke:#000000;stroke-width:0.3856518;stroke-linecap:round;stroke-linejoin:round;stroke-opacity:1"
       d="m 71.419352,1030.348 -2.708757,-8.3806 -8.636415,-1.8498 2.708689,8.3807 z" />
    <path
       inkscape:connector-curvature="0"
       id="path4724-8-0"
       style="fill:#ffffff;fill-opacity:1;fill-rule:evenodd;stroke:#000000;stroke-width:0.3856518;stroke-linecap:round;stroke-linejoin:round;stroke-opacity:1"
       d="m 66.905289,1041.4943 -1.354341,-4.1904 -1.354348,-4.1903 -2.911778,3.225 1.509033,4.1643 -3.067054,3.2502 1.354408,4.1903 2.91171,-3.2249 z"
       sodipodi:nodetypes="ccccccccc" />
    <path
       inkscape:connector-curvature="0"
       id="path4726-6-1"
       style="fill:#000000;fill-opacity:1;fill-rule:evenodd;stroke:#000000;stroke-width:0.3856518;stroke-linecap:round;stroke-linejoin:round;stroke-opacity:1"
       d="m 75.541771,1043.3439 -8.636482,-1.8496 -5.824095,6.4491 8.636348,1.8498 z" />
    <path
       inkscape:connector-curvature="0"
       id="path4728-1-7"
       style="fill:#7d7d7d;fill-opacity:1;fill-rule:evenodd;stroke:#000000;stroke-width:0.3856518;stroke-linecap:round;stroke-linejoin:round;stroke-opacity:1"
       d="m 75.541771,1043.3439 -2.708756,-8.3805 -8.636415,-1.8498 2.708689,8.3807 z" />
    <path
       inkscape:connector-curvature="0"
       id="path4724-9-7"
       style="fill:#ffffff;fill-opacity:1;fill-rule:evenodd;stroke:#000000;stroke-width:0.3856518;stroke-linecap:round;stroke-linejoin:round;stroke-opacity:1"
       d="m 19.709519,1007.718 -2.708689,-8.38071 -5.82423,6.44921 2.708824,8.3806 z" />
    <path
       inkscape:connector-curvature="0"
       id="path4726-3-4"
       style="fill:#000000;fill-opacity:1;fill-rule:evenodd;stroke:#000000;stroke-width:0.3856518;stroke-linecap:round;stroke-linejoin:round;stroke-opacity:1"
       d="m 28.346002,1009.5676 -4.318246,-0.9248 -4.318237,-0.9248 -2.912452,3.2242 -2.911643,3.2249 3.863982,0.769 3.007877,-3.1947 4.782297,0.934 z"
       sodipodi:nodetypes="ccccccccc" />
    <path
       inkscape:connector-curvature="0"
       id="path4728-56-6"
       style="fill:#7d7d7d;fill-opacity:1;fill-rule:evenodd;stroke:#000000;stroke-width:0.3856518;stroke-linecap:round;stroke-linejoin:round;stroke-opacity:1"
       d="m 28.346002,1009.5676 -2.708757,-8.3806 -8.636415,-1.84971 2.708689,8.38071 z" />
    <path
       inkscape:connector-curvature="0"
       id="path4724-7-7"
       style="fill:#ffffff;fill-opacity:1;fill-rule:evenodd;stroke:#000000;stroke-width:0.3856518;stroke-linecap:round;stroke-linejoin:round;stroke-opacity:1"
       d="m 23.450819,1020.0381 -2.708689,-8.3807 -5.82423,6.4493 2.708824,8.3805 z" />
    <path
       inkscape:connector-curvature="0"
       id="path4726-34-0"
       style="fill:#000000;fill-opacity:1;fill-rule:evenodd;stroke:#000000;stroke-width:0.3856518;stroke-linecap:round;stroke-linejoin:round;stroke-opacity:1"
       d="m 29.47879,1024.6293 -0.916036,-3.4158 -5.111935,-1.1754 -2.912452,3.2243 -2.911643,3.2248 5.247114,0.979 2.484194,-2.7331 3.389344,0.7576 z"
       sodipodi:nodetypes="ccccccccc" />
    <path
       sodipodi:nodetypes="ccccccccc"
       inkscape:connector-curvature="0"
       id="path4728-3-7"
       style="fill:#7d7d7d;fill-opacity:1;fill-rule:evenodd;stroke:#000000;stroke-width:0.3856518;stroke-linecap:round;stroke-linejoin:round;stroke-opacity:1"
       d="m 30.06155,1019.7569 0.872744,-1.1543 -1.555749,-5.0954 -4.318245,-0.9248 -4.31817,-0.925 1.354348,4.1904 1.354341,4.1903 5.135306,1.1965 z" />
    <path
       inkscape:connector-curvature="0"
       id="path4724-87-4"
       style="fill:#ffffff;fill-opacity:1;fill-rule:evenodd;stroke:#000000;stroke-width:0.3856518;stroke-linecap:round;stroke-linejoin:round;stroke-opacity:1"
       d="m 28.101709,1033.1814 -2.708689,-8.3807 -5.82423,6.4493 2.708824,8.3805 z" />
    <path
       inkscape:connector-curvature="0"
       id="path4726-96-1"
       style="fill:#000000;fill-opacity:1;fill-rule:evenodd;stroke:#000000;stroke-width:0.3856518;stroke-linecap:round;stroke-linejoin:round;stroke-opacity:1"
       d="m 36.738192,1035.0311 -8.636483,-1.8497 -5.824095,6.4491 8.636348,1.8498 z" />
    <path
       sodipodi:nodetypes="ccccccccc"
       inkscape:connector-curvature="0"
       id="path4728-10-2"
       style="fill:#7d7d7d;fill-opacity:1;fill-rule:evenodd;stroke:#000000;stroke-width:0.3856518;stroke-linecap:round;stroke-linejoin:round;stroke-opacity:1"
       d="m 36.738192,1035.0311 -1.393881,-4.3111 -4.098738,-1.0403 -1.228794,-3.8689 -4.623759,-1.0101 1.354348,4.1904 1.354341,4.1903 4.318237,0.9248 z" />
    <path
       inkscape:connector-curvature="0"
       id="path4724-11-1"
       style="fill:#ffffff;fill-opacity:1;fill-rule:evenodd;stroke:#000000;stroke-width:0.3856518;stroke-linecap:round;stroke-linejoin:round;stroke-opacity:1"
       d="m 40.914959,1035.8426 -1.354341,-4.1903 -2.622824,-0.7152 -1.723705,-0.4318 1.504823,4.4394 -2.982441,3.1568 1.354408,4.1902 2.91171,-3.2249 z"
       sodipodi:nodetypes="ccccccccc" />
    <path
       inkscape:connector-curvature="0"
       id="path4726-40-8"
       style="fill:#000000;fill-opacity:1;fill-rule:evenodd;stroke:#000000;stroke-width:0.3856518;stroke-linecap:round;stroke-linejoin:round;stroke-opacity:1"
       d="m 49.551442,1037.6923 -8.636483,-1.8497 -5.824095,6.4491 8.636348,1.8498 z" />
    <path
       sodipodi:nodetypes="ccccccccc"
       inkscape:connector-curvature="0"
       id="path4728-70-3"
       style="fill:#7d7d7d;fill-opacity:1;fill-rule:evenodd;stroke:#000000;stroke-width:0.3856518;stroke-linecap:round;stroke-linejoin:round;stroke-opacity:1"
       d="m 49.551442,1037.6923 -1.354408,-4.1903 -1.354349,-4.1903 -4.318245,-0.9248 -1.607807,1.9529 -1.355971,1.3125 1.354341,4.1903 4.318238,0.9249 z" />
    <path
       inkscape:connector-curvature="0"
       id="path4724-30-5"
       style="fill:#ffffff;fill-opacity:1;fill-rule:evenodd;stroke:#000000;stroke-width:0.3856518;stroke-linecap:round;stroke-linejoin:round;stroke-opacity:1"
       d="m 54.074759,1038.4865 -1.354341,-4.1903 -1.354348,-4.1903 -3.081003,3.4119 1.246309,4.2667 -2.635105,2.9609 1.354408,4.1902 2.91171,-3.2249 z"
       sodipodi:nodetypes="ccccccccc" />
    <path
       inkscape:connector-curvature="0"
       id="path4726-74-7"
       style="fill:#000000;fill-opacity:1;fill-rule:evenodd;stroke:#000000;stroke-width:0.3856518;stroke-linecap:round;stroke-linejoin:round;stroke-opacity:1"
       d="m 62.711242,1040.3362 -8.636483,-1.8497 -5.824095,6.4491 8.636348,1.8498 z" />
    <path
       inkscape:connector-curvature="0"
       id="path4728-8-1"
       style="fill:#7d7d7d;fill-opacity:1;fill-rule:evenodd;stroke:#000000;stroke-width:0.3856518;stroke-linecap:round;stroke-linejoin:round;stroke-opacity:1"
       d="m 62.711242,1040.3362 -2.708757,-8.3806 -8.636415,-1.8497 2.708689,8.3806 z" />
    <path
       inkscape:connector-curvature="0"
       id="path4724-04-4"
       style="fill:#ffffff;fill-opacity:1;fill-rule:evenodd;stroke:#000000;stroke-width:0.3856518;stroke-linecap:round;stroke-linejoin:round;stroke-opacity:1"
       d="m 37.109459,1023.2271 -2.708689,-8.3807 -5.82423,6.4493 2.708824,8.3805 z" />
    <path
       inkscape:connector-curvature="0"
       id="path4726-45-7"
       style="fill:#000000;fill-opacity:1;fill-rule:evenodd;stroke:#000000;stroke-width:0.3856518;stroke-linecap:round;stroke-linejoin:round;stroke-opacity:1"
       d="m 45.745942,1025.0768 -4.318246,-0.9249 -4.318237,-0.9248 -2.912452,3.2242 -2.911643,3.2249 4.318178,0.9249 4.055417,1.0273 3.174434,-3.3273 z"
       sodipodi:nodetypes="ccccccccc" />
    <path
       inkscape:connector-curvature="0"
       id="path4728-73-6"
       style="fill:#7d7d7d;fill-opacity:1;fill-rule:evenodd;stroke:#000000;stroke-width:0.3856518;stroke-linecap:round;stroke-linejoin:round;stroke-opacity:1"
       d="m 45.745942,1025.0768 -1.01828,-3.716 -4.905763,-1.1117 -1.327819,-4.5112 -4.09331,-0.8915 1.354341,4.1904 1.354348,4.1903 4.318237,0.9248 z"
       sodipodi:nodetypes="ccccccccc" />
    <path
       inkscape:connector-curvature="0"
       id="path4724-89-8"
       style="fill:#ffffff;fill-opacity:1;fill-rule:evenodd;stroke:#000000;stroke-width:0.3856518;stroke-linecap:round;stroke-linejoin:round;stroke-opacity:1"
       d="m 45.617529,1013.9195 -0.677167,-2.0951 -0.677174,-2.0952 -0.327751,-1.3537 -3.032874,-0.6167 -0.905501,1.0051 -1.456259,1.6121 -1.456193,1.6121 0.677175,2.0952 0.677241,2.0951 0.677174,2.0952 0.677234,2.095 1.455451,-1.6127 1.456259,-1.6122 1.456192,-1.6121 z"
       sodipodi:nodetypes="cccccccccccccccc" />
    <path
       inkscape:connector-curvature="0"
       id="path4726-63-2"
       style="fill:#000000;fill-opacity:1;fill-rule:evenodd;stroke:#000000;stroke-width:0.3856518;stroke-linecap:round;stroke-linejoin:round;stroke-opacity:1"
       d="m 51.032325,1016.5103 -0.608975,-1.7349 -4.805821,-0.8559 -2.912452,3.2243 -2.911643,3.2248 8.631843,1.7608 3.165615,-3.5055 z"
       sodipodi:nodetypes="cccccccc" />
    <path
       inkscape:connector-curvature="0"
       id="path4728-2-3"
       style="fill:#7d7d7d;fill-opacity:1;fill-rule:evenodd;stroke:#000000;stroke-width:0.3856518;stroke-linecap:round;stroke-linejoin:round;stroke-opacity:1"
       d="m 50.143172,1013.8986 3.148401,-3.4106 -4.680903,-1.0782 -1.333992,-3.9641 -0.806645,0.8593 -0.806712,0.8594 -1.199077,1.2695 -0.723087,-0.1491 1.876364,5.6347 4.810298,0.9449 z"
       sodipodi:nodetypes="ccccccccccc" />
    <path
       inkscape:connector-curvature="0"
       id="path4724-0-0"
       style="fill:#ffffff;fill-opacity:1;fill-rule:evenodd;stroke:#000000;stroke-width:0.3856518;stroke-linecap:round;stroke-linejoin:round;stroke-opacity:1"
       d="m 41.742059,1000.1917 -1.354341,-4.19029 -1.354348,-4.19034 -3.250229,3.59899 1.143926,4.00393 -2.542407,2.81091 1.533044,4.4157 2.911711,-3.2249 z"
       sodipodi:nodetypes="ccccccccc" />
    <path
       inkscape:connector-curvature="0"
       id="path4726-4-2"
       style="fill:#000000;fill-opacity:1;fill-rule:evenodd;stroke:#000000;stroke-width:0.3856518;stroke-linecap:round;stroke-linejoin:round;stroke-opacity:1"
       d="m 50.378542,1002.0414 -8.636483,-1.8497 -5.824095,6.4491 8.54285,1.7653 z"
       sodipodi:nodetypes="ccccc" />
    <path
       inkscape:connector-curvature="0"
       id="path4728-0-7"
       style="fill:#7d7d7d;fill-opacity:1;fill-rule:evenodd;stroke:#000000;stroke-width:0.3856518;stroke-linecap:round;stroke-linejoin:round;stroke-opacity:1"
       d="m 50.378542,1002.0414 -2.708757,-8.38058 -8.636415,-1.84975 2.708689,8.38063 z" />
    <path
       sodipodi:type="arc"
       style="fill:none;stroke:#ffff00;stroke-width:0.17716534;stroke-linecap:round;stroke-linejoin:round;stroke-miterlimit:4;stroke-opacity:1;stroke-dasharray:none;stroke-dashoffset:0"
       id="path4785-8"
       sodipodi:cx="19.616594"
       sodipodi:cy="23.213087"
       sodipodi:rx="2.0016932"
       sodipodi:ry="2.0016932"
       d="m 21.611075,23.043314 a 2.0016932,2.0016932 0 1 1 -0.02134,-0.16709"
       transform="matrix(-0.59756724,0.54842205,0.64372947,0.50909437,5.26232,966.23829)"
       sodipodi:start="6.1982688"
       sodipodi:end="12.397277"
       sodipodi:open="true" />
    <path
       sodipodi:nodetypes="cccccccccccccccccccccccccccccccccccccccc"
       style="fill:none;stroke:#ffff00;stroke-width:1px;stroke-linecap:butt;stroke-linejoin:round;stroke-opacity:1"
       d="m 9.32939,1001.9965 3.827415,0.8489 -2.483528,2.7443 2.905392,9.0474 3.277684,0.6683 -2.566509,2.7485 2.940672,8.9208 4.783775,0.8428 -2.956579,3.2671 2.940672,8.9208 9.007376,2.1295 2.59765,-2.958 1.177924,3.6015 8.955535,1.9241 2.881878,-3.0969 1.316886,3.8857 9.042656,2.003 2.439967,-2.7838 1.273325,3.8464 9.082078,1.9594 6.30323,-7.0527 -2.687587,-8.8503 -4.167622,-0.9983 2.925438,-3.0575 -2.95309,-9.1698 -3.862697,-0.7224 2.64949,-2.7526 -3.040212,-9.2486 -4.06808,-0.6705 2.846595,-2.9704 -2.992512,-9.12625 -9.204481,-1.91169 -2.408824,2.57422 -0.837718,-3.45212 -9.457566,-1.98225 -2.886017,3.01396 -1.0161,-3.69278 -9.465846,-2.14821 -2.60179,2.875 -0.999542,-3.36086"
       id="path6410-8"
       inkscape:connector-curvature="0" />
    <path
       style="fill:none;stroke:#ffff00;stroke-width:1px;stroke-linecap:butt;stroke-linejoin:round;stroke-opacity:1"
       d="m 27.856615,1005.6892 1.285744,4.0952 -2.081037,2.4747 2.854496,0.5231 1.424705,4.3795 2.738777,-3.4641 3.132418,1.0915 -1.144807,-2.9376 3.473193,-3.7504 -4.151062,-0.6664 -1.225624,-3.7239 -2.649491,2.7526 z"
       id="path6412-5"
       inkscape:connector-curvature="0"
       sodipodi:nodetypes="ccccccccccccc" />
    <path
       style="fill:none;stroke:#ffff00;stroke-width:0.92125982;stroke-linecap:round;stroke-linejoin:round;stroke-miterlimit:4;stroke-opacity:1;stroke-dasharray:none"
       d="m 45.674784,1022.3682 0.917926,2.9878 -2.552989,2.7078 3.31064,0.5273 1.206866,3.5671 2.24093,-2.7621 3.668701,0.6156 -1.212245,-3.6441 2.667882,-2.6984 -3.581949,-0.6081 -0.880422,-3.2689 -2.473814,3.022 z"
       id="path6412-2-9"
       inkscape:connector-curvature="0"
       sodipodi:nodetypes="ccccccccccccc" />
    <path
       style="fill:none;stroke:#ffff00;stroke-width:0.99212599;stroke-linecap:round;stroke-linejoin:miter;stroke-miterlimit:4;stroke-opacity:1;stroke-dasharray:none"
       d="m 9.3709719,20.301939 c 0,0 -10.10419163,-15.6727281 -7.6139147,-18.5467149 C 4.3444973,-1.230897 21.800525,6.2454815 21.800525,6.2454815"
       id="path9111"
       inkscape:connector-curvature="0"
       transform="translate(0,981.49467)"
       sodipodi:nodetypes="csc" />
    <path
       sodipodi:type="arc"
       style="fill:none;stroke:#ffff00;stroke-width:0.17716534;stroke-linecap:round;stroke-linejoin:round;stroke-miterlimit:4;stroke-opacity:1;stroke-dasharray:none;stroke-dashoffset:0"
       id="path4785-8-3"
       sodipodi:cx="19.616594"
       sodipodi:cy="23.213087"
       sodipodi:rx="2.0016932"
       sodipodi:ry="2.0016932"
       d="m 21.611075,23.043314 a 2.0016932,2.0016932 0 1 1 -0.02134,-0.16709"
       transform="matrix(-0.59756724,0.54842205,0.64372947,0.50909437,68.974097,966.23252)"
       sodipodi:start="6.1982688"
       sodipodi:end="12.397277"
       sodipodi:open="true" />
    <path
       style="fill:none;stroke:#ffff00;stroke-width:0.99212599;stroke-linecap:round;stroke-linejoin:miter;stroke-miterlimit:4;stroke-opacity:1;stroke-dasharray:none"
       d="m 73.082749,1001.791 c 0,0 -10.104191,-15.67289 -7.613915,-18.54688 2.587441,-2.98612 20.043468,4.49026 20.043468,4.49026"
       id="path9111-4"
       inkscape:connector-curvature="0"
       sodipodi:nodetypes="csc" />
  </g>
</svg>
